<svg xmlns="http://www.w3.org/2000/svg" xmlns:xlink="http://www.w3.org/1999/xlink" contentStyleType="text/css" data-diagram-type="DESCRIPTION" height="540px" preserveAspectRatio="none" style="width:1498px;height:540px;background:#FFFFFF;" version="1.1" viewBox="0 0 1498 540" width="1498px" zoomAndPan="magnify"><title>Layered Architecture - permitted dependencies (green) and observed violations (red)</title><defs/><g><g class="title" data-source-line="7"><text fill="#000000" font-family="Helvetica" font-size="14" font-weight="bold" lengthAdjust="spacing" textLength="677.0996" x="403.9338" y="22.9951">Layered Architecture - permitted dependencies (green) and observed violations (red)</text></g><!--entity P--><g class="entity" data-entity="P" data-source-line="9" data-uid="ent0002" id="entity_P"><rect fill="#F7FAFD" height="52.5938" rx="2.5" ry="2.5" style="stroke:#2F5D8A;stroke-width:0.5;" width="270.8242" x="431" y="44.2969"/><text fill="#000000" font-family="Helvetica" font-size="14" lengthAdjust="spacing" textLength="128.0508" x="441" y="67.292">Presentation layer</text><text fill="#000000" font-family="Helvetica" font-size="14" lengthAdjust="spacing" textLength="250.8242" x="441" y="83.5889">view.shopping, view.admin, *.xhtml</text></g><!--entity R--><g class="entity" data-entity="R" data-source-line="10" data-uid="ent0003" id="entity_R"><rect fill="#F7FAFD" height="52.5938" rx="2.5" ry="2.5" style="stroke:#2F5D8A;stroke-width:0.5;" width="181.1094" x="1184" y="44.2969"/><text fill="#000000" font-family="Helvetica" font-size="14" lengthAdjust="spacing" textLength="161.1094" x="1194" y="67.292">Remote interface layer</text><text fill="#000000" font-family="Helvetica" font-size="14" lengthAdjust="spacing" textLength="89.4893" x="1194" y="83.5889">rest (JAX-RS)</text></g><!--entity S--><g class="entity" data-entity="S" data-source-line="11" data-uid="ent0004" id="entity_S"><rect fill="#F7FAFD" height="52.5938" rx="2.5" ry="2.5" style="stroke:#2F5D8A;stroke-width:0.5;" width="223.4033" x="798" y="189.2969"/><text fill="#000000" font-family="Helvetica" font-size="14" lengthAdjust="spacing" textLength="181.5625" x="808" y="212.292">Application / service layer</text><text fill="#000000" font-family="Helvetica" font-size="14" lengthAdjust="spacing" textLength="203.4033" x="808" y="228.5889">service (EJB session facades)</text></g><!--entity D--><g class="entity" data-entity="D" data-source-line="12" data-uid="ent0005" id="entity_D"><rect fill="#F7FAFD" height="52.5938" rx="2.5" ry="2.5" style="stroke:#2F5D8A;stroke-width:0.5;" width="235.4004" x="7" y="323.7969"/><text fill="#000000" font-family="Helvetica" font-size="14" lengthAdjust="spacing" textLength="93.8984" x="17" y="346.792">Domain layer</text><text fill="#000000" font-family="Helvetica" font-size="14" lengthAdjust="spacing" textLength="215.4004" x="17" y="363.0889">model, constraints, exceptions</text></g><!--entity I--><g class="entity" data-entity="I" data-source-line="13" data-uid="ent0006" id="entity_I"><rect fill="#F7FAFD" height="52.5938" rx="2.5" ry="2.5" style="stroke:#2F5D8A;stroke-width:0.5;" width="363.1436" x="458" y="323.7969"/><text fill="#000000" font-family="Helvetica" font-size="14" lengthAdjust="spacing" textLength="135.6797" x="468" y="346.792">Infrastructure layer</text><text fill="#000000" font-family="Helvetica" font-size="14" lengthAdjust="spacing" textLength="343.1436" x="468" y="363.0889">util (CDI producers, interceptors), security (JAAS)</text></g><!--entity DB--><g class="entity" data-entity="DB" data-source-line="14" data-uid="ent0007" id="entity_DB"><path d="M1041,329.2969 C1041,319.2969 1091.2876,319.2969 1091.2876,319.2969 C1091.2876,319.2969 1141.5752,319.2969 1141.5752,329.2969 L1141.5752,370.8906 C1141.5752,380.8906 1091.2876,380.8906 1091.2876,380.8906 C1091.2876,380.8906 1041,380.8906 1041,370.8906 L1041,329.2969" fill="#F1F1F1" style="stroke:#181818;stroke-width:0.5;"/><path d="M1041,329.2969 C1041,339.2969 1091.2876,339.2969 1091.2876,339.2969 C1091.2876,339.2969 1141.5752,339.2969 1141.5752,329.2969" fill="none" style="stroke:#181818;stroke-width:0.5;"/><text fill="#000000" font-family="Helvetica" font-size="14" lengthAdjust="spacing" textLength="80.5752" x="1051" y="356.292">Persistence</text><text fill="#000000" font-family="Helvetica" font-size="14" lengthAdjust="spacing" textLength="70.0547" x="1051" y="372.5889">JPA / JDBC</text></g><!--link P to S--><g class="link" data-entity-1="P" data-entity-2="S" data-source-line="16" data-uid="lnk8" id="link_P_S"><path d="M604,97.4169 C633.32,116.5469 675.66,142.2269 715.5,159.2969 C742.87,171.0269 767.6816,179.4359 796.3316,187.6359" fill="none" id="P-to-S" style="stroke:#1B7F3B;stroke-width:1;"/><polygon fill="#1B7F3B" points="802.1,189.2869,794.5481,182.9648,797.293,187.9111,792.3468,190.656,802.1,189.2869" style="stroke:#1B7F3B;stroke-width:1;"/><text fill="#000000" font-family="Helvetica" font-size="13" lengthAdjust="spacing" textLength="50.0259" x="716.5" y="147.8638">allowed</text></g><!--link S to P--><g class="link" data-entity-1="S" data-entity-2="P" data-source-line="27" data-uid="lnk18" id="link_S_P"><path d="M875.68,189.2569 C848.69,169.9169 809.28,143.9269 771.5,127.2969 C744.25,115.2969 719.5728,106.9465 690.6528,98.9465" fill="none" id="S-to-P" style="stroke:#B00020;stroke-width:1;stroke-dasharray:7,7;"/><polygon fill="#B00020" points="684.87,97.3469,692.4778,103.6016,689.689,98.6799,694.6107,95.8912,684.87,97.3469" style="stroke:#B00020;stroke-width:1;"/><text fill="#000000" font-family="Helvetica" font-size="13" lengthAdjust="spacing" textLength="132.9707" x="881.9578" y="140.3638">VIOLATION ARCH-01</text><text fill="#000000" font-family="Helvetica" font-size="13" lengthAdjust="spacing" textLength="231.8862" x="832.5" y="155.4966">ShoppingCartItem in view.shopping</text></g><!--link R to S--><g class="link" data-entity-1="R" data-entity-2="S" data-source-line="17" data-uid="lnk9" id="link_R_S"><path d="M1218.84,97.3469 C1178.55,115.4869 1122.59,139.9569 1072.5,159.2969 C1045.45,169.7369 1021.1868,178.3236 994.4068,187.3336" fill="none" id="R-to-S" style="stroke:#1B7F3B;stroke-width:1;"/><polygon fill="#1B7F3B" points="988.72,189.2469,998.5257,190.1681,993.459,187.6525,995.9746,182.5858,988.72,189.2469" style="stroke:#1B7F3B;stroke-width:1;"/><text fill="#000000" font-family="Helvetica" font-size="13" lengthAdjust="spacing" textLength="104.0571" x="1145.5" y="147.8638">allowed (target)</text></g><!--link S to D--><g class="link" data-entity-1="S" data-entity-2="D" data-source-line="18" data-uid="lnk10" id="link_S_D"><path d="M797.63,237.4969 C788.45,239.1369 779.32,240.7569 770.5,242.2969 C586.14,274.4769 377.6734,308.5609 248.1134,329.4709" fill="none" id="S-to-D" style="stroke:#1B7F3B;stroke-width:1;"/><polygon fill="#1B7F3B" points="242.19,330.4269,251.7124,332.9418,247.1261,329.6302,250.4377,325.044,242.19,330.4269" style="stroke:#1B7F3B;stroke-width:1;"/><text fill="#000000" font-family="Helvetica" font-size="13" lengthAdjust="spacing" textLength="50.0259" x="594.5" y="285.3638">allowed</text></g><!--link S to DB--><g class="link" data-entity-1="S" data-entity-2="DB" data-source-line="19" data-uid="lnk11" id="link_S_DB"><path d="M944.59,242.3469 C974.75,264.3069 1013.4388,292.4762 1045.2888,315.6562" fill="none" id="S-to-DB" style="stroke:#1B7F3B;stroke-width:1;"/><polygon fill="#1B7F3B" points="1050.14,319.1869,1045.2169,310.6567,1046.0973,316.2447,1040.5094,317.125,1050.14,319.1869" style="stroke:#1B7F3B;stroke-width:1;"/><text fill="#000000" font-family="Helvetica" font-size="13" lengthAdjust="spacing" textLength="50.0259" x="1007.5" y="285.3638">allowed</text></g><!--link P to D--><g class="link" data-entity-1="P" data-entity-2="D" data-source-line="20" data-uid="lnk12" id="link_P_D"><path d="M430.76,89.5469 C314.82,107.8169 161.01,140.5369 123.5,189.2969 C93.69,228.0469 103.6359,283.384 113.8259,317.784" fill="none" id="P-to-D" style="stroke:#1B7F3B;stroke-width:1;"/><polygon fill="#1B7F3B" points="115.53,323.5369,116.8091,313.7714,114.1099,318.7428,109.1385,316.0436,115.53,323.5369" style="stroke:#1B7F3B;stroke-width:1;"/><text fill="#000000" font-family="Helvetica" font-size="13" lengthAdjust="spacing" textLength="211.5039" x="124.5" y="220.3638">allowed (read-only view models)</text></g><!--link I to S--><g class="link" data-entity-1="I" data-entity-2="S" data-source-line="21" data-uid="lnk13" id="link_I_S"><path d="M663.77,323.6569 C680.78,306.9869 704.82,285.8869 729.5,272.2969 C751.56,260.1469 770.921,252.1327 795.201,244.2827" fill="none" id="I-to-S" style="stroke:#1B7F3B;stroke-width:1;"/><polygon fill="#1B7F3B" points="800.91,242.4369,791.1159,241.3995,796.1525,243.975,793.577,249.0116,800.91,242.4369" style="stroke:#1B7F3B;stroke-width:1;"/><text fill="#000000" font-family="Helvetica" font-size="13" lengthAdjust="spacing" textLength="50.0259" x="730.5" y="285.3638">allowed</text></g><!--link S to I--><g class="link" data-entity-1="S" data-entity-2="I" data-source-line="23" data-uid="lnk15" id="link_S_I"><path d="M868.96,242.4269 C845.11,257.0169 814.11,275.1369 785.5,289.2969 C760.45,301.6969 737.749,311.5039 712.809,321.5039" fill="none" id="S-to-I" style="stroke:#333333;stroke-width:1;stroke-dasharray:7,7;"/><polygon fill="#333333" points="707.24,323.7369,717.0822,324.1001,711.8808,321.8761,714.1049,316.6748,707.24,323.7369" style="stroke:#333333;stroke-width:1;"/><text fill="#000000" font-family="Helvetica" font-size="13" lengthAdjust="spacing" textLength="141.4385" x="818.5" y="285.3638">allowed (annotations)</text></g><!--link P to I--><g class="link" data-entity-1="P" data-entity-2="I" data-source-line="22" data-uid="lnk14" id="link_P_I"><path d="M486.95,97.3569 C409.8,126.5569 310.39,178.6169 354.5,242.2969 C382.64,282.9169 422.5531,306.2241 469.1131,321.8841" fill="none" id="P-to-I" style="stroke:#333333;stroke-width:1;stroke-dasharray:7,7;"/><polygon fill="#333333" points="474.8,323.7969,467.5447,317.1365,470.0609,322.2029,464.9944,324.719,474.8,323.7969" style="stroke:#333333;stroke-width:1;"/><text fill="#000000" font-family="Helvetica" font-size="13" lengthAdjust="spacing" textLength="141.4385" x="355.5" y="220.3638">allowed (annotations)</text></g><!--link I to P--><g class="link" data-entity-1="I" data-entity-2="P" data-source-line="28" data-uid="lnk19" id="link_I_P"><path d="M593.93,323.5469 C581.71,314.3569 569.85,302.8569 562.5,289.2969 C528.92,227.3769 544.7735,146.025 556.7335,103.275" fill="none" id="I-to-P" style="stroke:#B00020;stroke-width:1;stroke-dasharray:7,7;"/><polygon fill="#B00020" points="558.35,97.4969,552.0731,105.0864,557.0029,102.312,559.7773,107.2418,558.35,97.4969" style="stroke:#B00020;stroke-width:1;"/><text fill="#000000" font-family="Helvetica" font-size="13" lengthAdjust="spacing" textLength="132.9707" x="591.4385" y="212.8638">VIOLATION ARCH-01</text><text fill="#000000" font-family="Helvetica" font-size="13" lengthAdjust="spacing" textLength="220.8477" x="547.5" y="227.9966">CredentialsBean in view.shopping</text></g><!--link R to DB--><g class="link" data-entity-1="R" data-entity-2="DB" data-source-line="25" data-uid="lnk16" id="link_R_DB"><path d="M1287.56,97.5769 C1303.44,132.9069 1324.95,197.1169 1297.5,242.2969 C1263.92,297.5769 1197.2659,324.0452 1147.8859,337.2652" fill="none" id="R-to-DB" style="stroke:#B00020;stroke-width:1;stroke-dasharray:7,7;"/><polygon fill="#B00020" points="1142.09,338.8169,1151.8183,340.3533,1146.9199,337.5238,1149.7494,332.6254,1142.09,338.8169" style="stroke:#B00020;stroke-width:1;"/><text fill="#000000" font-family="Helvetica" font-size="13" lengthAdjust="spacing" textLength="132.9707" x="1334.7483" y="212.8638">VIOLATION ARCH-02</text><text fill="#000000" font-family="Helvetica" font-size="13" lengthAdjust="spacing" textLength="179.4673" x="1311.5" y="227.9966">EntityManager in endpoints</text></g><!--link P to DB--><g class="link" data-entity-1="P" data-entity-2="DB" data-source-line="26" data-uid="lnk17" id="link_P_DB"><path d="M702.01,78.0669 C842.12,85.8969 1044,101.5069 1069.5,127.2969 C1082.71,140.6569 1088.3167,255.2607 1090.3667,312.8907" fill="none" id="P-to-DB" style="stroke:#B00020;stroke-width:1;stroke-dasharray:7,7;"/><polygon fill="#B00020" points="1090.58,318.8869,1094.2575,309.7504,1090.4023,313.89,1086.2626,310.0348,1090.58,318.8869" style="stroke:#B00020;stroke-width:1;"/><text fill="#000000" font-family="Helvetica" font-size="13" lengthAdjust="spacing" textLength="132.9707" x="1120.2605" y="212.8638">VIOLATION ARCH-02</text><text fill="#000000" font-family="Helvetica" font-size="13" lengthAdjust="spacing" textLength="196.4917" x="1088.5" y="227.9966">EXTENDED PC in admin beans</text></g><g class="legend" data-source-line="30"><rect fill="#DDDDDD" height="111.7813" rx="7.5" ry="7.5" style="stroke:#000000;stroke-width:1;" width="457.4395" x="1015.5278" y="408.8906"/><text fill="#000000" font-family="Helvetica" font-size="14" font-weight="bold" lengthAdjust="spacing" textLength="284.0537" x="1025.4019" y="428.8857">Rule (ArchUnit layeredArchitecture)</text><text fill="#000000" font-family="Helvetica" font-size="14" font-weight="bold" lengthAdjust="spacing" textLength="51.2148" x="1337.2915" y="428.8857">Status</text><text fill="#000000" font-family="Helvetica" font-size="14" lengthAdjust="spacing" textLength="294.4717" x="1024.978" y="445.1826">Presentation may access Service, Domain</text><text fill="#000000" font-family="Helvetica" font-size="14" lengthAdjust="spacing" textLength="31.0967" x="1336.8677" y="445.1826">kept</text><text fill="#000000" font-family="Helvetica" font-size="14" lengthAdjust="spacing" textLength="207.9561" x="1024.978" y="461.4795">Rest may access Service only</text><text fill="#000000" font-family="Helvetica" font-size="14" lengthAdjust="spacing" textLength="126.6494" x="1336.8677" y="461.4795">broken (ARCH-02)</text><text fill="#000000" font-family="Helvetica" font-size="14" lengthAdjust="spacing" textLength="258.624" x="1024.978" y="477.7764">Service may not access Presentation</text><text fill="#000000" font-family="Helvetica" font-size="14" lengthAdjust="spacing" textLength="126.6494" x="1336.8677" y="477.7764">broken (ARCH-01)</text><text fill="#000000" font-family="Helvetica" font-size="14" lengthAdjust="spacing" textLength="302.9893" x="1024.978" y="494.0732">Infrastructure may not access Presentation</text><text fill="#000000" font-family="Helvetica" font-size="14" lengthAdjust="spacing" textLength="126.6494" x="1336.8677" y="494.0732">broken (ARCH-01)</text><text fill="#000000" font-family="Helvetica" font-size="14" lengthAdjust="spacing" textLength="184.8164" x="1024.978" y="510.3701">No package cycles (slices)</text><text fill="#000000" font-family="Helvetica" font-size="14" lengthAdjust="spacing" textLength="48.8018" x="1336.8677" y="510.3701">broken</text><line style="stroke:#000000;stroke-width:1;" x1="1020.5278" x2="1467.9673" y1="415.8906" y2="415.8906"/><line style="stroke:#000000;stroke-width:1;" x1="1020.5278" x2="1467.9673" y1="432.1875" y2="432.1875"/><line style="stroke:#000000;stroke-width:1;" x1="1020.5278" x2="1467.9673" y1="448.4844" y2="448.4844"/><line style="stroke:#000000;stroke-width:1;" x1="1020.5278" x2="1467.9673" y1="464.7813" y2="464.7813"/><line style="stroke:#000000;stroke-width:1;" x1="1020.5278" x2="1467.9673" y1="481.0781" y2="481.0781"/><line style="stroke:#000000;stroke-width:1;" x1="1020.5278" x2="1467.9673" y1="497.375" y2="497.375"/><line style="stroke:#000000;stroke-width:1;" x1="1020.5278" x2="1467.9673" y1="513.6719" y2="513.6719"/><line style="stroke:#000000;stroke-width:1;" x1="1020.5278" x2="1020.5278" y1="415.8906" y2="513.6719"/><line style="stroke:#000000;stroke-width:1;" x1="1332.4175" x2="1332.4175" y1="415.8906" y2="513.6719"/><line style="stroke:#000000;stroke-width:1;" x1="1467.9673" x2="1467.9673" y1="415.8906" y2="513.6719"/></g><!--SRC=[dLLTRzf047pthrYb3yKLK9AeQbMfaMmSLA8qGT1MaPe-R7mBd7A-i-xE8KZy-ExPG9slAYfFmEwCTsTtrc_X7DTaIG3QV2azvRwo17UILh2IVWabsK9wpmc2IjA2T2x9GSSl2Mob-2jgI1ZxGqiFdfo7bQcK0D9pOtEA8tShTOaM2t1B56ObzGBcg1or8eBcM2a_CjfVO45my9NK7NcPuq4hot9rg1UAKcC5sQ5HniARez67x5FoR1hcjmjhAYssgQEFesIKjL8JQyrg6pokFv6NNj5UbQIjIkz5DHQMICSiXG1puyZUSSQTD0gzD9hZJ1L7qRumE9XOSgHz7GSL7dQjW-XzjpHboH9rwndqKHHIT-5T_txf2tK0w63IvfbIOJo1r9xi77FQSTamYCvPSjMRpk8QDct3ah9KB6xzzFSG2fP_iRkVdTEpb6FEXImcHq6kuPgrkJ9JeDmtKHX1gWivj-qj_-zT5-W-fx9MeaPdRVHOporoQjL8l6Mfl5JG6MPZAAqHLKwMQUec0vEnBkvoPNbbfL-7DfDja-D8eCSRT45Y1addUKHqhSyc2JTwbgN3feGqYYRG-_NcCFquEav_zqvW1fy1bJ8h4j7qnH0lFje5-JYQFSp9Ml37eRGLcxm82rk2ecUqMZV-gwLqSJH-kT09zFidC6wJeDQcsIiNYlntlEaq7Gm6HuEkGBSaiQ_uv_ZoFFa-lho0P3hysXiSNUjJpUvOVqED2x8y3pQvA4qOSjFNwucklfzUPASPJ8Q1fjvok27KhX7l2T7a6Px3QptRkcM8reyz5O7iWOqQyLvBDsIViYibNwUKYtdA5YbQSCzWvMBf8u3D5vZo4OJE_WAgvd2qxqOSqcQiUULW4q3mmFq5hW7pd7q6iyPvNTXwQWEtlEvRq3HO-caor0kpWHjhRabp9Ot6yHQromf07lmE_A22n-337VYHEV-Buy90oNUODmRoTHvU61t7juTFoL_C9c9H6sd_0000]--></g></svg>