<svg xmlns="http://www.w3.org/2000/svg" xmlns:xlink="http://www.w3.org/1999/xlink" contentStyleType="text/css" data-diagram-type="SALT" height="214px" preserveAspectRatio="none" style="width:488px;height:214px;background:#FFFFFF;" version="1.1" viewBox="0 0 488 214" width="488px" zoomAndPan="magnify"><title>Wireframe - Home - main.xhtml (UC01 Browse Catalogue)</title><defs/><g><g class="title" data-source-line="2"><text fill="#000000" font-family="sans-serif" font-size="14" font-weight="bold" lengthAdjust="spacing" textLength="455.1572" x="15" y="27.9951">Wireframe - Home - main.xhtml (UC01 Browse Catalogue)</text></g><rect fill="#DDDDDD" height="14.9688" style="stroke:#000000;stroke-width:1;" width="470.8535" x="8.1519" y="43.2969"/><text fill="#000000" font-family="sans-serif" font-size="12" font-weight="bold" lengthAdjust="spacing" textLength="127.6465" x="8.1519" y="54.4355">Yaps Petstore EE 7</text><text fill="#000000" font-family="sans-serif" font-size="12" lengthAdjust="spacing" textLength="38.4551" x="145.7983" y="54.4355">Admin</text><text fill="#000000" font-family="sans-serif" font-size="12" lengthAdjust="spacing" textLength="65.4727" x="194.2534" y="54.4355">Languages</text><text fill="#000000" font-family="sans-serif" font-size="12" lengthAdjust="spacing" textLength="36.3984" x="269.7261" y="54.4355">Log in</text><text fill="#000000" font-family="sans-serif" font-size="12" lengthAdjust="spacing" textLength="83.7598" x="316.1245" y="54.4355">Shopping cart</text><text fill="#000000" font-family="sans-serif" font-size="12" lengthAdjust="spacing" textLength="82.7051" x="12.1519" y="71.4043">Search pets...</text><line style="stroke:#000000;stroke-width:1;" x1="10.1519" x2="205.1519" y1="74.2344" y2="74.2344"/><line style="stroke:#000000;stroke-width:1;" x1="10.1519" x2="10.1519" y1="71.2344" y2="73.2344"/><line style="stroke:#000000;stroke-width:1;" x1="205.1519" x2="205.1519" y1="71.2344" y2="73.2344"/><rect fill="#EEEEEE" height="17.9688" rx="5" ry="5" style="stroke:#000000;stroke-width:2.5;" width="52" x="211.6519" y="62.7656"/><text fill="#000000" font-family="sans-serif" font-size="12" lengthAdjust="spacing" textLength="41.4902" x="216.9067" y="75.9043">Search</text><line style="stroke:#AAAAAA;stroke-width:1;" x1="8.1519" x2="479.0054" y1="88.7344" y2="88.7344"/><line style="stroke:#AAAAAA;stroke-width:1;" x1="8.1519" x2="479.0054" y1="90.7344" y2="90.7344"/><text fill="#000000" font-family="sans-serif" font-size="12" font-weight="bold" lengthAdjust="spacing" textLength="98.9414" x="8.1519" y="105.373">YAPS PetStore</text><text fill="#000000" font-family="sans-serif" font-size="12" lengthAdjust="spacing" textLength="30.3691" x="84.1519" y="122.3418">Birds</text><line style="stroke:#000000;stroke-width:1;" x1="82.1519" x2="173.1519" y1="125.1719" y2="125.1719"/><line style="stroke:#000000;stroke-width:1;" x1="82.1519" x2="82.1519" y1="122.1719" y2="124.1719"/><line style="stroke:#000000;stroke-width:1;" x1="173.1519" x2="173.1519" y1="122.1719" y2="124.1719"/><text fill="#000000" font-family="sans-serif" font-size="12" lengthAdjust="spacing" textLength="24.0938" x="12.1519" y="140.3105">Fish</text><line style="stroke:#000000;stroke-width:1;" x1="10.1519" x2="69.1519" y1="143.1406" y2="143.1406"/><line style="stroke:#000000;stroke-width:1;" x1="10.1519" x2="10.1519" y1="140.1406" y2="142.1406"/><line style="stroke:#000000;stroke-width:1;" x1="69.1519" x2="69.1519" y1="140.1406" y2="142.1406"/><path d="M82.1519,132.1406 L82.1519,140.1406 L90.1519,140.1406 L90.1519,132.1406 L82.1519,132.1406 M83.1519,133.1406 L89.1519,133.1406 L89.1519,136.1406 L88.1519,135.1406 L87.1519,136.1406 L89.1519,138.1406 L89.1519,139.1406 L88.1519,139.1406 L84.1519,135.1406 L83.1519,136.1406 L83.1519,133.1406" fill="#000000"/><text fill="#000000" font-family="sans-serif" font-size="12" lengthAdjust="spacing" textLength="138.4336" x="94.9663" y="140.3105">splash.gif (image map)</text><text fill="#000000" font-family="sans-serif" font-size="12" lengthAdjust="spacing" textLength="30.4512" x="238.3999" y="140.3105">Dogs</text><line style="stroke:#000000;stroke-width:1;" x1="236.3999" x2="295.3999" y1="143.1406" y2="143.1406"/><line style="stroke:#000000;stroke-width:1;" x1="236.3999" x2="236.3999" y1="140.1406" y2="142.1406"/><line style="stroke:#000000;stroke-width:1;" x1="295.3999" x2="295.3999" y1="140.1406" y2="142.1406"/><text fill="#000000" font-family="sans-serif" font-size="12" lengthAdjust="spacing" textLength="48.3457" x="12.1519" y="158.2793">Reptiles</text><line style="stroke:#000000;stroke-width:1;" x1="10.1519" x2="77.1519" y1="161.1094" y2="161.1094"/><line style="stroke:#000000;stroke-width:1;" x1="10.1519" x2="10.1519" y1="158.1094" y2="160.1094"/><line style="stroke:#000000;stroke-width:1;" x1="77.1519" x2="77.1519" y1="158.1094" y2="160.1094"/><text fill="#000000" font-family="sans-serif" font-size="12" lengthAdjust="spacing" textLength="26.6895" x="84.1519" y="158.2793">Cats</text><line style="stroke:#000000;stroke-width:1;" x1="82.1519" x2="173.1519" y1="161.1094" y2="161.1094"/><line style="stroke:#000000;stroke-width:1;" x1="82.1519" x2="82.1519" y1="158.1094" y2="160.1094"/><line style="stroke:#000000;stroke-width:1;" x1="173.1519" x2="173.1519" y1="158.1094" y2="160.1094"/><line style="stroke:#000000;stroke-width:1;" x1="8.1519" x2="80.1519" y1="110.2031" y2="110.2031"/><line style="stroke:#000000;stroke-width:1;" x1="80.1519" x2="234.3999" y1="110.2031" y2="110.2031"/><line style="stroke:#000000;stroke-width:1;" x1="234.3999" x2="298.3999" y1="110.2031" y2="110.2031"/><line style="stroke:#000000;stroke-width:1;" x1="8.1519" x2="80.1519" y1="164.1094" y2="164.1094"/><line style="stroke:#000000;stroke-width:1;" x1="80.1519" x2="234.3999" y1="164.1094" y2="164.1094"/><line style="stroke:#000000;stroke-width:1;" x1="234.3999" x2="298.3999" y1="164.1094" y2="164.1094"/><line style="stroke:#000000;stroke-width:1;" x1="8.1519" x2="8.1519" y1="110.2031" y2="128.1719"/><line style="stroke:#000000;stroke-width:1;" x1="298.3999" x2="298.3999" y1="146.1406" y2="164.1094"/><line style="stroke:#000000;stroke-width:1;" x1="298.3999" x2="298.3999" y1="128.1719" y2="146.1406"/><line style="stroke:#000000;stroke-width:1;" x1="298.3999" x2="298.3999" y1="110.2031" y2="128.1719"/><line style="stroke:#000000;stroke-width:1;" x1="8.1519" x2="8.1519" y1="146.1406" y2="164.1094"/><line style="stroke:#000000;stroke-width:1;" x1="8.1519" x2="8.1519" y1="128.1719" y2="146.1406"/><text fill="#000000" font-family="sans-serif" font-size="12" font-style="italic" lengthAdjust="spacing" textLength="367.7227" x="8.1519" y="177.248">Each hotspot links to showproducts.xhtml?categoryName=...</text><line style="stroke:#AAAAAA;stroke-width:1;stroke-dasharray:1,2;" x1="8.1519" x2="479.0054" y1="185.5781" y2="185.5781"/><text fill="#000000" font-family="sans-serif" font-size="12" lengthAdjust="spacing" textLength="138.3926" x="9.1519" y="202.2168">Source code on GitHub</text><text fill="#000000" font-family="sans-serif" font-size="12" lengthAdjust="spacing" textLength="112.2246" x="149.5444" y="202.2168">Antonio Goncalves</text><text fill="#000000" font-family="sans-serif" font-size="12" lengthAdjust="spacing" textLength="107.7715" x="263.769" y="202.2168">Swagger Contract</text><text fill="#000000" font-family="sans-serif" font-size="12" lengthAdjust="spacing" textLength="103.4648" x="373.5405" y="202.2168">Conversation [id]</text><line style="stroke:#000000;stroke-width:1;" x1="7.1519" x2="479.0054" y1="42.2969" y2="42.2969"/><line style="stroke:#000000;stroke-width:1;" x1="7.1519" x2="479.0054" y1="207.0469" y2="207.0469"/><line style="stroke:#000000;stroke-width:1;" x1="7.1519" x2="7.1519" y1="42.2969" y2="58.2656"/><line style="stroke:#000000;stroke-width:1;" x1="479.0054" x2="479.0054" y1="42.2969" y2="58.2656"/><line style="stroke:#000000;stroke-width:1;" x1="7.1519" x2="7.1519" y1="189.0781" y2="207.0469"/><line style="stroke:#000000;stroke-width:1;" x1="479.0054" x2="479.0054" y1="189.0781" y2="207.0469"/><line style="stroke:#000000;stroke-width:1;" x1="7.1519" x2="7.1519" y1="165.1094" y2="181.0781"/><line style="stroke:#000000;stroke-width:1;" x1="479.0054" x2="479.0054" y1="165.1094" y2="181.0781"/><line style="stroke:#000000;stroke-width:1;" x1="7.1519" x2="7.1519" y1="93.2344" y2="109.2031"/><line style="stroke:#000000;stroke-width:1;" x1="479.0054" x2="479.0054" y1="93.2344" y2="109.2031"/><line style="stroke:#000000;stroke-width:1;" x1="7.1519" x2="7.1519" y1="58.2656" y2="85.2344"/><line style="stroke:#000000;stroke-width:1;" x1="479.0054" x2="479.0054" y1="58.2656" y2="85.2344"/><line style="stroke:#000000;stroke-width:1;" x1="7.1519" x2="7.1519" y1="181.0781" y2="189.0781"/><line style="stroke:#000000;stroke-width:1;" x1="479.0054" x2="479.0054" y1="181.0781" y2="189.0781"/><line style="stroke:#000000;stroke-width:1;" x1="7.1519" x2="7.1519" y1="109.2031" y2="165.1094"/><line style="stroke:#000000;stroke-width:1;" x1="479.0054" x2="479.0054" y1="109.2031" y2="165.1094"/><line style="stroke:#000000;stroke-width:1;" x1="7.1519" x2="7.1519" y1="85.2344" y2="93.2344"/><line style="stroke:#000000;stroke-width:1;" x1="479.0054" x2="479.0054" y1="85.2344" y2="93.2344"/><!--SRC=[DL31IiH03BtFLyIoI8iuwBsjkAlYGMHn4V4aistQ2KwRCfEwYkw_EsqrXpnUo7kyv8JwoeqrmbjbFNUeQUoS4XA7y48U6sywX7EuvnawGxt-jD8vI9yt5vUmzdm821iZnd4xOgQ2SQA-pzIgDnzxuzFaWLkWFibKKQXyNxvURtUmHTa9UvmM0JJyrmyaiQ_9ro5Y4hbM4zvHi0lFJwapBPOG1cU2rIqraCwZ66x8PeSRRgCycPHFE0Wv3CdY77DEnd_EHvLJUMig2vOb32pWg7yF80p1yc7mN8-LXENWgye8jko_7kD72gsrMZNCWZxDrF4N]--></g></svg>