<svg xmlns="http://www.w3.org/2000/svg" xmlns:xlink="http://www.w3.org/1999/xlink" contentStyleType="text/css" data-diagram-type="SALT" height="224px" preserveAspectRatio="none" style="width:546px;height:224px;background:#FFFFFF;" version="1.1" viewBox="0 0 546 224" width="546px" zoomAndPan="magnify"><title>Wireframe - Products of a category - showproducts.xhtml (UC01)</title><defs/><g><g class="title" data-source-line="2"><text fill="#000000" font-family="sans-serif" font-size="14" font-weight="bold" lengthAdjust="spacing" textLength="513.6592" x="15" y="27.9951">Wireframe - Products of a category - showproducts.xhtml (UC01)</text></g><rect fill="#DDDDDD" height="14.9688" style="stroke:#000000;stroke-width:1;" width="470.8535" x="37.4028" y="43.2969"/><text fill="#000000" font-family="sans-serif" font-size="12" font-weight="bold" lengthAdjust="spacing" textLength="127.6465" x="37.4028" y="54.4355">Yaps Petstore EE 7</text><text fill="#000000" font-family="sans-serif" font-size="12" lengthAdjust="spacing" textLength="38.4551" x="175.0493" y="54.4355">Admin</text><text fill="#000000" font-family="sans-serif" font-size="12" lengthAdjust="spacing" textLength="65.4727" x="223.5044" y="54.4355">Languages</text><text fill="#000000" font-family="sans-serif" font-size="12" lengthAdjust="spacing" textLength="36.3984" x="298.9771" y="54.4355">Log in</text><text fill="#000000" font-family="sans-serif" font-size="12" lengthAdjust="spacing" textLength="83.7598" x="345.3755" y="54.4355">Shopping cart</text><text fill="#000000" font-family="sans-serif" font-size="12" lengthAdjust="spacing" textLength="82.7051" x="41.4028" y="71.4043">Search pets...</text><line style="stroke:#000000;stroke-width:1;" x1="39.4028" x2="234.4028" y1="74.2344" y2="74.2344"/><line style="stroke:#000000;stroke-width:1;" x1="39.4028" x2="39.4028" y1="71.2344" y2="73.2344"/><line style="stroke:#000000;stroke-width:1;" x1="234.4028" x2="234.4028" y1="71.2344" y2="73.2344"/><rect fill="#EEEEEE" height="17.9688" rx="5" ry="5" style="stroke:#000000;stroke-width:2.5;" width="52" x="240.9028" y="62.7656"/><text fill="#000000" font-family="sans-serif" font-size="12" lengthAdjust="spacing" textLength="41.4902" x="246.1577" y="75.9043">Search</text><line style="stroke:#AAAAAA;stroke-width:1;" x1="37.4028" x2="508.2563" y1="88.7344" y2="88.7344"/><line style="stroke:#AAAAAA;stroke-width:1;" x1="37.4028" x2="508.2563" y1="90.7344" y2="90.7344"/><text fill="#000000" font-family="sans-serif" font-size="12" font-weight="bold" lengthAdjust="spacing" textLength="188.6309" x="37.4028" y="105.373">Products for category : Fish</text><text fill="#000000" font-family="sans-serif" font-size="12" font-weight="bold" lengthAdjust="spacing" textLength="52.9395" x="38.4028" y="122.3418">Product</text><text fill="#000000" font-family="sans-serif" font-size="12" font-weight="bold" lengthAdjust="spacing" textLength="77.6133" x="109.2739" y="122.3418">Description</text><text fill="#000000" font-family="sans-serif" font-size="12" lengthAdjust="spacing" textLength="55.5645" x="38.4028" y="138.3105">Angelfish</text><text fill="#000000" font-family="sans-serif" font-size="12" lengthAdjust="spacing" textLength="171.3281" x="109.2739" y="138.3105">Saltwater fish from Australia</text><text fill="#000000" font-family="sans-serif" font-size="12" lengthAdjust="spacing" textLength="68.8711" x="38.4028" y="154.2793">Tiger Shark</text><text fill="#000000" font-family="sans-serif" font-size="12" lengthAdjust="spacing" textLength="171.3281" x="109.2739" y="154.2793">Saltwater fish from Australia</text><text fill="#000000" font-family="sans-serif" font-size="12" lengthAdjust="spacing" textLength="18.5449" x="38.4028" y="170.248">Koi</text><text fill="#000000" font-family="sans-serif" font-size="12" lengthAdjust="spacing" textLength="161.7832" x="109.2739" y="170.248">Freshwater fish from Japan</text><text fill="#000000" font-family="sans-serif" font-size="12" lengthAdjust="spacing" textLength="49.0078" x="38.4028" y="186.2168">Goldfish</text><text fill="#000000" font-family="sans-serif" font-size="12" lengthAdjust="spacing" textLength="162.5918" x="109.2739" y="186.2168">Freshwater fish from China</text><line style="stroke:#000000;stroke-width:1;" x1="37.4028" x2="108.2739" y1="110.2031" y2="110.2031"/><line style="stroke:#000000;stroke-width:1;" x1="108.2739" x2="281.6021" y1="126.1719" y2="126.1719"/><line style="stroke:#000000;stroke-width:1;" x1="108.2739" x2="281.6021" y1="110.2031" y2="110.2031"/><line style="stroke:#000000;stroke-width:1;" x1="37.4028" x2="108.2739" y1="190.0469" y2="190.0469"/><line style="stroke:#000000;stroke-width:1;" x1="108.2739" x2="281.6021" y1="190.0469" y2="190.0469"/><line style="stroke:#000000;stroke-width:1;" x1="37.4028" x2="108.2739" y1="174.0781" y2="174.0781"/><line style="stroke:#000000;stroke-width:1;" x1="37.4028" x2="108.2739" y1="158.1094" y2="158.1094"/><line style="stroke:#000000;stroke-width:1;" x1="108.2739" x2="281.6021" y1="174.0781" y2="174.0781"/><line style="stroke:#000000;stroke-width:1;" x1="37.4028" x2="108.2739" y1="142.1406" y2="142.1406"/><line style="stroke:#000000;stroke-width:1;" x1="108.2739" x2="281.6021" y1="158.1094" y2="158.1094"/><line style="stroke:#000000;stroke-width:1;" x1="37.4028" x2="108.2739" y1="126.1719" y2="126.1719"/><line style="stroke:#000000;stroke-width:1;" x1="108.2739" x2="281.6021" y1="142.1406" y2="142.1406"/><line style="stroke:#000000;stroke-width:1;" x1="37.4028" x2="37.4028" y1="110.2031" y2="126.1719"/><line style="stroke:#000000;stroke-width:1;" x1="281.6021" x2="281.6021" y1="142.1406" y2="158.1094"/><line style="stroke:#000000;stroke-width:1;" x1="108.2739" x2="108.2739" y1="110.2031" y2="126.1719"/><line style="stroke:#000000;stroke-width:1;" x1="281.6021" x2="281.6021" y1="110.2031" y2="126.1719"/><line style="stroke:#000000;stroke-width:1;" x1="37.4028" x2="37.4028" y1="158.1094" y2="174.0781"/><line style="stroke:#000000;stroke-width:1;" x1="108.2739" x2="108.2739" y1="158.1094" y2="174.0781"/><line style="stroke:#000000;stroke-width:1;" x1="37.4028" x2="37.4028" y1="126.1719" y2="142.1406"/><line style="stroke:#000000;stroke-width:1;" x1="281.6021" x2="281.6021" y1="158.1094" y2="174.0781"/><line style="stroke:#000000;stroke-width:1;" x1="108.2739" x2="108.2739" y1="126.1719" y2="142.1406"/><line style="stroke:#000000;stroke-width:1;" x1="281.6021" x2="281.6021" y1="126.1719" y2="142.1406"/><line style="stroke:#000000;stroke-width:1;" x1="37.4028" x2="37.4028" y1="174.0781" y2="190.0469"/><line style="stroke:#000000;stroke-width:1;" x1="108.2739" x2="108.2739" y1="174.0781" y2="190.0469"/><line style="stroke:#000000;stroke-width:1;" x1="37.4028" x2="37.4028" y1="142.1406" y2="158.1094"/><line style="stroke:#000000;stroke-width:1;" x1="281.6021" x2="281.6021" y1="174.0781" y2="190.0469"/><line style="stroke:#000000;stroke-width:1;" x1="108.2739" x2="108.2739" y1="142.1406" y2="158.1094"/><line style="stroke:#AAAAAA;stroke-width:1;stroke-dasharray:1,2;" x1="37.4028" x2="508.2563" y1="195.5469" y2="195.5469"/><text fill="#000000" font-family="sans-serif" font-size="12" lengthAdjust="spacing" textLength="138.3926" x="38.4028" y="212.1855">Source code on GitHub</text><text fill="#000000" font-family="sans-serif" font-size="12" lengthAdjust="spacing" textLength="112.2246" x="178.7954" y="212.1855">Antonio Goncalves</text><text fill="#000000" font-family="sans-serif" font-size="12" lengthAdjust="spacing" textLength="107.7715" x="293.02" y="212.1855">Swagger Contract</text><text fill="#000000" font-family="sans-serif" font-size="12" lengthAdjust="spacing" textLength="103.4648" x="402.7915" y="212.1855">Conversation [id]</text><line style="stroke:#000000;stroke-width:1;" x1="36.4028" x2="508.2563" y1="42.2969" y2="42.2969"/><line style="stroke:#000000;stroke-width:1;" x1="36.4028" x2="508.2563" y1="217.0156" y2="217.0156"/><line style="stroke:#000000;stroke-width:1;" x1="36.4028" x2="36.4028" y1="42.2969" y2="58.2656"/><line style="stroke:#000000;stroke-width:1;" x1="508.2563" x2="508.2563" y1="42.2969" y2="58.2656"/><line style="stroke:#000000;stroke-width:1;" x1="36.4028" x2="36.4028" y1="191.0469" y2="199.0469"/><line style="stroke:#000000;stroke-width:1;" x1="508.2563" x2="508.2563" y1="191.0469" y2="199.0469"/><line style="stroke:#000000;stroke-width:1;" x1="36.4028" x2="36.4028" y1="93.2344" y2="109.2031"/><line style="stroke:#000000;stroke-width:1;" x1="508.2563" x2="508.2563" y1="93.2344" y2="109.2031"/><line style="stroke:#000000;stroke-width:1;" x1="36.4028" x2="36.4028" y1="58.2656" y2="85.2344"/><line style="stroke:#000000;stroke-width:1;" x1="508.2563" x2="508.2563" y1="58.2656" y2="85.2344"/><line style="stroke:#000000;stroke-width:1;" x1="36.4028" x2="36.4028" y1="199.0469" y2="217.0156"/><line style="stroke:#000000;stroke-width:1;" x1="508.2563" x2="508.2563" y1="199.0469" y2="217.0156"/><line style="stroke:#000000;stroke-width:1;" x1="36.4028" x2="36.4028" y1="109.2031" y2="191.0469"/><line style="stroke:#000000;stroke-width:1;" x1="508.2563" x2="508.2563" y1="109.2031" y2="191.0469"/><line style="stroke:#000000;stroke-width:1;" x1="36.4028" x2="36.4028" y1="85.2344" y2="93.2344"/><line style="stroke:#000000;stroke-width:1;" x1="508.2563" x2="508.2563" y1="85.2344" y2="93.2344"/><!--SRC=[ZOz1ImCn48Nlyol6siCkOj6hMA5KAgW7eOf7cMQJpM0siqooLgdzxwPIB8W7Z_E-Z_UO8uuc38t55-DLEZlXeGkGEGUBpwpMANKMJ_51fHbCJYWE2Grbsuf-592yhFizdBpxt0MidkPdvpKa2Xas9p2EzBOYhKRtqYB7KGtJALokhdugdUYXyG8Nd3niZW7n8E7dxhYsoIZtcIKMEekj3Qx81IxBrhfKA7u7hho2io5bfS1Kt4Tk2rjwqjT_s7V2nLgeJVwtTaizxSPl93JxxJ-zkUT8i8Mn4ocagc7x1G00]--></g></svg>