<svg xmlns="http://www.w3.org/2000/svg" xmlns:xlink="http://www.w3.org/1999/xlink" contentStyleType="text/css" data-diagram-type="SALT" height="262px" preserveAspectRatio="none" style="width:549px;height:262px;background:#FFFFFF;" version="1.1" viewBox="0 0 549 262" width="549px" zoomAndPan="magnify"><title>Wireframe - Admin - item create.xhtml (UC15 Manage Catalogue)</title><defs/><g><g class="title" data-source-line="2"><text fill="#000000" font-family="sans-serif" font-size="14" font-weight="bold" lengthAdjust="spacing" textLength="516.2842" x="15" y="27.9951">Wireframe - Admin - item create.xhtml (UC15 Manage Catalogue)</text></g><rect fill="#DDDDDD" height="14.9688" style="stroke:#000000;stroke-width:1;" width="470.8535" x="38.7153" y="43.2969"/><text fill="#000000" font-family="sans-serif" font-size="12" font-weight="bold" lengthAdjust="spacing" textLength="127.6465" x="38.7153" y="54.4355">Yaps Petstore EE 7</text><text fill="#000000" font-family="sans-serif" font-size="12" lengthAdjust="spacing" textLength="38.4551" x="176.3618" y="54.4355">Admin</text><text fill="#000000" font-family="sans-serif" font-size="12" lengthAdjust="spacing" textLength="65.4727" x="224.8169" y="54.4355">Languages</text><text fill="#000000" font-family="sans-serif" font-size="12" lengthAdjust="spacing" textLength="36.3984" x="300.2896" y="54.4355">Log in</text><text fill="#000000" font-family="sans-serif" font-size="12" lengthAdjust="spacing" textLength="83.7598" x="346.688" y="54.4355">Shopping cart</text><text fill="#000000" font-family="sans-serif" font-size="12" lengthAdjust="spacing" textLength="82.7051" x="42.7153" y="71.4043">Search pets...</text><line style="stroke:#000000;stroke-width:1;" x1="40.7153" x2="235.7153" y1="74.2344" y2="74.2344"/><line style="stroke:#000000;stroke-width:1;" x1="40.7153" x2="40.7153" y1="71.2344" y2="73.2344"/><line style="stroke:#000000;stroke-width:1;" x1="235.7153" x2="235.7153" y1="71.2344" y2="73.2344"/><rect fill="#EEEEEE" height="17.9688" rx="5" ry="5" style="stroke:#000000;stroke-width:2.5;" width="52" x="242.2153" y="62.7656"/><text fill="#000000" font-family="sans-serif" font-size="12" lengthAdjust="spacing" textLength="41.4902" x="247.4702" y="75.9043">Search</text><line style="stroke:#AAAAAA;stroke-width:1;" x1="38.7153" x2="509.5688" y1="88.7344" y2="88.7344"/><line style="stroke:#AAAAAA;stroke-width:1;" x1="38.7153" x2="509.5688" y1="90.7344" y2="90.7344"/><text fill="#000000" font-family="sans-serif" font-size="12" font-weight="bold" lengthAdjust="spacing" textLength="124.0781" x="38.7153" y="105.373">Create a new Item</text><text fill="#000000" font-family="sans-serif" font-size="12" lengthAdjust="spacing" textLength="39.4453" x="39.7153" y="122.3418">Name:</text><text fill="#000000" font-family="sans-serif" font-size="12" lengthAdjust="spacing" textLength="3.8145" x="117.1021" y="122.3418">&#160;</text><line style="stroke:#000000;stroke-width:1;" x1="115.1021" x2="198.1021" y1="125.1719" y2="125.1719"/><line style="stroke:#000000;stroke-width:1;" x1="115.1021" x2="115.1021" y1="122.1719" y2="124.1719"/><line style="stroke:#000000;stroke-width:1;" x1="198.1021" x2="198.1021" y1="122.1719" y2="124.1719"/><text fill="#000000" font-family="sans-serif" font-size="12" lengthAdjust="spacing" textLength="72.3867" x="39.7153" y="140.3105">Description:</text><text fill="#000000" font-family="sans-serif" font-size="12" lengthAdjust="spacing" textLength="3.8145" x="117.1021" y="140.3105">&#160;</text><line style="stroke:#000000;stroke-width:1;" x1="115.1021" x2="198.1021" y1="143.1406" y2="143.1406"/><line style="stroke:#000000;stroke-width:1;" x1="115.1021" x2="115.1021" y1="140.1406" y2="142.1406"/><line style="stroke:#000000;stroke-width:1;" x1="198.1021" x2="198.1021" y1="140.1406" y2="142.1406"/><text fill="#000000" font-family="sans-serif" font-size="12" lengthAdjust="spacing" textLength="58.9629" x="39.7153" y="158.2793">Unit Cost:</text><text fill="#000000" font-family="sans-serif" font-size="12" lengthAdjust="spacing" textLength="3.8145" x="117.1021" y="158.2793">&#160;</text><line style="stroke:#000000;stroke-width:1;" x1="115.1021" x2="198.1021" y1="161.1094" y2="161.1094"/><line style="stroke:#000000;stroke-width:1;" x1="115.1021" x2="115.1021" y1="158.1094" y2="160.1094"/><line style="stroke:#000000;stroke-width:1;" x1="198.1021" x2="198.1021" y1="158.1094" y2="160.1094"/><text fill="#000000" font-family="sans-serif" font-size="12" lengthAdjust="spacing" textLength="72.3398" x="39.7153" y="176.248">Image Path:</text><text fill="#000000" font-family="sans-serif" font-size="12" lengthAdjust="spacing" textLength="3.8145" x="117.1021" y="176.248">&#160;</text><line style="stroke:#000000;stroke-width:1;" x1="115.1021" x2="198.1021" y1="179.0781" y2="179.0781"/><line style="stroke:#000000;stroke-width:1;" x1="115.1021" x2="115.1021" y1="176.0781" y2="178.0781"/><line style="stroke:#000000;stroke-width:1;" x1="198.1021" x2="198.1021" y1="176.0781" y2="178.0781"/><text fill="#000000" font-family="sans-serif" font-size="12" lengthAdjust="spacing" textLength="50.0801" x="39.7153" y="194.2168">Product:</text><rect fill="#EEEEEE" height="16.9688" style="stroke:#000000;stroke-width:1;" width="119" x="114.1021" y="183.0781"/><text fill="#000000" font-family="sans-serif" font-size="12" lengthAdjust="spacing" textLength="55.5645" x="116.1021" y="196.2168">Angelfish</text><line style="stroke:#000000;stroke-width:1;" x1="222.1021" x2="222.1021" y1="183.0781" y2="200.0469"/><polygon fill="#000000" points="225.1021,189.0781,231.1021,189.0781,228.1021,195.0469" style="stroke:#000000;stroke-width:1;"/><rect fill="#EEEEEE" height="17.9688" rx="5" ry="5" style="stroke:#000000;stroke-width:2.5;" width="36" x="42.2153" y="207.5469"/><text fill="#000000" font-family="sans-serif" font-size="12" lengthAdjust="spacing" textLength="29.4551" x="45.4878" y="220.6855">Save</text><rect fill="#EEEEEE" height="17.9688" rx="5" ry="5" style="stroke:#000000;stroke-width:2.5;" width="52" x="85.2153" y="207.5469"/><text fill="#000000" font-family="sans-serif" font-size="12" lengthAdjust="spacing" textLength="40.6523" x="90.8892" y="220.6855">Cancel</text><rect fill="#EEEEEE" height="17.9688" rx="5" ry="5" style="stroke:#000000;stroke-width:2.5;" width="52" x="144.2153" y="207.5469"/><text fill="#000000" font-family="sans-serif" font-size="12" lengthAdjust="spacing" textLength="39.4277" x="150.5015" y="220.6855">Delete</text><line style="stroke:#AAAAAA;stroke-width:1;stroke-dasharray:1,2;" x1="38.7153" x2="509.5688" y1="234.5156" y2="234.5156"/><text fill="#000000" font-family="sans-serif" font-size="12" lengthAdjust="spacing" textLength="138.3926" x="39.7153" y="251.1543">Source code on GitHub</text><text fill="#000000" font-family="sans-serif" font-size="12" lengthAdjust="spacing" textLength="112.2246" x="180.1079" y="251.1543">Antonio Goncalves</text><text fill="#000000" font-family="sans-serif" font-size="12" lengthAdjust="spacing" textLength="107.7715" x="294.3325" y="251.1543">Swagger Contract</text><text fill="#000000" font-family="sans-serif" font-size="12" lengthAdjust="spacing" textLength="103.4648" x="404.104" y="251.1543">Conversation [id]</text><line style="stroke:#000000;stroke-width:1;" x1="37.7153" x2="509.5688" y1="42.2969" y2="42.2969"/><line style="stroke:#000000;stroke-width:1;" x1="37.7153" x2="509.5688" y1="255.9844" y2="255.9844"/><line style="stroke:#000000;stroke-width:1;" x1="37.7153" x2="37.7153" y1="42.2969" y2="58.2656"/><line style="stroke:#000000;stroke-width:1;" x1="509.5688" x2="509.5688" y1="42.2969" y2="58.2656"/><line style="stroke:#000000;stroke-width:1;" x1="37.7153" x2="37.7153" y1="238.0156" y2="255.9844"/><line style="stroke:#000000;stroke-width:1;" x1="509.5688" x2="509.5688" y1="238.0156" y2="255.9844"/><line style="stroke:#000000;stroke-width:1;" x1="37.7153" x2="37.7153" y1="203.0469" y2="230.0156"/><line style="stroke:#000000;stroke-width:1;" x1="509.5688" x2="509.5688" y1="203.0469" y2="230.0156"/><line style="stroke:#000000;stroke-width:1;" x1="37.7153" x2="37.7153" y1="93.2344" y2="109.2031"/><line style="stroke:#000000;stroke-width:1;" x1="509.5688" x2="509.5688" y1="93.2344" y2="109.2031"/><line style="stroke:#000000;stroke-width:1;" x1="37.7153" x2="37.7153" y1="58.2656" y2="85.2344"/><line style="stroke:#000000;stroke-width:1;" x1="509.5688" x2="509.5688" y1="58.2656" y2="85.2344"/><line style="stroke:#000000;stroke-width:1;" x1="37.7153" x2="37.7153" y1="230.0156" y2="238.0156"/><line style="stroke:#000000;stroke-width:1;" x1="509.5688" x2="509.5688" y1="230.0156" y2="238.0156"/><line style="stroke:#000000;stroke-width:1;" x1="37.7153" x2="37.7153" y1="109.2031" y2="203.0469"/><line style="stroke:#000000;stroke-width:1;" x1="509.5688" x2="509.5688" y1="109.2031" y2="203.0469"/><line style="stroke:#000000;stroke-width:1;" x1="37.7153" x2="37.7153" y1="85.2344" y2="93.2344"/><line style="stroke:#000000;stroke-width:1;" x1="509.5688" x2="509.5688" y1="85.2344" y2="93.2344"/><!--SRC=[TOvFIyDW3CRl-HInxD0f5Znu4IUCxZ9G6SZmCDp8tgPjuFqZRzCfr7vtt_NWoUMIFCalJt8btjY-OZoODWR7XVJEWefQndU9N4ToZBUuh9pub4NPeObCoiLtgyvYlYtlxl65F3MC9IdPqFGyXuwimd03Cq-d8yKyUmuDYi_ci5Z0u_6fd4oGqFCNhfCj383uciuzu0zc-1TPajTfjEBEHFbK2VuVeaZ4rejY6JgzuB1svnytfEq5O1D3rPjfVR_q3TjQklOCxASB8mouUwCJVoIvAyaRjbEvOikQkYFCwX2KOpw7yHS0]--></g></svg>