<svg xmlns="http://www.w3.org/2000/svg" xmlns:xlink="http://www.w3.org/1999/xlink" contentStyleType="text/css" data-diagram-type="ACTIVITY" height="2267.6042px" preserveAspectRatio="none" style="width:2151px;height:2267px;background:#FFFFFF;" version="1.1" viewBox="0 0 2151 2267" width="2151.875px" zoomAndPan="magnify"><title>Activity Diagram - Browse, add to cart, check out and confirm order</title><defs/><g><g class="title" data-source-line="5"><text fill="#000000" font-family="Helvetica" font-size="17.1875" font-weight="bold" lengthAdjust="spacing" textLength="658.8318" x="741.5774" y="38.8705">Activity Diagram - Browse, add to cart, check out and confirm order</text></g><rect fill="#FFFFFF" height="2188.512" rx="2.2917" ry="2.2917" style="stroke:#181818;stroke-width:1.7188;" width="2122.5074" x="17.1875" y="66.9865"/><path d="M169.4177,66.9865 L169.4177,77.6392 L157.9594,89.0975 L17.1875,89.0975" fill="none" style="stroke:#181818;stroke-width:1.7188;"/><text fill="#000000" font-family="Helvetica" font-size="16.0417" font-weight="bold" lengthAdjust="spacing" textLength="28.0024" x="20.625" y="83.0226">act</text><text fill="#000000" font-family="Helvetica" font-size="16.0417" lengthAdjust="spacing" textLength="107.6703" x="53.7266" y="83.0226">PurchasePets</text><rect fill="none" height="16.0059" style="stroke:none;stroke-width:1.1458;" width="2084.6949" x="28.6458" y="99.7882"/><ellipse cx="313.8129" cy="132.9816" fill="#222222" rx="11.4583" ry="11.4583" style="stroke:#222222;stroke-width:1.1458;"/><rect fill="#F7FAFD" height="38.9225" rx="2.2917" ry="2.2917" style="stroke:#2F5D8A;stroke-width:0.5729;" width="210.7975" x="208.4141" y="217.7732"/><text fill="#000000" font-family="Helvetica" font-size="13.75" lengthAdjust="spacing" textLength="187.8809" x="219.8724" y="241.9946">Select category from menu</text><rect fill="#F7FAFD" height="38.9225" rx="2.2917" ry="2.2917" style="stroke:#2F5D8A;stroke-width:0.5729;" width="122.8929" x="252.3664" y="357.4575"/><text fill="#000000" font-family="Helvetica" font-size="13.75" lengthAdjust="spacing" textLength="99.9762" x="263.8248" y="381.6789">Select product</text><rect fill="#F7FAFD" height="38.9225" rx="2.2917" ry="2.2917" style="stroke:#2F5D8A;stroke-width:0.5729;" width="266.0057" x="180.81" y="497.1417"/><text fill="#000000" font-family="Helvetica" font-size="13.75" lengthAdjust="spacing" textLength="243.089" x="192.2684" y="521.3631">Select item and press "Add to cart"</text><polygon fill="#FFFFFF" points="313.8129,167.3566,327.5629,181.1066,313.8129,194.8566,300.0629,181.1066,313.8129,167.3566" style="stroke:#2F5D8A;stroke-width:0.5729;"/><polygon fill="#FFFFFF" points="246.5802,1002.7362,381.0455,1002.7362,394.7955,1016.4862,381.0455,1030.2362,246.5802,1030.2362,232.8302,1016.4862,246.5802,1002.7362" style="stroke:#2F5D8A;stroke-width:0.5729;"/><text fill="#000000" font-family="Helvetica" font-size="12.6042" lengthAdjust="spacing" textLength="25.5345" x="318.3962" y="1041.9357">[no]</text><text fill="#000000" font-family="Helvetica" font-size="13.75" lengthAdjust="spacing" textLength="134.4653" x="246.5802" y="1021.2463">continue shopping?</text><text fill="#000000" font-family="Helvetica" font-size="12.6042" lengthAdjust="spacing" textLength="31.615" x="394.7955" y="1013.5136">[yes]</text><rect fill="#F7FAFD" height="38.9225" rx="2.2917" ry="2.2917" style="stroke:#2F5D8A;stroke-width:0.5729;" width="145.8543" x="240.8857" y="1066.5711"/><text fill="#000000" font-family="Helvetica" font-size="13.75" lengthAdjust="spacing" textLength="122.9376" x="252.3441" y="1090.7925">Press "Check out"</text><rect fill="#F7FAFD" height="38.9225" rx="2.2917" ry="2.2917" style="stroke:#2F5D8A;stroke-width:0.5729;" width="287.7116" x="169.9571" y="1190.2495"/><text fill="#000000" font-family="Helvetica" font-size="13.75" lengthAdjust="spacing" textLength="264.7949" x="181.4154" y="1214.4709">Enter credit card number, type, expiry</text><rect fill="#F7FAFD" height="38.9225" rx="2.2917" ry="2.2917" style="stroke:#2F5D8A;stroke-width:0.5729;" width="131.1039" x="248.2609" y="1252.0887"/><text fill="#000000" font-family="Helvetica" font-size="13.75" lengthAdjust="spacing" textLength="108.1873" x="259.7192" y="1276.3101">Press "Confirm"</text><rect fill="#F7FAFD" height="38.9225" rx="2.2917" ry="2.2917" style="stroke:#2F5D8A;stroke-width:0.5729;" width="152.9307" x="42.3544" y="1881.7957"/><text fill="#000000" font-family="Helvetica" font-size="13.75" lengthAdjust="spacing" textLength="130.014" x="53.8128" y="1906.0171">See error message</text><ellipse cx="118.8198" cy="1973.4266" fill="none" rx="12.6042" ry="12.6042" style="stroke:#222222;stroke-width:1.1458;"/><ellipse cx="118.8198" cy="1973.4266" fill="#222222" rx="6.875" ry="6.875" style="stroke:#222222;stroke-width:1.1458;"/><rect fill="#F7FAFD" height="54.9284" rx="2.2917" ry="2.2917" style="stroke:#2F5D8A;stroke-width:0.5729;" width="188.6552" x="219.4853" y="2132.6258"/><text fill="#000000" font-family="Helvetica" font-size="13.75" lengthAdjust="spacing" textLength="165.7385" x="230.9436" y="2156.8472">View order confirmation</text><text fill="#000000" font-family="Helvetica" font-size="13.75" lengthAdjust="spacing" textLength="161.0455" x="230.9436" y="2172.853">(orderconfirmed.xhtml)</text><ellipse cx="313.8129" cy="2223.075" fill="none" rx="12.6042" ry="12.6042" style="stroke:#222222;stroke-width:1.1458;"/><ellipse cx="313.8129" cy="2223.075" fill="#222222" rx="6.875" ry="6.875" style="stroke:#222222;stroke-width:1.1458;"/><line style="stroke:#000000;stroke-width:1.7188;" x1="28.6458" x2="28.6458" y1="99.7882" y2="2235.6792"/><rect fill="#F7FAFD" height="54.9284" rx="2.2917" ry="2.2917" style="stroke:#2F5D8A;stroke-width:0.5729;" width="220.9959" x="469.4459" y="279.6124"/><text fill="#000000" font-family="Helvetica" font-size="13.75" lengthAdjust="spacing" textLength="116.9556" x="480.9042" y="303.8338">doFindProducts()</text><text fill="#000000" font-family="Helvetica" font-size="13.75" lengthAdjust="spacing" textLength="198.0792" x="480.9042" y="319.8397">findProducts(categoryName)</text><rect fill="#F7FAFD" height="54.9284" rx="2.2917" ry="2.2917" style="stroke:#2F5D8A;stroke-width:0.5729;" width="221.6337" x="469.127" y="419.2967"/><text fill="#000000" font-family="Helvetica" font-size="13.75" lengthAdjust="spacing" textLength="95.5048" x="480.5853" y="443.5181">doFindItems()</text><text fill="#000000" font-family="Helvetica" font-size="13.75" lengthAdjust="spacing" textLength="198.717" x="480.5853" y="459.5239">findProduct(id), findItems(id)</text><line style="stroke:#000000;stroke-width:1.7188;" x1="462.252" x2="462.252" y1="99.7882" y2="2235.6792"/><rect fill="#F7FAFD" height="38.9225" rx="2.2917" ry="2.2917" style="stroke:#2F5D8A;stroke-width:0.5729;" width="241.359" x="900.5489" y="558.9809"/><text fill="#000000" font-family="Helvetica" font-size="13.75" lengthAdjust="spacing" textLength="218.4424" x="912.0072" y="583.2023">item = catalog.findItem(itemId)</text><rect fill="#F7FAFD" height="38.9225" rx="2.2917" ry="2.2917" style="stroke:#2F5D8A;stroke-width:0.5729;" width="213.5032" x="914.4768" y="676.2811"/><text fill="#000000" font-family="Helvetica" font-size="13.75" lengthAdjust="spacing" textLength="190.5865" x="925.9352" y="700.5025">cartItems = new ArrayList()</text><rect fill="#F7FAFD" height="38.9225" rx="2.2917" ry="2.2917" style="stroke:#2F5D8A;stroke-width:0.5729;" width="165.3312" x="938.5628" y="755.3078"/><text fill="#000000" font-family="Helvetica" font-size="13.75" lengthAdjust="spacing" textLength="142.4146" x="950.0212" y="779.5292">conversation.begin()</text><polygon fill="#FFFFFF" points="927.7345,620.8201,1114.7224,620.8201,1128.4724,634.5701,1114.7224,648.3201,927.7345,648.3201,913.9845,634.5701,927.7345,620.8201" style="stroke:#2F5D8A;stroke-width:0.5729;"/><text fill="#000000" font-family="Helvetica" font-size="12.6042" lengthAdjust="spacing" textLength="31.615" x="1025.8118" y="660.0196">[yes]</text><text fill="#000000" font-family="Helvetica" font-size="13.75" lengthAdjust="spacing" textLength="186.9879" x="927.7345" y="639.3302">conversation.isTransient()?</text><text fill="#000000" font-family="Helvetica" font-size="12.6042" lengthAdjust="spacing" textLength="25.5345" x="1128.4724" y="631.5975">[no]</text><polygon fill="#FFFFFF" points="1021.2284,817.147,1034.9784,830.897,1021.2284,844.647,1007.4784,830.897,1021.2284,817.147" style="stroke:#2F5D8A;stroke-width:0.5729;"/><polygon fill="#FFFFFF" points="949.8835,867.5637,1092.5733,867.5637,1106.3233,881.3137,1092.5733,895.0637,949.8835,895.0637,936.1335,881.3137,949.8835,867.5637" style="stroke:#2F5D8A;stroke-width:0.5729;"/><text fill="#000000" font-family="Helvetica" font-size="13.75" lengthAdjust="spacing" textLength="142.6898" x="949.8835" y="886.0738">item already in cart?</text><text fill="#000000" font-family="Helvetica" font-size="12.6042" lengthAdjust="spacing" textLength="31.615" x="904.5185" y="878.3411">[yes]</text><text fill="#000000" font-family="Helvetica" font-size="12.6042" lengthAdjust="spacing" textLength="25.5345" x="1106.3233" y="878.3411">[no]</text><rect fill="#F7FAFD" height="38.9225" rx="2.2917" ry="2.2917" style="stroke:#2F5D8A;stroke-width:0.5729;" width="186.8357" x="783.0406" y="906.522"/><text fill="#000000" font-family="Helvetica" font-size="13.75" lengthAdjust="spacing" textLength="163.9191" x="794.4989" y="930.7434">quantity = quantity + 1</text><rect fill="#F7FAFD" height="38.9225" rx="2.2917" ry="2.2917" style="stroke:#2F5D8A;stroke-width:0.5729;" width="346.4109" x="992.793" y="906.522"/><text fill="#000000" font-family="Helvetica" font-size="13.75" lengthAdjust="spacing" textLength="323.4943" x="1004.2513" y="930.7434">cartItems.add(new ShoppingCartItem(item, 1))</text><polygon fill="#FFFFFF" points="1021.2284,952.3195,1034.9784,966.0695,1021.2284,979.8195,1007.4784,966.0695,1021.2284,952.3195" style="stroke:#2F5D8A;stroke-width:0.5729;"/><rect fill="#F7FAFD" height="38.9225" rx="2.2917" ry="2.2917" style="stroke:#2F5D8A;stroke-width:0.5729;" width="254.7734" x="893.8418" y="1128.4103"/><text fill="#000000" font-family="Helvetica" font-size="13.75" lengthAdjust="spacing" textLength="231.8567" x="905.3001" y="1152.6317">checkout() -&gt; confirmorder.xhtml</text><rect fill="#F7FAFD" height="38.9225" rx="2.2917" ry="2.2917" style="stroke:#2F5D8A;stroke-width:0.5729;" width="125.3569" x="958.55" y="1313.9279"/><text fill="#000000" font-family="Helvetica" font-size="13.75" lengthAdjust="spacing" textLength="102.4402" x="970.0083" y="1338.1493">confirmOrder()</text><rect fill="#F7FAFD" height="54.9284" rx="2.2917" ry="2.2917" style="stroke:#2F5D8A;stroke-width:0.5729;" width="248.0326" x="702.219" y="1786.7632"/><text fill="#000000" font-family="Helvetica" font-size="13.75" lengthAdjust="spacing" textLength="181.8048" x="713.6774" y="1810.9845">ExceptionInterceptor adds</text><text fill="#000000" font-family="Helvetica" font-size="13.75" lengthAdjust="spacing" textLength="225.116" x="713.6774" y="1826.9904">FacesMessage SEVERITY_ERROR</text><rect fill="#F7FAFD" height="38.9225" rx="2.2917" ry="2.2917" style="stroke:#2F5D8A;stroke-width:0.5729;" width="137.4284" x="952.5142" y="2008.9474"/><text fill="#000000" font-family="Helvetica" font-size="13.75" lengthAdjust="spacing" textLength="114.5117" x="963.9726" y="2033.1688">cartItems.clear()</text><rect fill="#F7FAFD" height="38.9225" rx="2.2917" ry="2.2917" style="stroke:#2F5D8A;stroke-width:0.5729;" width="152.783" x="944.8369" y="2070.7866"/><text fill="#000000" font-family="Helvetica" font-size="13.75" lengthAdjust="spacing" textLength="129.8663" x="956.2953" y="2095.008">conversation.end()</text><line style="stroke:#000000;stroke-width:1.7188;" x1="695.344" x2="695.344" y1="99.7882" y2="2235.6792"/><rect fill="#F7FAFD" height="54.9284" rx="2.2917" ry="2.2917" style="stroke:#2F5D8A;stroke-width:0.5729;" width="267.6774" x="1562.1345" y="1375.7671"/><text fill="#000000" font-family="Helvetica" font-size="13.75" lengthAdjust="spacing" textLength="244.7607" x="1573.5928" y="1399.9885">LoggingInterceptor @AroundInvoke</text><text fill="#000000" font-family="Helvetica" font-size="13.75" lengthAdjust="spacing" textLength="156.3055" x="1573.5928" y="1415.9943">(entering createOrder)</text><rect fill="#F7FAFD" height="54.9284" rx="2.2917" ry="2.2917" style="stroke:#2F5D8A;stroke-width:0.5729;" width="245.0181" x="1573.4642" y="1453.6121"/><text fill="#000000" font-family="Helvetica" font-size="13.75" lengthAdjust="spacing" textLength="153.8885" x="1584.9225" y="1477.8335">JTA transaction begins</text><text fill="#000000" font-family="Helvetica" font-size="13.75" lengthAdjust="spacing" textLength="222.1014" x="1584.9225" y="1493.8394">(container-managed REQUIRED)</text><polygon fill="#FFFFFF" points="1635.3369,1531.4572,1756.6095,1531.4572,1770.3595,1545.2072,1756.6095,1558.9572,1635.3369,1558.9572,1621.5869,1545.2072,1635.3369,1531.4572" style="stroke:#2F5D8A;stroke-width:0.5729;"/><text fill="#000000" font-family="Helvetica" font-size="13.75" lengthAdjust="spacing" textLength="121.2726" x="1635.3369" y="1549.9673">cartItems empty?</text><text fill="#000000" font-family="Helvetica" font-size="12.6042" lengthAdjust="spacing" textLength="31.615" x="1589.9719" y="1542.2346">[yes]</text><text fill="#000000" font-family="Helvetica" font-size="12.6042" lengthAdjust="spacing" textLength="25.5345" x="1770.3595" y="1542.2346">[no]</text><rect fill="#F7FAFD" height="54.9284" rx="2.2917" ry="2.2917" style="stroke:#2F5D8A;stroke-width:0.5729;" width="203.5801" x="1399.1901" y="1581.8738"/><text fill="#000000" font-family="Helvetica" font-size="13.75" lengthAdjust="spacing" textLength="180.6635" x="1410.6484" y="1606.0952">throw ValidationException</text><text fill="#000000" font-family="Helvetica" font-size="13.75" lengthAdjust="spacing" textLength="172.4591" x="1410.6484" y="1622.1011">"Shopping cart is empty"</text><rect fill="#F7FAFD" height="70.9342" rx="2.2917" ry="2.2917" style="stroke:#2F5D8A;stroke-width:0.5729;" width="300.6358" x="1350.6622" y="1675.7247"/><text fill="#000000" font-family="Helvetica" font-size="13.75" lengthAdjust="spacing" textLength="80.6134" x="1362.1206" y="1699.9461">JTA rollback</text><text fill="#000000" font-family="Helvetica" font-size="13.75" lengthAdjust="spacing" textLength="277.7191" x="1362.1206" y="1715.952">(RuntimeException = system exception,</text><text fill="#000000" font-family="Helvetica" font-size="13.75" lengthAdjust="spacing" textLength="176.6956" x="1362.1206" y="1731.9579">wrapped in EJBException)</text><rect fill="#F7FAFD" height="38.9225" rx="2.2917" ry="2.2917" style="stroke:#2F5D8A;stroke-width:0.5729;" width="256.8748" x="1762.5289" y="1581.8738"/><text fill="#000000" font-family="Helvetica" font-size="13.75" lengthAdjust="spacing" textLength="233.9581" x="1773.9872" y="1606.0952">resolve Country; merge Customer</text><rect fill="#F7FAFD" height="38.9225" rx="2.2917" ry="2.2917" style="stroke:#2F5D8A;stroke-width:0.5729;" width="433.5032" x="1674.2147" y="1659.7189"/><text fill="#000000" font-family="Helvetica" font-size="13.75" lengthAdjust="spacing" textLength="410.5865" x="1685.673" y="1683.9403">new PurchaseOrder(customer, creditCard, deliveryAddress)</text><rect fill="#F7FAFD" height="54.9284" rx="2.2917" ry="2.2917" style="stroke:#2F5D8A;stroke-width:0.5729;" width="302.4888" x="1739.7219" y="1738.7456"/><text fill="#000000" font-family="Helvetica" font-size="13.75" lengthAdjust="spacing" textLength="119.1376" x="1751.1802" y="1762.967">for each cartItem</text><text fill="#000000" font-family="Helvetica" font-size="13.75" lengthAdjust="spacing" textLength="279.5721" x="1751.1802" y="1778.9728">create OrderLine(quantity, merge(item))</text><rect fill="#F7FAFD" height="54.9284" rx="2.2917" ry="2.2917" style="stroke:#2F5D8A;stroke-width:0.5729;" width="227.7903" x="1777.0711" y="1833.7781"/><text fill="#000000" font-family="Helvetica" font-size="13.75" lengthAdjust="spacing" textLength="198.5693" x="1788.5295" y="1857.9995">entityManager.persist(order)</text><text fill="#000000" font-family="Helvetica" font-size="13.75" lengthAdjust="spacing" textLength="204.8737" x="1788.5295" y="1874.0054">@PrePersist orderDate = now</text><rect fill="#F7FAFD" height="38.9225" rx="2.2917" ry="2.2917" style="stroke:#2F5D8A;stroke-width:0.5729;" width="101.1198" x="1840.4064" y="1928.8107"/><text fill="#000000" font-family="Helvetica" font-size="13.75" lengthAdjust="spacing" textLength="78.2031" x="1851.8647" y="1953.0321">JTA commit</text><line style="stroke:#000000;stroke-width:1.7188;" x1="1343.7872" x2="1343.7872" y1="99.7882" y2="2235.6792"/><line style="stroke:#000000;stroke-width:1.7188;" x1="2112.3012" x2="2112.3012" y1="99.7882" y2="2235.6792"/><line style="stroke:#333333;stroke-width:1.1458;" x1="313.8129" x2="313.8129" y1="194.8566" y2="217.7732"/><polygon fill="#333333" points="309.2295,206.3149,313.8129,217.7732,318.3962,206.3149,313.8129,210.8982" style="stroke:#333333;stroke-width:1.1458;"/><line style="stroke:#333333;stroke-width:1.1458;" x1="232.8302" x2="50.4167" y1="1016.4862" y2="1016.4862"/><polygon fill="#333333" points="45.8333,586.9956,50.4167,575.5373,55,586.9956,50.4167,582.4123" style="stroke:#333333;stroke-width:1.1458;"/><line style="stroke:#333333;stroke-width:1.1458;" x1="50.4167" x2="50.4167" y1="181.1066" y2="1016.4862"/><line style="stroke:#333333;stroke-width:1.1458;" x1="50.4167" x2="300.0629" y1="181.1066" y2="181.1066"/><polygon fill="#333333" points="288.6045,176.5232,300.0629,181.1066,288.6045,185.6899,293.1879,181.1066" style="stroke:#333333;stroke-width:1.1458;"/><line style="stroke:#333333;stroke-width:1.1458;" x1="313.8129" x2="313.8129" y1="144.4399" y2="167.3566"/><polygon fill="#333333" points="309.2295,155.8982,313.8129,167.3566,318.3962,155.8982,313.8129,160.4816" style="stroke:#333333;stroke-width:1.1458;"/><line style="stroke:#333333;stroke-width:1.1458;" x1="313.8129" x2="313.8129" y1="1030.2362" y2="1066.5711"/><polygon fill="#333333" points="309.2295,1055.1128,313.8129,1066.5711,318.3962,1055.1128,313.8129,1059.6961" style="stroke:#333333;stroke-width:1.1458;"/><line style="stroke:#333333;stroke-width:1.1458;" x1="313.8129" x2="313.8129" y1="1229.172" y2="1252.0887"/><polygon fill="#333333" points="309.2295,1240.6303,313.8129,1252.0887,318.3962,1240.6303,313.8129,1245.2137" style="stroke:#333333;stroke-width:1.1458;"/><line style="stroke:#333333;stroke-width:1.1458;" x1="118.8198" x2="118.8198" y1="1920.7182" y2="1960.8224"/><polygon fill="#333333" points="114.2365,1949.3641,118.8198,1960.8224,123.4031,1949.3641,118.8198,1953.9474" style="stroke:#333333;stroke-width:1.1458;"/><line style="stroke:#333333;stroke-width:1.1458;" x1="313.8129" x2="313.8129" y1="2187.5542" y2="2210.4708"/><polygon fill="#333333" points="309.2295,2199.0125,313.8129,2210.4708,318.3962,2199.0125,313.8129,2203.5958" style="stroke:#333333;stroke-width:1.1458;"/><line style="stroke:#333333;stroke-width:1.1458;" x1="1021.2284" x2="1021.2284" y1="715.2037" y2="755.3078"/><polygon fill="#333333" points="1016.6451,743.8495,1021.2284,755.3078,1025.8118,743.8495,1021.2284,748.4328" style="stroke:#333333;stroke-width:1.1458;"/><line style="stroke:#333333;stroke-width:1.1458;" x1="1021.2284" x2="1021.2284" y1="648.3201" y2="676.2811"/><polygon fill="#333333" points="1016.6451,664.8228,1021.2284,676.2811,1025.8118,664.8228,1021.2284,669.4061" style="stroke:#333333;stroke-width:1.1458;"/><line style="stroke:#333333;stroke-width:1.1458;" x1="1128.4724" x2="1142.2224" y1="634.5701" y2="634.5701"/><polygon fill="#333333" points="1137.6391,723.7974,1142.2224,735.2557,1146.8057,723.7974,1142.2224,728.3807" style="stroke:#333333;stroke-width:1.1458;"/><line style="stroke:#333333;stroke-width:1.1458;" x1="1142.2224" x2="1142.2224" y1="634.5701" y2="830.897"/><line style="stroke:#333333;stroke-width:1.1458;" x1="1142.2224" x2="1034.9784" y1="830.897" y2="830.897"/><polygon fill="#333333" points="1046.4368,826.3137,1034.9784,830.897,1046.4368,835.4803,1041.8534,830.897" style="stroke:#333333;stroke-width:1.1458;"/><line style="stroke:#333333;stroke-width:1.1458;" x1="1021.2284" x2="1021.2284" y1="794.2303" y2="817.147"/><polygon fill="#333333" points="1016.6451,805.6887,1021.2284,817.147,1025.8118,805.6887,1021.2284,810.272" style="stroke:#333333;stroke-width:1.1458;"/><line style="stroke:#333333;stroke-width:1.1458;" x1="1021.2284" x2="1021.2284" y1="597.9034" y2="620.8201"/><polygon fill="#333333" points="1016.6451,609.3618,1021.2284,620.8201,1025.8118,609.3618,1021.2284,613.9451" style="stroke:#333333;stroke-width:1.1458;"/><line style="stroke:#333333;stroke-width:1.1458;" x1="936.1335" x2="876.4584" y1="881.3137" y2="881.3137"/><line style="stroke:#333333;stroke-width:1.1458;" x1="876.4584" x2="876.4584" y1="881.3137" y2="906.522"/><polygon fill="#333333" points="871.8751,895.0637,876.4584,906.522,881.0418,895.0637,876.4584,899.647" style="stroke:#333333;stroke-width:1.1458;"/><line style="stroke:#333333;stroke-width:1.1458;" x1="1106.3233" x2="1165.9984" y1="881.3137" y2="881.3137"/><line style="stroke:#333333;stroke-width:1.1458;" x1="1165.9984" x2="1165.9984" y1="881.3137" y2="906.522"/><polygon fill="#333333" points="1161.4151,895.0637,1165.9984,906.522,1170.5818,895.0637,1165.9984,899.647" style="stroke:#333333;stroke-width:1.1458;"/><line style="stroke:#333333;stroke-width:1.1458;" x1="876.4584" x2="876.4584" y1="945.4445" y2="966.0695"/><line style="stroke:#333333;stroke-width:1.1458;" x1="876.4584" x2="1007.4784" y1="966.0695" y2="966.0695"/><polygon fill="#333333" points="996.0201,961.4862,1007.4784,966.0695,996.0201,970.6529,1000.6034,966.0695" style="stroke:#333333;stroke-width:1.1458;"/><line style="stroke:#333333;stroke-width:1.1458;" x1="1165.9984" x2="1165.9984" y1="945.4445" y2="966.0695"/><line style="stroke:#333333;stroke-width:1.1458;" x1="1165.9984" x2="1034.9784" y1="966.0695" y2="966.0695"/><polygon fill="#333333" points="1046.4368,961.4862,1034.9784,966.0695,1046.4368,970.6529,1041.8534,966.0695" style="stroke:#333333;stroke-width:1.1458;"/><line style="stroke:#333333;stroke-width:1.1458;" x1="1021.2284" x2="1021.2284" y1="844.647" y2="867.5637"/><polygon fill="#333333" points="1016.6451,856.1053,1021.2284,867.5637,1025.8118,856.1053,1021.2284,860.6887" style="stroke:#333333;stroke-width:1.1458;"/><line style="stroke:#333333;stroke-width:1.1458;" x1="1021.2284" x2="1021.2284" y1="2047.8699" y2="2070.7866"/><polygon fill="#333333" points="1016.6451,2059.3283,1021.2284,2070.7866,1025.8118,2059.3283,1021.2284,2063.9116" style="stroke:#333333;stroke-width:1.1458;"/><line style="stroke:#333333;stroke-width:1.1458;" x1="1695.9732" x2="1695.9732" y1="1430.6954" y2="1453.6121"/><polygon fill="#333333" points="1691.3899,1442.1538,1695.9732,1453.6121,1700.5565,1442.1538,1695.9732,1446.7371" style="stroke:#333333;stroke-width:1.1458;"/><line style="stroke:#333333;stroke-width:1.1458;" x1="1500.9801" x2="1500.9801" y1="1636.8022" y2="1675.7247"/><polygon fill="#333333" points="1496.3968,1664.2664,1500.9801,1675.7247,1505.5635,1664.2664,1500.9801,1668.8497" style="stroke:#333333;stroke-width:1.1458;"/><line style="stroke:#333333;stroke-width:1.1458;" x1="1890.9663" x2="1890.9663" y1="1620.7964" y2="1659.7189"/><polygon fill="#333333" points="1886.383,1648.2605,1890.9663,1659.7189,1895.5496,1648.2605,1890.9663,1652.8439" style="stroke:#333333;stroke-width:1.1458;"/><line style="stroke:#333333;stroke-width:1.1458;" x1="1890.9663" x2="1890.9663" y1="1698.6414" y2="1738.7456"/><polygon fill="#333333" points="1886.383,1727.2872,1890.9663,1738.7456,1895.5496,1727.2872,1890.9663,1731.8706" style="stroke:#333333;stroke-width:1.1458;"/><line style="stroke:#333333;stroke-width:1.1458;" x1="1890.9663" x2="1890.9663" y1="1793.674" y2="1833.7781"/><polygon fill="#333333" points="1886.383,1822.3198,1890.9663,1833.7781,1895.5496,1822.3198,1890.9663,1826.9031" style="stroke:#333333;stroke-width:1.1458;"/><line style="stroke:#333333;stroke-width:1.1458;" x1="1890.9663" x2="1890.9663" y1="1888.7065" y2="1928.8107"/><polygon fill="#333333" points="1886.383,1917.3523,1890.9663,1928.8107,1895.5496,1917.3523,1890.9663,1921.9357" style="stroke:#333333;stroke-width:1.1458;"/><line style="stroke:#333333;stroke-width:1.1458;" x1="1621.5869" x2="1500.9801" y1="1545.2072" y2="1545.2072"/><line style="stroke:#333333;stroke-width:1.1458;" x1="1500.9801" x2="1500.9801" y1="1545.2072" y2="1581.8738"/><polygon fill="#333333" points="1496.3968,1570.4155,1500.9801,1581.8738,1505.5635,1570.4155,1500.9801,1574.9988" style="stroke:#333333;stroke-width:1.1458;"/><line style="stroke:#333333;stroke-width:1.1458;" x1="1770.3595" x2="1890.9663" y1="1545.2072" y2="1545.2072"/><line style="stroke:#333333;stroke-width:1.1458;" x1="1890.9663" x2="1890.9663" y1="1545.2072" y2="1581.8738"/><polygon fill="#333333" points="1886.383,1570.4155,1890.9663,1581.8738,1895.5496,1570.4155,1890.9663,1574.9988" style="stroke:#333333;stroke-width:1.1458;"/><line style="stroke:#333333;stroke-width:1.1458;" x1="1890.9663" x2="1890.9663" y1="1967.7332" y2="1991.7599"/><line style="stroke:#333333;stroke-width:1.1458;" x1="1890.9663" x2="1021.2284" y1="1991.7599" y2="1991.7599"/><line style="stroke:#333333;stroke-width:1.1458;" x1="1021.2284" x2="1021.2284" y1="1991.7599" y2="2008.9474"/><polygon fill="#333333" points="1016.6451,1997.4891,1021.2284,2008.9474,1025.8118,1997.4891,1021.2284,2002.0724" style="stroke:#333333;stroke-width:1.1458;"/><line style="stroke:#333333;stroke-width:1.1458;" x1="1695.9732" x2="1695.9732" y1="1508.5405" y2="1531.4572"/><polygon fill="#333333" points="1691.3899,1519.9988,1695.9732,1531.4572,1700.5565,1519.9988,1695.9732,1524.5822" style="stroke:#333333;stroke-width:1.1458;"/><line style="stroke:#333333;stroke-width:1.1458;" x1="313.8129" x2="313.8129" y1="256.6958" y2="262.4249"/><line style="stroke:#333333;stroke-width:1.1458;" x1="313.8129" x2="579.9438" y1="262.4249" y2="262.4249"/><line style="stroke:#333333;stroke-width:1.1458;" x1="579.9438" x2="579.9438" y1="262.4249" y2="279.6124"/><polygon fill="#333333" points="575.3605,268.1541,579.9438,279.6124,584.5272,268.1541,579.9438,272.7374" style="stroke:#333333;stroke-width:1.1458;"/><line style="stroke:#333333;stroke-width:1.1458;" x1="579.9438" x2="579.9438" y1="334.5408" y2="340.27"/><line style="stroke:#333333;stroke-width:1.1458;" x1="579.9438" x2="313.8129" y1="340.27" y2="340.27"/><line style="stroke:#333333;stroke-width:1.1458;" x1="313.8129" x2="313.8129" y1="340.27" y2="357.4575"/><polygon fill="#333333" points="309.2295,345.9991,313.8129,357.4575,318.3962,345.9991,313.8129,350.5825" style="stroke:#333333;stroke-width:1.1458;"/><line style="stroke:#333333;stroke-width:1.1458;" x1="313.8129" x2="313.8129" y1="396.38" y2="402.1092"/><line style="stroke:#333333;stroke-width:1.1458;" x1="313.8129" x2="579.9438" y1="402.1092" y2="402.1092"/><line style="stroke:#333333;stroke-width:1.1458;" x1="579.9438" x2="579.9438" y1="402.1092" y2="419.2967"/><polygon fill="#333333" points="575.3605,407.8383,579.9438,419.2967,584.5272,407.8383,579.9438,412.4217" style="stroke:#333333;stroke-width:1.1458;"/><line style="stroke:#333333;stroke-width:1.1458;" x1="579.9438" x2="579.9438" y1="474.2251" y2="479.9542"/><line style="stroke:#333333;stroke-width:1.1458;" x1="579.9438" x2="313.8129" y1="479.9542" y2="479.9542"/><line style="stroke:#333333;stroke-width:1.1458;" x1="313.8129" x2="313.8129" y1="479.9542" y2="497.1417"/><polygon fill="#333333" points="309.2295,485.6834,313.8129,497.1417,318.3962,485.6834,313.8129,490.2667" style="stroke:#333333;stroke-width:1.1458;"/><line style="stroke:#333333;stroke-width:1.1458;" x1="313.8129" x2="313.8129" y1="536.0642" y2="541.7934"/><line style="stroke:#333333;stroke-width:1.1458;" x1="313.8129" x2="1021.2284" y1="541.7934" y2="541.7934"/><line style="stroke:#333333;stroke-width:1.1458;" x1="1021.2284" x2="1021.2284" y1="541.7934" y2="558.9809"/><polygon fill="#333333" points="1016.6451,547.5226,1021.2284,558.9809,1025.8118,547.5226,1021.2284,552.1059" style="stroke:#333333;stroke-width:1.1458;"/><line style="stroke:#333333;stroke-width:1.1458;" x1="1021.2284" x2="1021.2284" y1="979.8195" y2="985.5487"/><line style="stroke:#333333;stroke-width:1.1458;" x1="1021.2284" x2="313.8129" y1="985.5487" y2="985.5487"/><line style="stroke:#333333;stroke-width:1.1458;" x1="313.8129" x2="313.8129" y1="985.5487" y2="1002.7362"/><polygon fill="#333333" points="309.2295,991.2779,313.8129,1002.7362,318.3962,991.2779,313.8129,995.8612" style="stroke:#333333;stroke-width:1.1458;"/><line style="stroke:#333333;stroke-width:1.1458;" x1="313.8129" x2="313.8129" y1="1105.4936" y2="1111.2228"/><line style="stroke:#333333;stroke-width:1.1458;" x1="313.8129" x2="1021.2284" y1="1111.2228" y2="1111.2228"/><line style="stroke:#333333;stroke-width:1.1458;" x1="1021.2284" x2="1021.2284" y1="1111.2228" y2="1128.4103"/><polygon fill="#333333" points="1016.6451,1116.952,1021.2284,1128.4103,1025.8118,1116.952,1021.2284,1121.5353" style="stroke:#333333;stroke-width:1.1458;"/><line style="stroke:#333333;stroke-width:1.1458;" x1="1021.2284" x2="1021.2284" y1="1167.3328" y2="1173.062"/><line style="stroke:#333333;stroke-width:1.1458;" x1="1021.2284" x2="313.8129" y1="1173.062" y2="1173.062"/><line style="stroke:#333333;stroke-width:1.1458;" x1="313.8129" x2="313.8129" y1="1173.062" y2="1190.2495"/><polygon fill="#333333" points="309.2295,1178.7911,313.8129,1190.2495,318.3962,1178.7911,313.8129,1183.3745" style="stroke:#333333;stroke-width:1.1458;"/><line style="stroke:#333333;stroke-width:1.1458;" x1="313.8129" x2="313.8129" y1="1291.0112" y2="1296.7404"/><line style="stroke:#333333;stroke-width:1.1458;" x1="313.8129" x2="1021.2284" y1="1296.7404" y2="1296.7404"/><line style="stroke:#333333;stroke-width:1.1458;" x1="1021.2284" x2="1021.2284" y1="1296.7404" y2="1313.9279"/><polygon fill="#333333" points="1016.6451,1302.4695,1021.2284,1313.9279,1025.8118,1302.4695,1021.2284,1307.0529" style="stroke:#333333;stroke-width:1.1458;"/><line style="stroke:#333333;stroke-width:1.1458;" x1="1021.2284" x2="1021.2284" y1="1352.8504" y2="1358.5796"/><line style="stroke:#333333;stroke-width:1.1458;" x1="1021.2284" x2="1695.9732" y1="1358.5796" y2="1358.5796"/><line style="stroke:#333333;stroke-width:1.1458;" x1="1695.9732" x2="1695.9732" y1="1358.5796" y2="1375.7671"/><polygon fill="#333333" points="1691.3899,1364.3087,1695.9732,1375.7671,1700.5565,1364.3087,1695.9732,1368.8921" style="stroke:#333333;stroke-width:1.1458;"/><line style="stroke:#333333;stroke-width:1.1458;" x1="1500.9801" x2="1500.9801" y1="1746.659" y2="1766.7111"/><line style="stroke:#333333;stroke-width:1.1458;" x1="1500.9801" x2="826.2354" y1="1766.7111" y2="1766.7111"/><line style="stroke:#333333;stroke-width:1.1458;" x1="826.2354" x2="826.2354" y1="1766.7111" y2="1786.7632"/><polygon fill="#333333" points="821.652,1775.3048,826.2354,1786.7632,830.8187,1775.3048,826.2354,1779.8882" style="stroke:#333333;stroke-width:1.1458;"/><line style="stroke:#333333;stroke-width:1.1458;" x1="826.2354" x2="826.2354" y1="1841.6915" y2="1861.7436"/><line style="stroke:#333333;stroke-width:1.1458;" x1="826.2354" x2="118.8198" y1="1861.7436" y2="1861.7436"/><line style="stroke:#333333;stroke-width:1.1458;" x1="118.8198" x2="118.8198" y1="1861.7436" y2="1881.7957"/><polygon fill="#333333" points="114.2365,1870.3374,118.8198,1881.7957,123.4031,1870.3374,118.8198,1874.9207" style="stroke:#333333;stroke-width:1.1458;"/><line style="stroke:#333333;stroke-width:1.1458;" x1="1021.2284" x2="1021.2284" y1="2109.7091" y2="2115.4383"/><line style="stroke:#333333;stroke-width:1.1458;" x1="1021.2284" x2="313.8129" y1="2115.4383" y2="2115.4383"/><line style="stroke:#333333;stroke-width:1.1458;" x1="313.8129" x2="313.8129" y1="2115.4383" y2="2132.6258"/><polygon fill="#333333" points="309.2295,2121.1674,313.8129,2132.6258,318.3962,2121.1674,313.8129,2125.7508" style="stroke:#333333;stroke-width:1.1458;"/><text fill="#000000" font-family="Helvetica" font-size="13.75" lengthAdjust="spacing" textLength="66.7896" x="212.0541" y="112.5513">Customer</text><text fill="#000000" font-family="Helvetica" font-size="13.75" lengthAdjust="spacing" textLength="87.8375" x="534.8793" y="112.5513">CatalogBean</text><text fill="#000000" font-family="Helvetica" font-size="13.75" lengthAdjust="spacing" textLength="128.678" x="955.2266" y="112.5513">ShoppingCartBean</text><text fill="#000000" font-family="Helvetica" font-size="13.75" lengthAdjust="spacing" textLength="153.1165" x="1651.486" y="112.5513">PurchaseOrderService</text><!--SRC=[bLN1Rjiu4BthAsPpgPHLLFIgeDquZWkuIBTU9msmM1S5Guqj8YAfafGT0Vxu7PAMucoJ1NgpESFt7cVUZDx0nODGLGaJxiHMk3vv0nUsavAPleHBetSMSs1L1Ku3PyRbm6la3w0x1qnLmBLQ2oD1cmeDx8IhmUw4R9X2cqE5N5YXbGsv31gjsoBvJIZUT1L2KRpzRbtVO24wsIII2RKsJ2ASdZBkJazXqHbUCuiBT3PnmZKu2eKhmJQK36U_B3D9zjFEEYtHx1FhA3qns29p2K1vWmroHo0EDzhqi3PQWaJLdLDqFsMEDNfpYKpjVNQbFrBv5aPN7NSspLP4S_H_GFcJ7fL5W97uYQkDwVz3C7Se_ukUYYhBOJr6wU-h388oGXrQWzR2oUIfKYVXqasjsrQepPHEHkvmwxqlXPTK35IfFvz7Dh66b6gxHMEPeqONmjuQfgn0vTBiZmnSZGhIVtgqtpBA9rHF6XGJjC8TJ8nX_RMmb7z-o3W6lCUDK364ZKN2KZf0eQh4-Y0XlgynoAeUX0eFUv7yHyUKy-vv3-FFt-7Tp-Z7GWioLkgb7bTfh4GExx8exo3eg0FHLh2h1JdN5ye9rI7O0mv957OG24gxWRzSn3vD1nDJbrxeKHbCJk4qWxCFWyc3nul7sidc_DZfvKmvcb5ki1BUuAO2rSbxD3culgNvmSTMcFxyYJtYlSOTeryyc-_FVXZMS7A3PYiuKjwrtb07DtDFph5rsi35nEYEpAIs-W5NAaKVenolZIOc011Y-Ubs0ixRYRO1UG625onTy9MaPO7cJ3B5DbZ1SlRNr_boTaNNWYT7aw5iNV-p5qfNqzQ0EzQ8AXXjzkZ5qO-LEXbU6tpaMnH0mgG4JKOtpJtZ3wHasL5F9OwtoLYsjzwEE1pbAxKph6r99LbpzkboJCvUdxqnvxXkv4Dw_KV6qNwc3j73uMPsDrlER__-FbiklonVMW08Q0nTbl66Jw5ucppt-olT8mJoWcws25DgcIDx490Xue4b5CKFnpE0b1_2-S5lzBZAVmyQGQFTq_xn5WllBzSa3XclOMZQIaKVG82wfZwdmx3caJqCNfow4aFWS_21ALfQ77wNX26WXNb1Nbx4ixZyhpmmRHwz6zl9jPI2rcySu1UzFgu2tY0BTd- -fUXgc86ZQRiJL9JuMJoC2elsYjeEPrZ5IQNBlYl_0W00]--></g></svg>