<svg xmlns="http://www.w3.org/2000/svg" xmlns:xlink="http://www.w3.org/1999/xlink" contentStyleType="text/css" data-diagram-type="STATE" height="907.5px" preserveAspectRatio="none" style="width:1554px;height:907px;background:#FFFFFF;" version="1.1" viewBox="0 0 1554 907" width="1554.8958px" zoomAndPan="magnify"><title>State Machine Diagram - Shopping cart conversation lifecycle (@ConversationScoped)</title><defs/><g><g class="title" data-source-line="6"><text fill="#000000" font-family="Helvetica" font-size="17.1875" font-weight="bold" lengthAdjust="spacing" textLength="837.0682" x="351.0908" y="27.4122">State Machine Diagram - Shopping cart conversation lifecycle (@ConversationScoped)</text></g><rect fill="#FFFFFF" height="845.1595" rx="2.2917" ry="2.2917" style="stroke:#181818;stroke-width:1.7188;" width="1542.6872" x="5.7292" y="55.5282"/><path d="M206.3429,55.5282 L206.3429,66.1808 L194.8845,77.6392 L5.7292,77.6392" fill="none" style="stroke:#181818;stroke-width:1.7188;"/><text fill="#000000" font-family="Helvetica" font-size="16.0417" font-weight="bold" lengthAdjust="spacing" textLength="33.9319" x="9.1667" y="71.5642">stm</text><text fill="#000000" font-family="Helvetica" font-size="16.0417" lengthAdjust="spacing" textLength="150.1243" x="48.1977" y="71.5642">ShoppingCartBean</text><!--cluster LR--><g class="cluster" data-entity="LR" data-source-line="15" data-uid="ent0002" id="cluster_LR"><path d="M914.375,94.8267 L1503.3333,94.8267 A2.2917,2.2917 0 0 1 1505.625,97.1183 L1505.625,116.5617 L912.0833,116.5617 L912.0833,97.1183 A2.2917,2.2917 0 0 1 914.375,94.8267" fill="#F7FAFD"/><rect fill="none" height="758.5417" rx="2.2917" ry="2.2917" style="stroke:#2F5D8A;stroke-width:0.5729;" width="593.5417" x="912.0833" y="94.8267"/><line style="stroke:#2F5D8A;stroke-width:0.5729;" x1="912.0833" x2="1505.625" y1="116.5617" y2="116.5617"/><text fill="#000000" font-family="Helvetica" font-size="13.75" lengthAdjust="spacing" textLength="186.8134" x="1115.4475" y="112.1731">Long-running Conversation</text></g><g id="LR.Filled"><rect fill="#F7FAFD" height="118.9518" rx="2.2917" ry="2.2917" style="stroke:#2F5D8A;stroke-width:0.5729;" width="442.7684" x="961.3542" y="248.3683"/><line style="stroke:#2F5D8A;stroke-width:0.5729;" x1="961.3542" x2="1404.1225" y1="275.8325" y2="275.8325"/><text fill="#000000" font-family="Helvetica" font-size="13.75" lengthAdjust="spacing" textLength="36.557" x="1164.4598" y="266.8606">Filled</text><text fill="#000000" font-family="Helvetica" font-size="13.75" lengthAdjust="spacing" textLength="240.3162" x="967.0833" y="294.3247">entry / cartItems = new ArrayList()</text><text fill="#000000" font-family="Helvetica" font-size="13.75" lengthAdjust="spacing" textLength="190.1031" x="967.0833" y="310.3306">do / display showcart.xhtml</text><text fill="#000000" font-family="Helvetica" font-size="13.75" lengthAdjust="spacing" textLength="279.1156" x="967.0833" y="326.3365">addItemToCart(id) [in cart] / quantity++</text><text fill="#000000" font-family="Helvetica" font-size="13.75" lengthAdjust="spacing" textLength="380.6696" x="967.0833" y="342.3423">addItemToCart(id) [not in cart] / cartItems.add(item, 1)</text><text fill="#000000" font-family="Helvetica" font-size="13.75" lengthAdjust="spacing" textLength="419.8517" x="967.0833" y="358.3482">removeItemFromCart(id) [size &gt; 1] / cartItems.remove(item)</text></g><g id="LR.CheckingOut"><rect fill="#F7FAFD" height="86.9401" rx="2.2917" ry="2.2917" style="stroke:#2F5D8A;stroke-width:0.5729;" width="529.6861" x="948.75" y="582.9517"/><line style="stroke:#2F5D8A;stroke-width:0.5729;" x1="948.75" x2="1478.4361" y1="610.4159" y2="610.4159"/><text fill="#000000" font-family="Helvetica" font-size="13.75" lengthAdjust="spacing" textLength="88.4888" x="1169.3487" y="601.4439">CheckingOut</text><text fill="#000000" font-family="Helvetica" font-size="13.75" lengthAdjust="spacing" textLength="216.8378" x="954.4792" y="628.9081">do / display confirmorder.xhtml</text><text fill="#000000" font-family="Helvetica" font-size="13.75" lengthAdjust="spacing" textLength="181.0931" x="954.4792" y="644.9139">entry / capture CreditCard</text><text fill="#000000" font-family="Helvetica" font-size="13.75" lengthAdjust="spacing" textLength="506.7694" x="954.4792" y="660.9198">confirmOrder() [cartItems empty] / ValidationException -&gt; FacesMessage</text></g><g id="LR.Ordered"><rect fill="#F7FAFD" height="70.9342" rx="2.2917" ry="2.2917" style="stroke:#2F5D8A;stroke-width:0.5729;" width="191.9651" x="965.9375" y="754.8267"/><line style="stroke:#2F5D8A;stroke-width:0.5729;" x1="965.9375" x2="1157.9026" y1="782.2909" y2="782.2909"/><text fill="#000000" font-family="Helvetica" font-size="13.75" lengthAdjust="spacing" textLength="56.5039" x="1033.6681" y="773.3189">Ordered</text><text fill="#000000" font-family="Helvetica" font-size="13.75" lengthAdjust="spacing" textLength="164.2413" x="971.6667" y="800.7831">entry / cartItems.clear()</text><text fill="#000000" font-family="Helvetica" font-size="13.75" lengthAdjust="spacing" textLength="169.0485" x="971.6667" y="816.7889">exit / conversation.end()</text></g><ellipse cx="1182.5" cy="152.1183" fill="#222222" rx="11.4583" ry="11.4583" style="stroke:#222222;stroke-width:1.1458;"/><rect fill="#F7FAFD" height="45.8333" rx="2.2917" ry="2.2917" style="stroke:#2F5D8A;stroke-width:0.5729;" width="68.6672" x="1341.7708" y="452.3267"/><text fill="#000000" font-family="Helvetica" font-size="13.75" lengthAdjust="spacing" textLength="57.2089" x="1347.5" y="480.0035">Emptied</text><ellipse cx="29.7917" cy="152.1183" fill="#222222" rx="11.4583" ry="11.4583" style="stroke:#222222;stroke-width:1.1458;"/><rect fill="#F7FAFD" height="45.8333" rx="2.2917" ry="2.2917" style="stroke:#2F5D8A;stroke-width:0.5729;" width="76.2002" x="186.1979" y="285.035"/><text fill="#000000" font-family="Helvetica" font-size="13.75" lengthAdjust="spacing" textLength="64.7418" x="191.9271" y="312.7118">Transient</text><ellipse cx="438.8542" cy="475.2433" fill="none" rx="12.6042" ry="12.6042" style="stroke:#222222;stroke-width:1.1458;"/><ellipse cx="438.8542" cy="475.2433" fill="#222222" rx="6.875" ry="6.875" style="stroke:#222222;stroke-width:1.1458;"/><g class="entity" data-entity="GMN2" data-source-line="11" data-uid="ent0003" id="entity_GMN2"><path d="M303.6458,289.6183 L303.6458,303.3683 L263.2323,307.9517 L303.6458,312.535 L303.6458,325.8374 A2.2917,2.2917 0 0 0 305.9375,328.1291 L534.5732,328.1291 A2.2917,2.2917 0 0 0 536.8649,325.8374 L536.8649,298.785 L525.4065,287.3267 L305.9375,287.3267 A2.2917,2.2917 0 0 0 303.6458,289.6183" fill="#FFFBE6" style="stroke:#B59F3B;stroke-width:0.5729;"/><path d="M525.4065,287.3267 L525.4065,297.6392 A1.1458,1.1458 0 0 0 526.5524,298.785 L536.8649,298.785 L525.4065,287.3267" fill="#FFFBE6" style="stroke:#B59F3B;stroke-width:0.5729;"/><text fill="#000000" font-family="Helvetica" font-size="12.6042" lengthAdjust="spacing" textLength="209.1565" x="310.5208" y="304.7553">conversation.isTransient() = true</text><text fill="#000000" font-family="Helvetica" font-size="12.6042" lengthAdjust="spacing" textLength="101.5903" x="310.5208" y="319.4273">cartItems = null</text></g><!--link *start* to Transient--><g class="link" data-entity-1=".start." data-entity-2="Transient" data-source-line="8" data-uid="lnk4" id="link_.start._Transient"><path d="M31.8083,163.4162 C34.8563,176.4673 41.7312,199.2121 55,213.9933 C90.876,253.9485 141.7117,277.8167 179.6158,291.899" fill="none" id="*start*-to-Transient" style="stroke:#333333;stroke-width:1.1458;"/><polygon fill="#333333" points="186.0604,294.2933,177.9897,286.4054,180.6899,292.2981,174.7973,294.9982,186.0604,294.2933" style="stroke:#333333;stroke-width:1.1458;"/></g><!--link *start*LR to Filled--><g class="link" data-entity-1=".start.LR" data-entity-2="Filled" data-source-line="16" data-uid="lnk6" id="link_.start.LR_Filled"><path d="M1182.5,163.8173 C1182.5,181.1652 1182.5,210.0287 1182.5,241.4475" fill="none" id="*start*LR-to-Filled" style="stroke:#333333;stroke-width:1.1458;"/><polygon fill="#333333" points="1182.5,248.3225,1187.0833,238.01,1182.5,242.5933,1177.9167,238.01,1182.5,248.3225" style="stroke:#333333;stroke-width:1.1458;"/></g><!--link Filled to Emptied--><g class="link" data-entity-1="Filled" data-entity-2="Emptied" data-source-line="22" data-uid="lnk8" id="link_Filled_Emptied"><path d="M1037.7927,367.7183 C1020.4219,382.5569 1013.8333,399.5725 1030.1042,417.9517 C1071.7552,465.0225 1249.5198,438.4965 1310.8333,452.3267 C1320.974,454.6183 1325.2478,455.6801 1335.079,458.9687" fill="none" id="Filled-to-Emptied" style="stroke:#333333;stroke-width:1.1458;"/><polygon fill="#333333" points="1341.599,461.1496,1333.273,453.5316,1336.1657,459.3322,1330.3652,462.2248,1341.599,461.1496" style="stroke:#333333;stroke-width:1.1458;"/><text fill="#000000" font-family="Helvetica" font-size="12.6042" lengthAdjust="spacing" textLength="250.8032" x="1031.25" y="414.7553">removeItemFromCart(itemId) [size = 1]</text></g><!--link Emptied to Filled--><g class="link" data-entity-1="Emptied" data-entity-2="Filled" data-source-line="23" data-uid="lnk9" id="link_Emptied_Filled"><path d="M1350.376,452.1433 C1325.1677,430.659 1290.9034,401.4652 1256.5513,372.1892" fill="none" id="Emptied-to-Filled" style="stroke:#333333;stroke-width:1.1458;"/><polygon fill="#333333" points="1251.3188,367.7298,1256.1947,377.9072,1255.6792,371.4459,1262.1405,370.9305,1251.3188,367.7298" style="stroke:#333333;stroke-width:1.1458;"/><text fill="#000000" font-family="Helvetica" font-size="12.6042" lengthAdjust="spacing" textLength="144.5048" x="1308.5417" y="414.7553">addItemToCart(itemId)</text></g><!--link Filled to CheckingOut--><g class="link" data-entity-1="Filled" data-entity-2="CheckingOut" data-source-line="24" data-uid="lnk10" id="link_Filled_CheckingOut"><path d="M997.7802,367.8673 C985.8292,381.3079 980.0083,397.785 984.2708,417.9517 C992.3375,456.0965 994.5833,468.4256 1019.7917,498.16 C1049.0562,532.6725 1084.0564,557.9492 1120.7575,579.3305" fill="none" id="Filled-to-CheckingOut" style="stroke:#333333;stroke-width:1.1458;"/><polygon fill="#333333" points="1126.6979,582.7912,1120.0945,573.6398,1121.7476,579.9073,1115.4801,581.5604,1126.6979,582.7912" style="stroke:#333333;stroke-width:1.1458;"/><text fill="#000000" font-family="Helvetica" font-size="12.6042" lengthAdjust="spacing" textLength="67.3781" x="1020.9375" y="480.0678">checkout()</text></g><!--link CheckingOut to Filled--><g class="link" data-entity-1="CheckingOut" data-entity-2="Filled" data-source-line="28" data-uid="lnk12" id="link_CheckingOut_Filled"><path d="M1192.801,582.86 C1172.2104,544.3027 1137.3083,488.1683 1093.125,452.3267 C1062.6344,427.5996 1033.4615,450.6652 1011.7708,417.9517 C998.8573,398.4725 999.1538,386.4756 1014.1069,372.4162" fill="none" id="CheckingOut-to-Filled" style="stroke:#333333;stroke-width:1.1458;"/><polygon fill="#333333" points="1019.1156,367.7069,1008.4629,371.4318,1014.9417,371.6313,1014.7421,378.1101,1019.1156,367.7069" style="stroke:#333333;stroke-width:1.1458;"/><text fill="#000000" font-family="Helvetica" font-size="12.6042" lengthAdjust="spacing" textLength="162.4571" x="1137.8125" y="480.0678">navigate(showcart.xhtml)</text></g><!--link Emptied to CheckingOut--><g class="link" data-entity-1="Emptied" data-entity-2="CheckingOut" data-source-line="25" data-uid="lnk11" id="link_Emptied_CheckingOut"><path d="M1352.1406,498.3662 C1327.9177,520.5381 1294.9698,550.7061 1264.8573,578.2748" fill="none" id="Emptied-to-CheckingOut" style="stroke:#333333;stroke-width:1.1458;"/><polygon fill="#333333" points="1259.7865,582.9173,1270.4877,579.3341,1264.0121,579.0486,1264.2977,572.573,1259.7865,582.9173" style="stroke:#333333;stroke-width:1.1458;"/><text fill="#000000" font-family="Helvetica" font-size="12.6042" lengthAdjust="spacing" textLength="67.3781" x="1314.2708" y="545.3803">checkout()</text></g><!--link CheckingOut to Ordered--><g class="link" data-entity-1="CheckingOut" data-entity-2="Ordered" data-source-line="30" data-uid="lnk13" id="link_CheckingOut_Ordered"><path d="M1173.7,670.0923 C1149.0188,696.4579 1122.39,724.8857 1099.2327,749.6242" fill="none" id="CheckingOut-to-Ordered" style="stroke:#333333;stroke-width:1.1458;"/><polygon fill="#333333" points="1094.5344,754.6433,1104.9279,750.2469,1098.4496,750.4607,1098.2358,743.9824,1094.5344,754.6433" style="stroke:#333333;stroke-width:1.1458;"/><text fill="#000000" font-family="Helvetica" font-size="12.6042" lengthAdjust="spacing" textLength="395.7081" x="1138.9583" y="717.2553">confirmOrder() [cartItems not empty] / order = createOrder(..)</text></g><!--link Transient to LR--><g class="link" data-entity-1="Transient" data-entity-2="LR" data-source-line="35" data-uid="lnk14" id="link_Transient_LR"><path d="M186.0719,293.6517 C135.2542,274.3673 56.2833,236.509 92.8125,197.9517 C108.5391,181.3543 312.549,170.2254 514.1583,163.2243 C614.963,159.7238 715.1676,157.2552 790.9365,155.6511 C828.821,154.849 860.5966,154.263 883.2838,153.8722 C894.6274,153.6767 903.6989,153.5301 910.126,153.4297 C910.5276,153.4234 904.0448,153.5241 904.4258,153.5182" fill="none" id="Transient-to-LR" style="stroke:#333333;stroke-width:1.1458;"/><polygon fill="#333333" points="911.2999,153.4114,900.9175,148.9888,905.5715,153.5004,901.0599,158.1544,911.2999,153.4114" style="stroke:#333333;stroke-width:1.1458;"/><text fill="#000000" font-family="Helvetica" font-size="12.6042" lengthAdjust="spacing" textLength="287.311" x="93.9583" y="210.797">addItemToCart(itemId) / conversation.begin()</text></g><!--link LR to Transient--><g class="link" data-entity-1="LR" data-entity-2="Transient" data-source-line="37" data-uid="lnk16" id="link_LR_Transient"><path d="M911.8142,153.1444 C911.3754,153.1405 910.9221,153.1367 910.4545,153.1329 C909.5191,153.1254 908.5262,153.1183 907.4772,153.1118 C899.0846,153.0594 887.0938,153.0448 872.1611,153.1857 C842.2956,153.4675 800.6625,154.3713 752.5117,156.8392 C656.2102,161.7748 533.838,172.9668 427.3958,197.9517 C408.249,202.4433 404.651,207.3131 386.1458,213.9933 C340.7021,230.3902 324.1219,222.9652 283.0208,248.3683 C267.4031,258.0277 257.332,267.4727 246.6184,279.6644" fill="none" id="LR-to-Transient" style="stroke:#333333;stroke-width:1.1458;"/><polygon fill="#333333" points="242.0802,284.8287,252.3304,280.1077,245.862,280.5251,245.4446,274.0568,242.0802,284.8287" style="stroke:#333333;stroke-width:1.1458;"/><text fill="#000000" font-family="Helvetica" font-size="12.6042" lengthAdjust="spacing" textLength="287.4587" x="428.5417" y="210.797">AccountBean.doLogout() / conversation.end()</text></g><!--link Ordered to Transient--><g class="link" data-entity-1="Ordered" data-entity-2="Transient" data-source-line="36" data-uid="lnk15" id="link_Ordered_Transient"><path d="M965.6854,758.1037 C832.8604,712.786 589.3135,620.4777 405.625,498.16 C333.9417,450.4246 273.2845,375.284 244.4783,336.5892" fill="none" id="Ordered-to-Transient" style="stroke:#333333;stroke-width:1.1458;"/><polygon fill="#333333" points="240.3729,331.0746,242.8545,342.0835,243.7941,335.6701,250.2074,336.6097,240.3729,331.0746" style="stroke:#333333;stroke-width:1.1458;"/><text fill="#000000" font-family="Helvetica" font-size="12.6042" lengthAdjust="spacing" textLength="134.7993" x="483.5417" y="545.3803">[conversation ended]</text></g><!--link LR to *end*--><g class="link" data-entity-1="LR" data-entity-2=".end." data-source-line="38" data-uid="lnk18" id="link_LR_.end."><path d="M912.0145,156.0434 C911.5915,156.171 911.1551,156.3026 910.7057,156.4382 C909.807,156.7093 908.856,156.9964 907.8548,157.2987 C899.8456,159.717 888.6259,163.1122 875.2425,167.1832 C848.4756,175.325 813.054,186.1696 777.352,197.3071 C705.9479,219.5821 633.4224,243.0287 626.7708,248.3683 C578.8865,286.7996 595.65,319.9256 556.875,367.535 C522.1906,410.1371 475.6202,446.7797 454.1473,462.8214" fill="none" id="LR-to-*end*" style="stroke:#333333;stroke-width:1.1458;"/><polygon fill="#333333" points="448.6396,466.936,459.6443,464.4359,453.2294,463.5072,454.1581,457.0922,448.6396,466.936" style="stroke:#333333;stroke-width:1.1458;"/><text fill="#000000" font-family="Helvetica" font-size="12.6042" lengthAdjust="spacing" textLength="301.823" x="627.9167" y="312.7761">after(conversation timeout) / context destroyed</text></g><!--link Transient to *end*--><g class="link" data-entity-1="Transient" data-entity-2=".end." data-source-line="39" data-uid="lnk19" id="link_Transient_.end."><path d="M244.7844,331.1777 C255.6469,342.5673 269.5458,356.3631 283.0208,367.535 C334.4802,410.2287 396.9832,449.0014 422.6499,464.4358" fill="none" id="Transient-to-*end*" style="stroke:#333333;stroke-width:1.1458;"/><polygon fill="#333333" points="428.5417,467.9787,422.066,458.7365,423.6319,465.0263,417.342,466.5922,428.5417,467.9787" style="stroke:#333333;stroke-width:1.1458;"/><text fill="#000000" font-family="Helvetica" font-size="12.6042" lengthAdjust="spacing" textLength="118.9887" x="350.625" y="414.7553">HTTP request ends</text></g><!--SRC=[ZLHDJzj04BtlhvXo8GJYY6ia49I2YXH4LQ9U8bGjknDxL7lNxAuXRiL_xwmTufWaLOzUl_VcpUSXNFmYeoVm46H0k9Cg8uFY42vyLHJIrHEOqW9LhN84ku2G8LnSMVE2pij0rZmeMw86dzco99E2aYvCGDcYj9vOqKVT4q0JN3t69OMnjl24cNmXMpaFqcWW4z0PcKDmqZ2BPNqYFf5HUQKHacJyquSwnuIg8XSPyHiMPQX1erUEoaWGXIIpSB9060vzA8P3U5Xvkc9Bdr4Q4IXm5hrCuGl9b5amMiER53Y3BaV8roKOx4Z-I8Zvy156etEODGbmia8Oor4SfLc8TUj-G4yw8R_-DJY2Cov1XH737cu35fwVJ9Nd0hbEKLA8fg9mCBKc7RdAc6XvqzG1I0_Jx_27PTvztL2Ue-Q7bjn-mgHj2upxuV0LBfsJzPGyUzecSGF7eCcNkQnZuryZErbcWPkp1PPQH-6PZLqOa3w2EPactYEhF5VIS5Vgu-F_Od81O8EzTfqmTi3JLfp0wGx33WlxWX5vuspHoNdwZN0Eftsj5jt8HQsLIgpYDGyTxLNaZzkrwXchClcTqVLWEx6MruzqbQ7YlKplgy045RzirJPZK_8ViBO4VK2lSJo52tA5THhTX-RrMTsCbA5o_DUXfi3UupnjGdj96bxmbCK6_G7PPstbvZwwuJsOTmFPR7hiq0-Pasuc_7gfi5bwY16bGd-7tiiKTnXg51j7-qF4iLg7QGh2_LCEsMQBJfBEToUujJm9NmZf1ZknVFaYT7FrUQKP-oR4-W8qZdbrzyp8Hu4dJCcmn7kOtWLYaNdlY74ur8-2vJ_YBfMobMbkPABjrARD4EsskwB7my8k5tou1xqeWGfa-eeTS1dYbGxErdn_-ecs6bzdis-yJyyLew97_nS0]--></g></svg>