<svg xmlns="http://www.w3.org/2000/svg" xmlns:xlink="http://www.w3.org/1999/xlink" contentStyleType="text/css" data-diagram-type="SEQUENCE" height="1792.0833px" preserveAspectRatio="none" style="width:2060px;height:1792px;background:#FFFFFF;" version="1.1" viewBox="0 0 2060 1792" width="2060.2083px" zoomAndPan="magnify"><title>Sequence Diagram - Confirm order (full stack: JSF -&gt; CDI -&gt; EJB -&gt; JPA)</title><defs/><g><text fill="#000000" font-family="Helvetica" font-size="17.1875" font-weight="bold" lengthAdjust="spacing" textLength="688.0791" x="672.3611" y="33.1413">Sequence Diagram - Confirm order (full stack: JSF -&gt; CDI -&gt; EJB -&gt; JPA)</text><rect fill="#FFFFFF" height="1724.515" rx="2.2917" ry="2.2917" style="stroke:#181818;stroke-width:1.7188;" width="2047.697" x="5.7292" y="61.2573"/><path d="M152.6957,61.2573 L152.6957,71.91 L141.2374,83.3683 L5.7292,83.3683" fill="none" style="stroke:#181818;stroke-width:1.7188;"/><text fill="#000000" font-family="Helvetica" font-size="16.0417" font-weight="bold" lengthAdjust="spacing" textLength="21.0312" x="9.1667" y="77.2934">sd</text><text fill="#000000" font-family="Helvetica" font-size="16.0417" lengthAdjust="spacing" textLength="109.3778" x="35.297" y="77.2934">ConfirmOrder</text><g><title>.FacesServlet</title><rect fill="#FFFFFF" height="1438.4684" style="stroke:#7A7A7A;stroke-width:1.1458;" width="11.4583" x="295.1713" y="224.9683"/></g><g><title>..ConversationScoped..</title><rect fill="#FFFFFF" height="1255.332" style="stroke:#7A7A7A;stroke-width:1.1458;" width="11.4583" x="448.3179" y="338.6564"/></g><g><title>..Interceptor..</title><rect fill="#FFFFFF" height="1369.0202" style="stroke:#7A7A7A;stroke-width:1.1458;" width="11.4583" x="697.4975" y="255.682"/></g><g><title>..Interceptor..</title><rect fill="#FFFFFF" height="985.3719" style="stroke:#7A7A7A;stroke-width:1.1458;" width="11.4583" x="1109.4895" y="452.3446"/></g><g><title>..Stateless..</title><rect fill="#FFFFFF" height="832.7254" style="stroke:#7A7A7A;stroke-width:1.1458;" width="11.4583" x="1337.5103" y="528.6678"/></g><g><title>em .</title><rect fill="#FFFFFF" height="82.9744" style="stroke:#7A7A7A;stroke-width:1.1458;" width="11.4583" x="1699.475" y="1210.1164"/></g><rect fill="none" height="1050.4248" rx="2.2917" ry="2.2917" style="stroke:#555555;stroke-width:1.7188;" width="1798.9253" x="235.0217" y="583.444"/><rect fill="none" height="125.3345" rx="2.2917" ry="2.2917" style="stroke:#555555;stroke-width:1.7188;" width="527.6876" x="1247.2021" y="1024.5003"/><rect fill="none" height="63.9071" rx="2.2917" ry="2.2917" style="stroke:#555555;stroke-width:1.7188;" width="324.1209" x="355.3208" y="1500.5135"/><g><title>.Customer</title><rect fill="#000000" fill-opacity="0.00000" height="1506.7708" width="9.1667" x="51.7527" y="177.2909"/><line style="stroke:#7A7A7A;stroke-width:0.5729;stroke-dasharray:5.7292,5.7292;" x1="56.1458" x2="56.1458" y1="177.2909" y2="1684.0617"/></g><g><title>.FacesServlet</title><rect fill="#000000" fill-opacity="0.00000" height="1506.7708" width="9.1667" x="296.3171" y="177.2909"/><line style="stroke:#7A7A7A;stroke-width:0.5729;stroke-dasharray:5.7292,5.7292;" x1="300.3342" x2="300.3342" y1="177.2909" y2="1684.0617"/></g><g><title>..ConversationScoped..</title><rect fill="#000000" fill-opacity="0.00000" height="1506.7708" width="9.1667" x="449.4638" y="177.2909"/><line style="stroke:#7A7A7A;stroke-width:0.5729;stroke-dasharray:5.7292,5.7292;" x1="453.8625" x2="453.8625" y1="177.2909" y2="1684.0617"/></g><g><title>..Interceptor..</title><rect fill="#000000" fill-opacity="0.00000" height="1506.7708" width="9.1667" x="698.6433" y="177.2909"/><line style="stroke:#7A7A7A;stroke-width:0.5729;stroke-dasharray:5.7292,5.7292;" x1="703.1953" x2="703.1953" y1="177.2909" y2="1684.0617"/></g><g><title>..SessionScoped..</title><rect fill="#000000" fill-opacity="0.00000" height="1506.7708" width="9.1667" x="955.1589" y="177.2909"/><line style="stroke:#7A7A7A;stroke-width:0.5729;stroke-dasharray:5.7292,5.7292;" x1="959.3003" x2="959.3003" y1="177.2909" y2="1684.0617"/></g><g><title>..Interceptor..</title><rect fill="#000000" fill-opacity="0.00000" height="1506.7708" width="9.1667" x="1110.6353" y="177.2909"/><line style="stroke:#7A7A7A;stroke-width:0.5729;stroke-dasharray:5.7292,5.7292;" x1="1114.8718" x2="1114.8718" y1="177.2909" y2="1684.0617"/></g><g><title>..Stateless..</title><rect fill="#000000" fill-opacity="0.00000" height="1506.7708" width="9.1667" x="1338.6562" y="177.2909"/><line style="stroke:#7A7A7A;stroke-width:0.5729;stroke-dasharray:5.7292,5.7292;" x1="1342.3063" x2="1342.3063" y1="177.2909" y2="1684.0617"/></g><g><title>em .</title><rect fill="#000000" fill-opacity="0.00000" height="1506.7708" width="9.1667" x="1700.6209" y="177.2909"/><line style="stroke:#7A7A7A;stroke-width:0.5729;stroke-dasharray:5.7292,5.7292;" x1="1704.2687" x2="1704.2687" y1="177.2909" y2="1684.0617"/></g><g><title>order .</title><rect fill="#000000" fill-opacity="0.00000" height="686.4526" width="9.1667" x="1839.0961" y="997.609"/><line style="stroke:#7A7A7A;stroke-width:0.5729;stroke-dasharray:5.7292,5.7292;" x1="1842.9465" x2="1842.9465" y1="997.609" y2="1684.0617"/></g><g><title>db .</title><rect fill="#000000" fill-opacity="0.00000" height="1506.7708" width="9.1667" x="1956.5893" y="177.2909"/><line style="stroke:#7A7A7A;stroke-width:0.5729;stroke-dasharray:5.7292,5.7292;" x1="1960.0503" x2="1960.0503" y1="177.2909" y2="1684.0617"/></g><g class="participant participant-head" data-participant="user"><text fill="#000000" font-family="Helvetica" font-size="13.75" lengthAdjust="spacing" textLength="71.4221" x="17.1875" y="174.0481">:Customer</text><ellipse cx="56.3361" cy="102.2746" fill="#E2E2F0" rx="9.1667" ry="9.1667" style="stroke:#2F5D8A;stroke-width:0.5729;"/><path d="M56.3361,111.4412 L56.3361,142.3787 M41.4402,120.6079 L71.2319,120.6079 M56.3361,142.3787 L41.4402,159.5662 M56.3361,142.3787 L71.2319,159.5662" fill="none" style="stroke:#2F5D8A;stroke-width:0.5729;"/></g><g class="participant participant-tail" data-participant="user"><text fill="#000000" font-family="Helvetica" font-size="13.75" lengthAdjust="spacing" textLength="71.4221" x="17.1875" y="1695.6789">:Customer</text><ellipse cx="56.3361" cy="1708.6613" fill="#E2E2F0" rx="9.1667" ry="9.1667" style="stroke:#2F5D8A;stroke-width:0.5729;"/><path d="M56.3361,1717.828 L56.3361,1748.7655 M41.4402,1726.9946 L71.2319,1726.9946 M56.3361,1748.7655 L41.4402,1765.953 M56.3361,1748.7655 L71.2319,1765.953" fill="none" style="stroke:#2F5D8A;stroke-width:0.5729;"/></g><g class="participant participant-head" data-participant="fs"><rect fill="#F7FAFD" height="32.0475" rx="2.2917" ry="2.2917" style="stroke:#2F5D8A;stroke-width:0.5729;" width="108.8407" x="246.4801" y="144.0975"/><text fill="#000000" font-family="Helvetica" font-size="13.75" lengthAdjust="spacing" textLength="92.7991" x="254.5009" y="164.8814">:FacesServlet</text></g><g class="participant participant-tail" data-participant="fs"><rect fill="#F7FAFD" height="32.0475" rx="2.2917" ry="2.2917" style="stroke:#2F5D8A;stroke-width:0.5729;" width="108.8407" x="246.4801" y="1682.9159"/><text fill="#000000" font-family="Helvetica" font-size="13.75" lengthAdjust="spacing" textLength="92.7991" x="254.5009" y="1703.6997">:FacesServlet</text></g><g class="participant participant-head" data-participant="cart"><rect fill="#F7FAFD" height="64.0592" rx="2.2917" ry="2.2917" style="stroke:#2F5D8A;stroke-width:0.5729;" width="174.5359" x="366.7791" y="112.0858"/><text fill="#000000" font-family="Helvetica" font-size="13.75" font-style="italic" lengthAdjust="spacing" textLength="158.4943" x="374.8" y="132.8697">&#171;ConversationScoped&#187;</text><text fill="#000000" font-family="Helvetica" font-size="13.75" lengthAdjust="spacing" textLength="36.0333" x="436.0304" y="148.8755">cart :</text><text fill="#000000" font-family="Helvetica" font-size="13.75" lengthAdjust="spacing" textLength="128.678" x="389.7081" y="164.8814">ShoppingCartBean</text></g><g class="participant participant-tail" data-participant="cart"><rect fill="#F7FAFD" height="64.0592" rx="2.2917" ry="2.2917" style="stroke:#2F5D8A;stroke-width:0.5729;" width="174.5359" x="366.7791" y="1682.9159"/><text fill="#000000" font-family="Helvetica" font-size="13.75" font-style="italic" lengthAdjust="spacing" textLength="158.4943" x="374.8" y="1703.6997">&#171;ConversationScoped&#187;</text><text fill="#000000" font-family="Helvetica" font-size="13.75" lengthAdjust="spacing" textLength="36.0333" x="436.0304" y="1719.7056">cart :</text><text fill="#000000" font-family="Helvetica" font-size="13.75" lengthAdjust="spacing" textLength="128.678" x="389.7081" y="1735.7115">ShoppingCartBean</text></g><g class="participant participant-head" data-participant="exi"><rect fill="#F7FAFD" height="48.0534" rx="2.2917" ry="2.2917" style="stroke:#2F5D8A;stroke-width:0.5729;" width="165.0627" x="620.6953" y="128.0916"/><text fill="#000000" font-family="Helvetica" font-size="13.75" font-style="italic" lengthAdjust="spacing" textLength="93.4503" x="656.5015" y="148.8755">&#171;Interceptor&#187;</text><text fill="#000000" font-family="Helvetica" font-size="13.75" lengthAdjust="spacing" textLength="149.021" x="628.7162" y="164.8814">:ExceptionInterceptor</text></g><g class="participant participant-tail" data-participant="exi"><rect fill="#F7FAFD" height="48.0534" rx="2.2917" ry="2.2917" style="stroke:#2F5D8A;stroke-width:0.5729;" width="165.0627" x="620.6953" y="1682.9159"/><text fill="#000000" font-family="Helvetica" font-size="13.75" font-style="italic" lengthAdjust="spacing" textLength="93.4503" x="656.5015" y="1703.6997">&#171;Interceptor&#187;</text><text fill="#000000" font-family="Helvetica" font-size="13.75" lengthAdjust="spacing" textLength="149.021" x="628.7162" y="1719.7056">:ExceptionInterceptor</text></g><g class="participant participant-head" data-participant="acct"><rect fill="#F7FAFD" height="64.0592" rx="2.2917" ry="2.2917" style="stroke:#2F5D8A;stroke-width:0.5729;" width="136.0923" x="891.6961" y="112.0858"/><text fill="#000000" font-family="Helvetica" font-size="13.75" font-style="italic" lengthAdjust="spacing" textLength="120.0507" x="899.7169" y="132.8697">&#171;SessionScoped&#187;</text><text fill="#000000" font-family="Helvetica" font-size="13.75" lengthAdjust="spacing" textLength="37.9401" x="940.7722" y="148.8755">acct :</text><text fill="#000000" font-family="Helvetica" font-size="13.75" lengthAdjust="spacing" textLength="90.7916" x="914.3465" y="164.8814">AccountBean</text></g><g class="participant participant-tail" data-participant="acct"><rect fill="#F7FAFD" height="64.0592" rx="2.2917" ry="2.2917" style="stroke:#2F5D8A;stroke-width:0.5729;" width="136.0923" x="891.6961" y="1682.9159"/><text fill="#000000" font-family="Helvetica" font-size="13.75" font-style="italic" lengthAdjust="spacing" textLength="120.0507" x="899.7169" y="1703.6997">&#171;SessionScoped&#187;</text><text fill="#000000" font-family="Helvetica" font-size="13.75" lengthAdjust="spacing" textLength="37.9401" x="940.7722" y="1719.7056">acct :</text><text fill="#000000" font-family="Helvetica" font-size="13.75" lengthAdjust="spacing" textLength="90.7916" x="914.3465" y="1735.7115">AccountBean</text></g><g class="participant participant-head" data-participant="li"><rect fill="#F7FAFD" height="48.0534" rx="2.2917" ry="2.2917" style="stroke:#2F5D8A;stroke-width:0.5729;" width="151.9438" x="1039.2468" y="128.0916"/><text fill="#000000" font-family="Helvetica" font-size="13.75" font-style="italic" lengthAdjust="spacing" textLength="93.4503" x="1068.4935" y="148.8755">&#171;Interceptor&#187;</text><text fill="#000000" font-family="Helvetica" font-size="13.75" lengthAdjust="spacing" textLength="135.9021" x="1047.2676" y="164.8814">:LoggingInterceptor</text></g><g class="participant participant-tail" data-participant="li"><rect fill="#F7FAFD" height="48.0534" rx="2.2917" ry="2.2917" style="stroke:#2F5D8A;stroke-width:0.5729;" width="151.9438" x="1039.2468" y="1682.9159"/><text fill="#000000" font-family="Helvetica" font-size="13.75" font-style="italic" lengthAdjust="spacing" textLength="93.4503" x="1068.4935" y="1703.6997">&#171;Interceptor&#187;</text><text fill="#000000" font-family="Helvetica" font-size="13.75" lengthAdjust="spacing" textLength="135.9021" x="1047.2676" y="1719.7056">:LoggingInterceptor</text></g><g class="participant participant-head" data-participant="os"><rect fill="#F7FAFD" height="64.0592" rx="2.2917" ry="2.2917" style="stroke:#2F5D8A;stroke-width:0.5729;" width="169.1581" x="1258.6604" y="112.0858"/><text fill="#000000" font-family="Helvetica" font-size="13.75" font-style="italic" lengthAdjust="spacing" textLength="79.9756" x="1303.2517" y="132.8697">&#171;Stateless&#187;</text><text fill="#000000" font-family="Helvetica" font-size="13.75" lengthAdjust="spacing" textLength="70.3345" x="1308.0723" y="148.8755">orderSvc :</text><text fill="#000000" font-family="Helvetica" font-size="13.75" lengthAdjust="spacing" textLength="153.1165" x="1266.6813" y="164.8814">PurchaseOrderService</text></g><g class="participant participant-tail" data-participant="os"><rect fill="#F7FAFD" height="64.0592" rx="2.2917" ry="2.2917" style="stroke:#2F5D8A;stroke-width:0.5729;" width="169.1581" x="1258.6604" y="1682.9159"/><text fill="#000000" font-family="Helvetica" font-size="13.75" font-style="italic" lengthAdjust="spacing" textLength="79.9756" x="1303.2517" y="1703.6997">&#171;Stateless&#187;</text><text fill="#000000" font-family="Helvetica" font-size="13.75" lengthAdjust="spacing" textLength="70.3345" x="1308.0723" y="1719.7056">orderSvc :</text><text fill="#000000" font-family="Helvetica" font-size="13.75" lengthAdjust="spacing" textLength="153.1165" x="1266.6813" y="1735.7115">PurchaseOrderService</text></g><g class="participant participant-head" data-participant="em"><rect fill="#F7FAFD" height="48.0534" rx="2.2917" ry="2.2917" style="stroke:#2F5D8A;stroke-width:0.5729;" width="116.4543" x="1646.9771" y="128.0916"/><text fill="#000000" font-family="Helvetica" font-size="13.75" lengthAdjust="spacing" textLength="30.8569" x="1689.7757" y="148.8755">em :</text><text fill="#000000" font-family="Helvetica" font-size="13.75" lengthAdjust="spacing" textLength="100.4126" x="1654.9979" y="164.8814">EntityManager</text></g><g class="participant participant-tail" data-participant="em"><rect fill="#F7FAFD" height="48.0534" rx="2.2917" ry="2.2917" style="stroke:#2F5D8A;stroke-width:0.5729;" width="116.4543" x="1646.9771" y="1682.9159"/><text fill="#000000" font-family="Helvetica" font-size="13.75" lengthAdjust="spacing" textLength="30.8569" x="1689.7757" y="1703.6997">em :</text><text fill="#000000" font-family="Helvetica" font-size="13.75" lengthAdjust="spacing" textLength="100.4126" x="1654.9979" y="1719.7056">EntityManager</text></g><g class="participant participant-tail" data-participant="po"><rect fill="#F7FAFD" height="48.0534" rx="2.2917" ry="2.2917" style="stroke:#2F5D8A;stroke-width:0.5729;" width="118.3409" x="1784.509" y="1682.9159"/><text fill="#000000" font-family="Helvetica" font-size="13.75" lengthAdjust="spacing" textLength="45.9094" x="1820.7247" y="1703.6997">order :</text><text fill="#000000" font-family="Helvetica" font-size="13.75" lengthAdjust="spacing" textLength="102.2992" x="1792.5298" y="1719.7056">PurchaseOrder</text></g><g class="participant participant-head" data-participant="db"><rect fill="#F7FAFD" height="48.0534" rx="2.2917" ry="2.2917" style="stroke:#2F5D8A;stroke-width:0.5729;" width="91.6197" x="1915.3628" y="128.0916"/><text fill="#000000" font-family="Helvetica" font-size="13.75" lengthAdjust="spacing" textLength="26.4594" x="1947.943" y="148.8755">db :</text><text fill="#000000" font-family="Helvetica" font-size="13.75" lengthAdjust="spacing" textLength="75.578" x="1923.3836" y="164.8814">PetstorePU</text></g><g class="participant participant-tail" data-participant="db"><rect fill="#F7FAFD" height="48.0534" rx="2.2917" ry="2.2917" style="stroke:#2F5D8A;stroke-width:0.5729;" width="91.6197" x="1915.3628" y="1682.9159"/><text fill="#000000" font-family="Helvetica" font-size="13.75" lengthAdjust="spacing" textLength="26.4594" x="1947.943" y="1703.6997">db :</text><text fill="#000000" font-family="Helvetica" font-size="13.75" lengthAdjust="spacing" textLength="75.578" x="1923.3836" y="1719.7056">PetstorePU</text></g><g><title>.FacesServlet</title><rect fill="#FFFFFF" height="1438.4684" style="stroke:#7A7A7A;stroke-width:1.1458;" width="11.4583" x="295.1713" y="224.9683"/></g><g><title>..ConversationScoped..</title><rect fill="#FFFFFF" height="1255.332" style="stroke:#7A7A7A;stroke-width:1.1458;" width="11.4583" x="448.3179" y="338.6564"/></g><g><title>..Interceptor..</title><rect fill="#FFFFFF" height="1369.0202" style="stroke:#7A7A7A;stroke-width:1.1458;" width="11.4583" x="697.4975" y="255.682"/></g><g><title>..Interceptor..</title><rect fill="#FFFFFF" height="985.3719" style="stroke:#7A7A7A;stroke-width:1.1458;" width="11.4583" x="1109.4895" y="452.3446"/></g><g><title>..Stateless..</title><rect fill="#FFFFFF" height="832.7254" style="stroke:#7A7A7A;stroke-width:1.1458;" width="11.4583" x="1337.5103" y="528.6678"/></g><g><title>em .</title><rect fill="#FFFFFF" height="82.9744" style="stroke:#7A7A7A;stroke-width:1.1458;" width="11.4583" x="1699.475" y="1210.1164"/></g><g class="message" data-participant-1="user" data-participant-2="fs"><polygon fill="#333333" points="281.4213,220.3849,292.8796,224.9683,281.4213,229.5516,286.0046,224.9683" style="stroke:#333333;stroke-width:1.1458;"/><line style="stroke:#333333;stroke-width:1.1458;" x1="56.3361" x2="288.2963" y1="224.9683" y2="224.9683"/><text fill="#000000" font-family="Helvetica" font-size="12.6042" lengthAdjust="spacing" textLength="159.263" x="64.3569" y="205.032">POST confirmorder.xhtml</text><text fill="#000000" font-family="Helvetica" font-size="12.6042" lengthAdjust="spacing" textLength="102.2981" x="64.3569" y="219.704">(creditCard, cid)</text></g><g class="message" data-participant-1="fs" data-participant-2="exi"><polygon fill="#333333" points="683.7475,251.0986,695.2058,255.682,683.7475,260.2653,688.3308,255.682" style="stroke:#333333;stroke-width:1.1458;"/><line style="stroke:#333333;stroke-width:1.1458;" x1="306.6296" x2="690.6225" y1="255.682" y2="255.682"/><text fill="#000000" font-family="Helvetica" font-size="12.6042" lengthAdjust="spacing" textLength="93.9035" x="314.6504" y="250.4177">confirmOrder()</text></g><path d="M713.8542,272.8695 L713.8542,308.3903 A2.2917,2.2917 0 0 0 716.1458,310.682 L846.7708,310.682 A2.2917,2.2917 0 0 0 849.0625,308.3903 L849.0625,282.0361 L837.6042,270.5778 L716.1458,270.5778 A2.2917,2.2917 0 0 0 713.8542,272.8695" fill="#FFFBE6" style="stroke:#B59F3B;stroke-width:0.5729;"/><path d="M837.6042,270.5778 L837.6042,280.8903 A1.1458,1.1458 0 0 0 838.75,282.0361 L849.0625,282.0361 L837.6042,270.5778" fill="#FFFBE6" style="stroke:#B59F3B;stroke-width:0.5729;"/><text fill="#000000" font-family="Helvetica" font-size="12.6042" lengthAdjust="spacing" textLength="111.2404" x="720.7292" y="288.0064">@CatchException</text><text fill="#000000" font-family="Helvetica" font-size="12.6042" lengthAdjust="spacing" textLength="100.0271" x="720.7292" y="302.6785">@AroundInvoke</text><g class="message" data-participant-1="exi" data-participant-2="cart"><polygon fill="#333333" points="472.3804,334.0731,460.9221,338.6564,472.3804,343.2397,467.7971,338.6564" style="stroke:#333333;stroke-width:1.1458;"/><line style="stroke:#333333;stroke-width:1.1458;" x1="465.5054" x2="696.3517" y1="338.6564" y2="338.6564"/><text fill="#000000" font-family="Helvetica" font-size="12.6042" lengthAdjust="spacing" textLength="61.1684" x="479.2554" y="333.3922">proceed()</text></g><g class="message" data-participant-1="cart" data-participant-2="acct"><polygon fill="#333333" points="945.9923,375.5603,957.4506,380.1436,945.9923,384.727,950.5756,380.1436" style="stroke:#333333;stroke-width:1.1458;"/><line style="stroke:#333333;stroke-width:1.1458;" x1="459.7763" x2="952.8673" y1="380.1436" y2="380.1436"/><text fill="#000000" font-family="Helvetica" font-size="12.6042" lengthAdjust="spacing" textLength="150.4376" x="467.7971" y="374.8794">loggedInCustomer.get()</text></g><path d="M964.7917,355.8439 L964.7917,391.3647 A2.2917,2.2917 0 0 0 967.0833,393.6564 L1130.9375,393.6564 A2.2917,2.2917 0 0 0 1133.2292,391.3647 L1133.2292,365.0106 L1121.7708,353.5522 L967.0833,353.5522 A2.2917,2.2917 0 0 0 964.7917,355.8439" fill="#FFFBE6" style="stroke:#B59F3B;stroke-width:0.5729;"/><path d="M1121.7708,353.5522 L1121.7708,363.8647 A1.1458,1.1458 0 0 0 1122.9167,365.0106 L1133.2292,365.0106 L1121.7708,353.5522" fill="#FFFBE6" style="stroke:#B59F3B;stroke-width:0.5729;"/><text fill="#000000" font-family="Helvetica" font-size="12.6042" lengthAdjust="spacing" textLength="145.1449" x="971.6667" y="370.9809">@Produces @LoggedIn</text><text fill="#000000" font-family="Helvetica" font-size="12.6042" lengthAdjust="spacing" textLength="61.2238" x="971.6667" y="385.6529">Customer</text><g class="message" data-participant-1="acct" data-participant-2="cart"><polygon fill="#333333" points="472.3804,417.0475,460.9221,421.6309,472.3804,426.2142,467.7971,421.6309" style="stroke:#333333;stroke-width:1.1458;"/><line style="stroke:#333333;stroke-width:1.1458;stroke-dasharray:2.2917,2.2917;" x1="465.5054" x2="958.5964" y1="421.6309" y2="421.6309"/><text fill="#000000" font-family="Helvetica" font-size="12.6042" lengthAdjust="spacing" textLength="92.3095" x="479.2554" y="416.3666">get : customer</text></g><g class="message" data-participant-1="cart" data-participant-2="li"><polygon fill="#333333" points="1095.7395,447.7612,1107.1978,452.3446,1095.7395,456.9279,1100.3228,452.3446" style="stroke:#333333;stroke-width:1.1458;"/><line style="stroke:#333333;stroke-width:1.1458;" x1="459.7763" x2="1102.6145" y1="452.3446" y2="452.3446"/><text fill="#000000" font-family="Helvetica" font-size="12.6042" lengthAdjust="spacing" textLength="287.5941" x="467.7971" y="447.0803">createOrder(customer, creditCard, cartItems)</text></g><g class="message" data-participant-1="li" data-participant-2="li"><line style="stroke:#333333;stroke-width:1.1458;" x1="1120.9478" x2="1169.0728" y1="483.0583" y2="483.0583"/><line style="stroke:#333333;stroke-width:1.1458;" x1="1169.0728" x2="1169.0728" y1="483.0583" y2="497.9541"/><line style="stroke:#333333;stroke-width:1.1458;" x1="1122.0937" x2="1169.0728" y1="497.9541" y2="497.9541"/><polygon fill="#333333" points="1133.552,493.3708,1122.0937,497.9541,1133.552,502.5374,1128.9687,497.9541" style="stroke:#333333;stroke-width:1.1458;"/><text fill="#000000" font-family="Helvetica" font-size="12.6042" lengthAdjust="spacing" textLength="115.1176" x="1128.9687" y="477.794">logger.entering(..)</text></g><g class="message" data-participant-1="li" data-participant-2="os"><polygon fill="#333333" points="1323.7603,524.0845,1335.2187,528.6678,1323.7603,533.2511,1328.3437,528.6678" style="stroke:#333333;stroke-width:1.1458;"/><line style="stroke:#333333;stroke-width:1.1458;" x1="1120.9478" x2="1330.6353" y1="528.6678" y2="528.6678"/><text fill="#000000" font-family="Helvetica" font-size="12.6042" lengthAdjust="spacing" textLength="61.1684" x="1128.9687" y="523.4036">proceed()</text></g><path d="M1279.8958,545.8553 L1279.8958,566.4803 A2.2917,2.2917 0 0 0 1282.1875,568.772 L2020.1042,568.772 A2.2917,2.2917 0 0 0 2022.3958,566.4803 L2022.3958,555.022 L2010.9375,543.5636 L1282.1875,543.5636 A2.2917,2.2917 0 0 0 1279.8958,545.8553" fill="#FFFBE6" style="stroke:#B59F3B;stroke-width:0.5729;"/><path d="M2010.9375,543.5636 L2010.9375,553.8761 A1.1458,1.1458 0 0 0 2012.0833,555.022 L2022.3958,555.022 L2010.9375,543.5636" fill="#FFFBE6" style="stroke:#B59F3B;stroke-width:0.5729;"/><text fill="#000000" font-family="Helvetica" font-size="12.6042" lengthAdjust="spacing" textLength="348.664" x="1471.704" y="560.9923">container-managed JTA transaction (REQUIRED) begins</text><path d="M237.3134,583.444 L307.1488,583.444 L307.1488,590.2832 L295.6905,601.7415 L235.0217,601.7415 L235.0217,585.7357 A2.2917,2.2917 0 0 1 237.3134,583.444" fill="#EEEEEE" style="stroke:#555555;stroke-width:1.7188;"/><rect fill="none" height="1050.4248" rx="2.2917" ry="2.2917" style="stroke:#555555;stroke-width:1.7188;" width="1798.9253" x="235.0217" y="583.444"/><text fill="#000000" font-family="Helvetica" font-size="13.75" font-weight="bold" lengthAdjust="spacing" textLength="20.5646" x="252.2092" y="597.3529">alt</text><text fill="#000000" font-family="Helvetica" font-size="13.75" font-weight="bold" lengthAdjust="spacing" textLength="223.3301" x="324.3363" y="598.4987">[cartItems == null or empty]</text><g class="message" data-participant-1="os" data-participant-2="li"><line style="stroke:#333333;stroke-width:1.1458;" x1="1122.0937" x2="1133.552" y1="626.7261" y2="622.1427"/><line style="stroke:#333333;stroke-width:1.1458;" x1="1122.0937" x2="1133.552" y1="626.7261" y2="631.3094"/><line style="stroke:#333333;stroke-width:1.1458;stroke-dasharray:2.2917,2.2917;" x1="1120.9478" x2="1336.3645" y1="626.7261" y2="626.7261"/><text fill="#000000" font-family="Helvetica" font-size="12.6042" lengthAdjust="spacing" textLength="189.0625" x="1140.427" y="621.4618">proceed : ValidationException</text></g><path d="M1354.375,609.7624 L1354.375,630.3874 A2.2917,2.2917 0 0 0 1356.6667,632.679 L1480.4167,632.679 A2.2917,2.2917 0 0 0 1482.7083,630.3874 L1482.7083,618.929 L1471.25,607.4707 L1356.6667,607.4707 A2.2917,2.2917 0 0 0 1354.375,609.7624" fill="#FFFBE6" style="stroke:#B59F3B;stroke-width:0.5729;"/><path d="M1471.25,607.4707 L1471.25,617.7832 A1.1458,1.1458 0 0 0 1472.3958,618.929 L1482.7083,618.929 L1471.25,607.4707" fill="#FFFBE6" style="stroke:#B59F3B;stroke-width:0.5729;"/><text fill="#000000" font-family="Helvetica" font-size="12.6042" lengthAdjust="spacing" textLength="104.7783" x="1361.25" y="624.8993">exception raised</text><path d="M1293.6458,647.3511 L1293.6458,667.9761 A2.2917,2.2917 0 0 0 1295.9375,670.2677 L1388.75,670.2677 A2.2917,2.2917 0 0 0 1391.0417,667.9761 L1391.0417,656.5177 L1379.5833,645.0594 L1295.9375,645.0594 A2.2917,2.2917 0 0 0 1293.6458,647.3511" fill="#FFFBE6" style="stroke:#B59F3B;stroke-width:0.5729;"/><path d="M1379.5833,645.0594 L1379.5833,655.3719 A1.1458,1.1458 0 0 0 1380.7292,656.5177 L1391.0417,656.5177 L1379.5833,645.0594" fill="#FFFBE6" style="stroke:#B59F3B;stroke-width:0.5729;"/><text fill="#000000" font-family="Helvetica" font-size="12.6042" lengthAdjust="spacing" textLength="73.8956" x="1300.5208" y="662.488">JTA rollback</text><g class="message" data-participant-1="li" data-participant-2="cart"><line style="stroke:#333333;stroke-width:1.1458;" x1="460.9221" x2="472.3804" y1="698.466" y2="693.8826"/><line style="stroke:#333333;stroke-width:1.1458;" x1="460.9221" x2="472.3804" y1="698.466" y2="703.0493"/><line style="stroke:#333333;stroke-width:1.1458;stroke-dasharray:2.2917,2.2917;" x1="459.7763" x2="1108.3437" y1="698.466" y2="698.466"/><text fill="#000000" font-family="Helvetica" font-size="12.6042" lengthAdjust="spacing" textLength="171.1656" x="479.2554" y="693.2018">createOrder : EJBException</text></g><g class="message" data-participant-1="cart" data-participant-2="exi"><line style="stroke:#333333;stroke-width:1.1458;" x1="695.2058" x2="683.7475" y1="729.1797" y2="724.5964"/><line style="stroke:#333333;stroke-width:1.1458;" x1="695.2058" x2="683.7475" y1="729.1797" y2="733.763"/><line style="stroke:#333333;stroke-width:1.1458;stroke-dasharray:2.2917,2.2917;" x1="459.7763" x2="696.3517" y1="729.1797" y2="729.1797"/><text fill="#000000" font-family="Helvetica" font-size="12.6042" lengthAdjust="spacing" textLength="125.6355" x="467.7971" y="723.9155">proceed : exception</text></g><g class="message" data-participant-1="exi" data-participant-2="exi"><line style="stroke:#333333;stroke-width:1.1458;" x1="708.9558" x2="757.0808" y1="759.8934" y2="759.8934"/><line style="stroke:#333333;stroke-width:1.1458;" x1="757.0808" x2="757.0808" y1="759.8934" y2="774.7892"/><line style="stroke:#333333;stroke-width:1.1458;" x1="710.1017" x2="757.0808" y1="774.7892" y2="774.7892"/><polygon fill="#333333" points="721.56,770.2059,710.1017,774.7892,721.56,779.3726,716.9767,774.7892" style="stroke:#333333;stroke-width:1.1458;"/><text fill="#000000" font-family="Helvetica" font-size="12.6042" lengthAdjust="spacing" textLength="217.5573" x="716.9767" y="754.6292">addErrorMessage(e.getMessage())</text></g><g class="message" data-participant-1="exi" data-participant-2="fs"><polygon fill="#333333" points="319.2338,800.9196,307.7754,805.5029,319.2338,810.0863,314.6504,805.5029" style="stroke:#333333;stroke-width:1.1458;"/><line style="stroke:#333333;stroke-width:1.1458;stroke-dasharray:2.2917,2.2917;" x1="312.3588" x2="696.3517" y1="805.5029" y2="805.5029"/><text fill="#000000" font-family="Helvetica" font-size="12.6042" lengthAdjust="spacing" textLength="215.034" x="326.1088" y="800.2387">confirmOrder : null (stay on page)</text></g><line style="stroke:#555555;stroke-width:1.1458;stroke-dasharray:2.2917,2.2917;" x1="235.0217" x2="2033.947" y1="815.8154" y2="815.8154"/><text fill="#000000" font-family="Helvetica" font-size="13.75" font-weight="bold" lengthAdjust="spacing" textLength="123.3002" x="240.7509" y="828.5785">[cart has items]</text><g class="message" data-participant-1="os" data-participant-2="em"><polygon fill="#333333" points="1691.4542,849.9308,1702.9125,854.5142,1691.4542,859.0975,1696.0375,854.5142" style="stroke:#333333;stroke-width:1.1458;"/><line style="stroke:#333333;stroke-width:1.1458;" x1="1348.9687" x2="1698.3292" y1="854.5142" y2="854.5142"/><text fill="#000000" font-family="Helvetica" font-size="12.6042" lengthAdjust="spacing" textLength="187.0623" x="1356.9895" y="849.2499">find(Country.class, countryId)</text></g><g class="message" data-participant-1="em" data-participant-2="os"><polygon fill="#333333" points="1361.5728,880.6445,1350.1145,885.2279,1361.5728,889.8112,1356.9895,885.2279" style="stroke:#333333;stroke-width:1.1458;"/><line style="stroke:#333333;stroke-width:1.1458;stroke-dasharray:2.2917,2.2917;" x1="1354.6978" x2="1704.0584" y1="885.2279" y2="885.2279"/><text fill="#000000" font-family="Helvetica" font-size="12.6042" lengthAdjust="spacing" textLength="84.3888" x="1368.4478" y="879.9636">find : country</text></g><g class="message" data-participant-1="os" data-participant-2="em"><polygon fill="#333333" points="1691.4542,911.3582,1702.9125,915.9416,1691.4542,920.5249,1696.0375,915.9416" style="stroke:#333333;stroke-width:1.1458;"/><line style="stroke:#333333;stroke-width:1.1458;" x1="1348.9687" x2="1698.3292" y1="915.9416" y2="915.9416"/><text fill="#000000" font-family="Helvetica" font-size="12.6042" lengthAdjust="spacing" textLength="110.1572" x="1356.9895" y="910.6773">merge(customer)</text></g><g class="message" data-participant-1="em" data-participant-2="os"><polygon fill="#333333" points="1361.5728,942.0719,1350.1145,946.6553,1361.5728,951.2386,1356.9895,946.6553" style="stroke:#333333;stroke-width:1.1458;"/><line style="stroke:#333333;stroke-width:1.1458;stroke-dasharray:2.2917,2.2917;" x1="1354.6978" x2="1704.0584" y1="946.6553" y2="946.6553"/><text fill="#000000" font-family="Helvetica" font-size="12.6042" lengthAdjust="spacing" textLength="173.9227" x="1368.4478" y="941.391">merge : managedCustomer</text></g><g class="message" data-participant-1="os" data-participant-2="po"><line style="stroke:#333333;stroke-width:1.1458;" x1="1782.2173" x2="1770.759" y1="977.369" y2="972.7856"/><line style="stroke:#333333;stroke-width:1.1458;" x1="1782.2173" x2="1770.759" y1="977.369" y2="981.9523"/><line style="stroke:#333333;stroke-width:1.1458;stroke-dasharray:2.2917,2.2917;" x1="1348.9687" x2="1783.3631" y1="977.369" y2="977.369"/><text fill="#000000" font-family="Helvetica" font-size="12.6042" lengthAdjust="spacing" textLength="407.6537" x="1356.9895" y="972.1047">PurchaseOrder(managedCustomer, creditCard, deliveryAddress)</text></g><rect fill="#F7FAFD" height="48.0534" rx="2.2917" ry="2.2917" style="stroke:#2F5D8A;stroke-width:0.5729;" width="118.3409" x="1784.509" y="955.8219"/><text fill="#000000" font-family="Helvetica" font-size="13.75" lengthAdjust="spacing" textLength="45.9094" x="1820.7247" y="976.6058">order :</text><text fill="#000000" font-family="Helvetica" font-size="13.75" lengthAdjust="spacing" textLength="102.2992" x="1792.5298" y="992.6117">PurchaseOrder</text><path d="M1249.4938,1024.5003 L1332.2131,1024.5003 L1332.2131,1031.3395 L1320.7548,1042.7979 L1247.2021,1042.7979 L1247.2021,1026.792 A2.2917,2.2917 0 0 1 1249.4938,1024.5003" fill="#EEEEEE" style="stroke:#555555;stroke-width:1.7188;"/><rect fill="none" height="125.3345" rx="2.2917" ry="2.2917" style="stroke:#555555;stroke-width:1.7188;" width="527.6876" x="1247.2021" y="1024.5003"/><text fill="#000000" font-family="Helvetica" font-size="13.75" font-weight="bold" lengthAdjust="spacing" textLength="33.4485" x="1264.3896" y="1038.4092">loop</text><text fill="#000000" font-family="Helvetica" font-size="13.75" font-weight="bold" lengthAdjust="spacing" textLength="245.4053" x="1349.4006" y="1039.5551">[for each cartItem in cartItems]</text><g class="message" data-participant-1="os" data-participant-2="em"><polygon fill="#333333" points="1691.4542,1059.7616,1702.9125,1064.3449,1691.4542,1068.9282,1696.0375,1064.3449" style="stroke:#333333;stroke-width:1.1458;"/><line style="stroke:#333333;stroke-width:1.1458;" x1="1348.9687" x2="1698.3292" y1="1064.3449" y2="1064.3449"/><text fill="#000000" font-family="Helvetica" font-size="12.6042" lengthAdjust="spacing" textLength="136.7564" x="1356.9895" y="1059.0807">merge(cartItem.item)</text></g><g class="message" data-participant-1="em" data-participant-2="os"><polygon fill="#333333" points="1361.5728,1090.4753,1350.1145,1095.0586,1361.5728,1099.6419,1356.9895,1095.0586" style="stroke:#333333;stroke-width:1.1458;"/><line style="stroke:#333333;stroke-width:1.1458;stroke-dasharray:2.2917,2.2917;" x1="1354.6978" x2="1704.0584" y1="1095.0586" y2="1095.0586"/><text fill="#000000" font-family="Helvetica" font-size="12.6042" lengthAdjust="spacing" textLength="141.3907" x="1368.4478" y="1089.7944">merge : managedItem</text></g><g class="message" data-participant-1="os" data-participant-2="os"><line style="stroke:#333333;stroke-width:1.1458;" x1="1348.9687" x2="1397.0937" y1="1125.7723" y2="1125.7723"/><line style="stroke:#333333;stroke-width:1.1458;" x1="1397.0937" x2="1397.0937" y1="1125.7723" y2="1140.6681"/><line style="stroke:#333333;stroke-width:1.1458;" x1="1350.1145" x2="1397.0937" y1="1140.6681" y2="1140.6681"/><polygon fill="#333333" points="1361.5728,1136.0848,1350.1145,1140.6681,1361.5728,1145.2515,1356.9895,1140.6681" style="stroke:#333333;stroke-width:1.1458;"/><text fill="#000000" font-family="Helvetica" font-size="12.6042" lengthAdjust="spacing" textLength="323.0064" x="1356.9895" y="1120.5081">orderLines.add(new OrderLine(qty, managedItem))</text></g><g class="message" data-participant-1="os" data-participant-2="po"><polygon fill="#333333" points="1829.9294,1174.8193,1841.3877,1179.4027,1829.9294,1183.986,1834.5127,1179.4027" style="stroke:#333333;stroke-width:1.1458;"/><line style="stroke:#333333;stroke-width:1.1458;" x1="1348.9687" x2="1836.8044" y1="1179.4027" y2="1179.4027"/><text fill="#000000" font-family="Helvetica" font-size="12.6042" lengthAdjust="spacing" textLength="164.6358" x="1356.9895" y="1174.1384">setOrderLines(orderLines)</text></g><g class="message" data-participant-1="os" data-participant-2="em"><polygon fill="#333333" points="1685.725,1205.533,1697.1834,1210.1164,1685.725,1214.6997,1690.3084,1210.1164" style="stroke:#333333;stroke-width:1.1458;"/><line style="stroke:#333333;stroke-width:1.1458;" x1="1348.9687" x2="1692.6" y1="1210.1164" y2="1210.1164"/><text fill="#000000" font-family="Helvetica" font-size="12.6042" lengthAdjust="spacing" textLength="86.1798" x="1356.9895" y="1204.8521">persist(order)</text></g><g class="message" data-participant-1="em" data-participant-2="po"><polygon fill="#333333" points="1829.9294,1239.6842,1841.3877,1244.2676,1829.9294,1248.8509,1834.5127,1244.2676" style="stroke:#333333;stroke-width:1.1458;"/><line style="stroke:#333333;stroke-width:1.1458;" x1="1710.9334" x2="1836.8044" y1="1244.2676" y2="1244.2676"/><text fill="#000000" font-family="Helvetica" font-size="12.6042" lengthAdjust="spacing" textLength="105.246" x="1718.9542" y="1239.0033">setDefaultData()</text></g><path d="M1849.375,1227.3039 L1849.375,1247.9289 A2.2917,2.2917 0 0 0 1851.6667,1250.2205 L1945.625,1250.2205 A2.2917,2.2917 0 0 0 1947.9167,1247.9289 L1947.9167,1236.4705 L1936.4583,1225.0122 L1851.6667,1225.0122 A2.2917,2.2917 0 0 0 1849.375,1227.3039" fill="#FFFBE6" style="stroke:#B59F3B;stroke-width:0.5729;"/><path d="M1936.4583,1225.0122 L1936.4583,1235.3247 A1.1458,1.1458 0 0 0 1937.6042,1236.4705 L1947.9167,1236.4705 L1936.4583,1225.0122" fill="#FFFBE6" style="stroke:#B59F3B;stroke-width:0.5729;"/><text fill="#000000" font-family="Helvetica" font-size="12.6042" lengthAdjust="spacing" textLength="75.2557" x="1856.25" y="1242.4408">@PrePersist</text><g class="message" data-participant-1="em" data-participant-2="db"><polygon fill="#333333" points="1947.4226,1288.5075,1958.881,1293.0908,1947.4226,1297.6742,1952.006,1293.0908" style="stroke:#333333;stroke-width:1.1458;"/><line style="stroke:#333333;stroke-width:1.1458;" x1="1705.2042" x2="1954.2976" y1="1293.0908" y2="1293.0908"/><text fill="#000000" font-family="Helvetica" font-size="12.6042" lengthAdjust="spacing" textLength="222.7393" x="1713.225" y="1273.1546">INSERT purchase_order, order_line,</text><text fill="#000000" font-family="Helvetica" font-size="12.6042" lengthAdjust="spacing" textLength="114.256" x="1713.225" y="1287.8266">t_order_order_line</text></g><path d="M1279.8958,1310.2783 L1279.8958,1330.9033 A2.2917,2.2917 0 0 0 1282.1875,1333.195 L2020.1042,1333.195 A2.2917,2.2917 0 0 0 2022.3958,1330.9033 L2022.3958,1319.445 L2010.9375,1307.9867 L1282.1875,1307.9867 A2.2917,2.2917 0 0 0 1279.8958,1310.2783" fill="#FFFBE6" style="stroke:#B59F3B;stroke-width:0.5729;"/><path d="M2010.9375,1307.9867 L2010.9375,1318.2992 A1.1458,1.1458 0 0 0 2012.0833,1319.445 L2022.3958,1319.445 L2010.9375,1307.9867" fill="#FFFBE6" style="stroke:#B59F3B;stroke-width:0.5729;"/><text fill="#000000" font-family="Helvetica" font-size="12.6042" lengthAdjust="spacing" textLength="187.1177" x="1552.4772" y="1325.4153">JTA commit on method return</text><g class="message" data-participant-1="os" data-participant-2="li"><polygon fill="#333333" points="1133.552,1356.8099,1122.0937,1361.3932,1133.552,1365.9766,1128.9687,1361.3932" style="stroke:#333333;stroke-width:1.1458;"/><line style="stroke:#333333;stroke-width:1.1458;stroke-dasharray:2.2917,2.2917;" x1="1126.677" x2="1342.0937" y1="1361.3932" y2="1361.3932"/><text fill="#000000" font-family="Helvetica" font-size="12.6042" lengthAdjust="spacing" textLength="97.4238" x="1140.427" y="1356.129">proceed : order</text></g><g class="message" data-participant-1="li" data-participant-2="li"><line style="stroke:#333333;stroke-width:1.1458;" x1="1120.9478" x2="1169.0728" y1="1392.1069" y2="1392.1069"/><line style="stroke:#333333;stroke-width:1.1458;" x1="1169.0728" x2="1169.0728" y1="1392.1069" y2="1407.0028"/><line style="stroke:#333333;stroke-width:1.1458;" x1="1122.0937" x2="1169.0728" y1="1407.0028" y2="1407.0028"/><polygon fill="#333333" points="1133.552,1402.4194,1122.0937,1407.0028,1133.552,1411.5861,1128.9687,1407.0028" style="stroke:#333333;stroke-width:1.1458;"/><text fill="#000000" font-family="Helvetica" font-size="12.6042" lengthAdjust="spacing" textLength="105.1537" x="1128.9687" y="1386.8427">logger.exiting(..)</text></g><g class="message" data-participant-1="li" data-participant-2="cart"><polygon fill="#333333" points="472.3804,1433.1331,460.9221,1437.7165,472.3804,1442.2998,467.7971,1437.7165" style="stroke:#333333;stroke-width:1.1458;"/><line style="stroke:#333333;stroke-width:1.1458;stroke-dasharray:2.2917,2.2917;" x1="465.5054" x2="1114.0728" y1="1437.7165" y2="1437.7165"/><text fill="#000000" font-family="Helvetica" font-size="12.6042" lengthAdjust="spacing" textLength="122.4167" x="479.2554" y="1432.4522">createOrder : order</text></g><g class="message" data-participant-1="cart" data-participant-2="cart"><line style="stroke:#333333;stroke-width:1.1458;" x1="459.7763" x2="507.9013" y1="1468.4302" y2="1468.4302"/><line style="stroke:#333333;stroke-width:1.1458;" x1="507.9013" x2="507.9013" y1="1468.4302" y2="1483.326"/><line style="stroke:#333333;stroke-width:1.1458;" x1="460.9221" x2="507.9013" y1="1483.326" y2="1483.326"/><polygon fill="#333333" points="472.3804,1478.7427,460.9221,1483.326,472.3804,1487.9093,467.7971,1483.326" style="stroke:#333333;stroke-width:1.1458;"/><text fill="#000000" font-family="Helvetica" font-size="12.6042" lengthAdjust="spacing" textLength="104.9691" x="467.7971" y="1463.1659">cartItems.clear()</text></g><path d="M357.6125,1500.5135 L432.7451,1500.5135 L432.7451,1507.3527 L421.2868,1518.811 L355.3208,1518.811 L355.3208,1502.8052 A2.2917,2.2917 0 0 1 357.6125,1500.5135" fill="#EEEEEE" style="stroke:#555555;stroke-width:1.7188;"/><rect fill="none" height="63.9071" rx="2.2917" ry="2.2917" style="stroke:#555555;stroke-width:1.7188;" width="324.1209" x="355.3208" y="1500.5135"/><text fill="#000000" font-family="Helvetica" font-size="13.75" font-weight="bold" lengthAdjust="spacing" textLength="25.8618" x="372.5083" y="1514.4224">opt</text><text fill="#000000" font-family="Helvetica" font-size="13.75" font-weight="bold" lengthAdjust="spacing" textLength="223.7799" x="449.9326" y="1515.5682">[!conversation.isTransient()]</text><g class="message" data-participant-1="cart" data-participant-2="cart"><line style="stroke:#333333;stroke-width:1.1458;" x1="459.7763" x2="507.9013" y1="1540.3581" y2="1540.3581"/><line style="stroke:#333333;stroke-width:1.1458;" x1="507.9013" x2="507.9013" y1="1540.3581" y2="1555.2539"/><line style="stroke:#333333;stroke-width:1.1458;" x1="460.9221" x2="507.9013" y1="1555.2539" y2="1555.2539"/><polygon fill="#333333" points="472.3804,1550.6706,460.9221,1555.2539,472.3804,1559.8372,467.7971,1555.2539" style="stroke:#333333;stroke-width:1.1458;"/><text fill="#000000" font-family="Helvetica" font-size="12.6042" lengthAdjust="spacing" textLength="119.0441" x="467.7971" y="1535.0938">conversation.end()</text></g><g class="message" data-participant-1="cart" data-participant-2="exi"><polygon fill="#333333" points="683.7475,1589.4051,695.2058,1593.9884,683.7475,1598.5718,688.3308,1593.9884" style="stroke:#333333;stroke-width:1.1458;"/><line style="stroke:#333333;stroke-width:1.1458;stroke-dasharray:2.2917,2.2917;" x1="454.0471" x2="690.6225" y1="1593.9884" y2="1593.9884"/><text fill="#000000" font-family="Helvetica" font-size="12.6042" lengthAdjust="spacing" textLength="210.2213" x="462.0679" y="1588.7242">proceed : "orderconfirmed.faces"</text></g><g class="message" data-participant-1="exi" data-participant-2="fs"><polygon fill="#333333" points="319.2338,1620.1188,307.7754,1624.7021,319.2338,1629.2855,314.6504,1624.7021" style="stroke:#333333;stroke-width:1.1458;"/><line style="stroke:#333333;stroke-width:1.1458;stroke-dasharray:2.2917,2.2917;" x1="312.3588" x2="702.0808" y1="1624.7021" y2="1624.7021"/><text fill="#000000" font-family="Helvetica" font-size="12.6042" lengthAdjust="spacing" textLength="242.9564" x="326.1088" y="1619.4379">confirmOrder : "orderconfirmed.faces"</text></g><g class="message" data-participant-1="fs" data-participant-2="user"><polygon fill="#333333" points="68.9402,1658.8534,57.4819,1663.4367,68.9402,1668.02,64.3569,1663.4367" style="stroke:#333333;stroke-width:1.1458;"/><line style="stroke:#333333;stroke-width:1.1458;stroke-dasharray:2.2917,2.2917;" x1="62.0652" x2="299.7546" y1="1663.4367" y2="1663.4367"/><text fill="#000000" font-family="Helvetica" font-size="12.6042" lengthAdjust="spacing" textLength="211.3352" x="75.8152" y="1658.1725">POST : 200 orderconfirmed.xhtml</text></g><!--SRC=[ZLPHRziu37xth-3wCgT8tU4UWwversP0YkwMQxfxAb2e4fC8bILFahlctnyfsx7ZzdRtb4ZyH7xYHrB-21VFsgePhF1dZLPYzX4kGbsMmkzcSENiMliId5VeGKZlGe2RrTSfN5qlGDk8Nc8LdGzJcDzycSBD_IK8g-1cUGc_TDo2CF7KE5UTkYh2sejDYJQ68lkWhJIrGYYAqySGTmOBNPScAuMs12iHZe-3EZxkA7nd1bdKqU2UAbnhiI4id8o8vklQ60XHoESPquMJyqIOVeWb_n2_IPO9ITJXQ7PLX-XAz4SW0jI10bN2Horr9Mma-rSXCQpGlnYC2RCEXmX92vWzsDNMLPMscojQVq5X4pWPpyw8uWlw8A9sTYLTXUhyV1Hd_ihP9FkYpsnoWQ-QF0nsnqU5b8d0fPIkjdtij7zsji8G_ZtihTjiYFGugFcFc2dNgnV9SPUrbriHCCd4cT8IanCNE7mK4Grn6Bl0aW_FBUcw-oQisBGQOFbEg3Tn4hHoXr3rb70OILAFony9f9woZ7LbwTS1Ph3ylhe7sHHDSbwyRcDf7cmkFIeTIK0r1QdLX8j4ln1_5ftEaWTMOzQTJapo0OoicNNqn-lDDe9RyyuCBgv4bDkzmW_sujAJL6fXNzmpPkoJN3U519Lt4b4DtR8bIsQ2DNA38U6GF7JrMsmmqfa-EeLTUgTgAb-uk6tH3tjybloSz77fFD-iCtVXJBglH-BHNBT3JE4WNGHVH2p3WBRHcT5x7ucmBv2BYYekBuf9QtRX_Mkxq5p7KU_GOafIfjH7cXFeJyfKD2hDdUY53NpGMSZlvd_zMDpDhoVmX5JSWPhTn9uXVFuCbeS4zJ-MLTnbm1Ge5ItJbWhz-riOhLBNxiKZy337sEs35pgWwimjvrbYvvqnJpIGoCWtva1jqWU9fHKDg66SHW96DrNNyy81ggsU1YAKcdll_3TgE4fEZbmMtM8owU1TAmphc9OfApdDpXtGXIewCydGXAO0WNeFD2UmpHV5f1Q6DJqX-HLF7hyhf161X9BDSg5In385J2epECLDzaD7L5D4iYklySbavTz6zNqPGvj37WQzZfNZHXyEZ7nqyB1y5HfDYkqkbVAKBGxEBnUikKQ4tEwhXnw-lf88zTuDMdF1oPeap6ykmiY1dmH9K-cMYZmK96XkyHTyxxRodt4t7HvkLBLgdynqzu1nVoJalSF9OSuhUfLqY0s0RVqeAri1UeVNk1QrYTSYYdmowWEQDRXidEtFyJY6nP-h-TqzLAqMZodIjBdYeo5AqmSRczt7VfDyA3paydOKS6j9LvOwShcM6BTEWSTOUxilXN57fn27tbre-t8qg5vrxEPKrxVlj-qxFcdqTVtR7-hAXhe4XKyfv2-Z3tBmTL3eSC-pJDESp9lY6RiPeadtlDU_6nXlvaNpYBRTZgfOyqVDqI7bzCZyVZxy7pVy13ARTPF-zFAsR-uC_lZq2KO-qjkR3Hoimpy0]--></g></svg>