<svg xmlns="http://www.w3.org/2000/svg" xmlns:xlink="http://www.w3.org/1999/xlink" contentStyleType="text/css" data-diagram-type="SEQUENCE" height="1129.7917px" preserveAspectRatio="none" style="width:1262px;height:1129px;background:#FFFFFF;" version="1.1" viewBox="0 0 1262 1129" width="1262.7083px" zoomAndPan="magnify"><title>Sequence Diagram - Admin CRUD with conversation-scoped extended persistence context</title><defs/><g><text fill="#000000" font-family="Helvetica" font-size="17.1875" font-weight="bold" lengthAdjust="spacing" textLength="873.7175" x="178.4842" y="33.1413">Sequence Diagram - Admin CRUD with conversation-scoped extended persistence context</text><rect fill="#FFFFFF" height="1062.5098" rx="2.2917" ry="2.2917" style="stroke:#181818;stroke-width:1.7188;" width="1250.1652" x="5.7292" y="61.2573"/><path d="M212.5778,61.2573 L212.5778,71.91 L201.1195,83.3683 L5.7292,83.3683" fill="none" style="stroke:#181818;stroke-width:1.7188;"/><text fill="#000000" font-family="Helvetica" font-size="16.0417" font-weight="bold" lengthAdjust="spacing" textLength="21.0312" x="9.1667" y="77.2934">sd</text><text fill="#000000" font-family="Helvetica" font-size="16.0417" lengthAdjust="spacing" textLength="169.2599" x="35.297" y="77.2934">AdminSearchAndEdit</text><rect fill="none" height="79.7249" rx="2.2917" ry="2.2917" style="stroke:#555555;stroke-width:1.7188;" width="392.7025" x="477.9104" y="548.3708"/><rect fill="none" height="82.0166" rx="2.2917" ry="2.2917" style="stroke:#555555;stroke-width:1.7188;" width="635.4681" x="477.9104" y="828.4196"/><g><title>.Administrator</title><rect fill="#000000" fill-opacity="0.00000" height="844.7656" width="9.1667" x="65.345" y="177.2909"/><line style="stroke:#7A7A7A;stroke-width:0.5729;stroke-dasharray:5.7292,5.7292;" x1="69.8958" x2="69.8958" y1="177.2909" y2="1022.0565"/></g><g><title>.FacesServlet</title><rect fill="#000000" fill-opacity="0.00000" height="844.7656" width="9.1667" x="308.2913" y="177.2909"/><line style="stroke:#7A7A7A;stroke-width:0.5729;stroke-dasharray:5.7292,5.7292;" x1="312.3084" x2="312.3084" y1="177.2909" y2="1022.0565"/></g><g><title>..Stateful. ConversationScoped..</title><rect fill="#000000" fill-opacity="0.00000" height="844.7656" width="9.1667" x="603.3098" y="177.2909"/><line style="stroke:#7A7A7A;stroke-width:0.5729;stroke-dasharray:5.7292,5.7292;" x1="607.3896" x2="607.3896" y1="177.2909" y2="1022.0565"/></g><g><title>.Conversation</title><rect fill="#000000" fill-opacity="0.00000" height="844.7656" width="9.1667" x="798.7812" y="177.2909"/><line style="stroke:#7A7A7A;stroke-width:0.5729;stroke-dasharray:5.7292,5.7292;" x1="802.5746" x2="802.5746" y1="177.2909" y2="1022.0565"/></g><g><title>em .</title><rect fill="#000000" fill-opacity="0.00000" height="844.7656" width="9.1667" x="1039.1097" y="177.2909"/><line style="stroke:#7A7A7A;stroke-width:0.5729;stroke-dasharray:5.7292,5.7292;" x1="1042.7576" x2="1042.7576" y1="177.2909" y2="1022.0565"/></g><g><title>db .</title><rect fill="#000000" fill-opacity="0.00000" height="844.7656" width="9.1667" x="1187.1678" y="177.2909"/><line style="stroke:#7A7A7A;stroke-width:0.5729;stroke-dasharray:5.7292,5.7292;" x1="1190.6288" x2="1190.6288" y1="177.2909" y2="1022.0565"/></g><g class="participant participant-head" data-participant="a"><text fill="#000000" font-family="Helvetica" font-size="13.75" lengthAdjust="spacing" textLength="98.6066" x="17.1875" y="174.0481">:Administrator</text><ellipse cx="69.9283" cy="102.2746" fill="#E2E2F0" rx="9.1667" ry="9.1667" style="stroke:#2F5D8A;stroke-width:0.5729;"/><path d="M69.9283,111.4412 L69.9283,142.3787 M55.0325,120.6079 L84.8241,120.6079 M69.9283,142.3787 L55.0325,159.5662 M69.9283,142.3787 L84.8241,159.5662" fill="none" style="stroke:#2F5D8A;stroke-width:0.5729;"/></g><g class="participant participant-tail" data-participant="a"><text fill="#000000" font-family="Helvetica" font-size="13.75" lengthAdjust="spacing" textLength="98.6066" x="17.1875" y="1033.6737">:Administrator</text><ellipse cx="69.9283" cy="1046.6561" fill="#E2E2F0" rx="9.1667" ry="9.1667" style="stroke:#2F5D8A;stroke-width:0.5729;"/><path d="M69.9283,1055.8228 L69.9283,1086.7603 M55.0325,1064.9894 L84.8241,1064.9894 M69.9283,1086.7603 L55.0325,1103.9478 M69.9283,1086.7603 L84.8241,1103.9478" fill="none" style="stroke:#2F5D8A;stroke-width:0.5729;"/></g><g class="participant participant-head" data-participant="fs"><rect fill="#F7FAFD" height="32.0475" rx="2.2917" ry="2.2917" style="stroke:#2F5D8A;stroke-width:0.5729;" width="108.8407" x="258.4542" y="144.0975"/><text fill="#000000" font-family="Helvetica" font-size="13.75" lengthAdjust="spacing" textLength="92.7991" x="266.4751" y="164.8814">:FacesServlet</text></g><g class="participant participant-tail" data-participant="fs"><rect fill="#F7FAFD" height="32.0475" rx="2.2917" ry="2.2917" style="stroke:#2F5D8A;stroke-width:0.5729;" width="108.8407" x="258.4542" y="1020.9106"/><text fill="#000000" font-family="Helvetica" font-size="13.75" lengthAdjust="spacing" textLength="92.7991" x="266.4751" y="1041.6945">:FacesServlet</text></g><g class="participant participant-head" data-participant="b"><rect fill="#F7FAFD" height="64.0592" rx="2.2917" ry="2.2917" style="stroke:#2F5D8A;stroke-width:0.5729;" width="237.0487" x="489.3687" y="112.0858"/><text fill="#000000" font-family="Helvetica" font-size="13.75" font-style="italic" lengthAdjust="spacing" textLength="221.0071" x="497.3896" y="132.8697">&#171;Stateful, ConversationScoped&#187;</text><text fill="#000000" font-family="Helvetica" font-size="13.75" lengthAdjust="spacing" textLength="43.3313" x="586.2275" y="148.8755">bean :</text><text fill="#000000" font-family="Helvetica" font-size="13.75" lengthAdjust="spacing" textLength="97.8412" x="558.9725" y="164.8814">CategoryBean</text></g><g class="participant participant-tail" data-participant="b"><rect fill="#F7FAFD" height="64.0592" rx="2.2917" ry="2.2917" style="stroke:#2F5D8A;stroke-width:0.5729;" width="237.0487" x="489.3687" y="1020.9106"/><text fill="#000000" font-family="Helvetica" font-size="13.75" font-style="italic" lengthAdjust="spacing" textLength="221.0071" x="497.3896" y="1041.6945">&#171;Stateful, ConversationScoped&#187;</text><text fill="#000000" font-family="Helvetica" font-size="13.75" lengthAdjust="spacing" textLength="43.3313" x="586.2275" y="1057.7004">bean :</text><text fill="#000000" font-family="Helvetica" font-size="13.75" lengthAdjust="spacing" textLength="97.8412" x="558.9725" y="1073.7063">CategoryBean</text></g><g class="participant participant-head" data-participant="conv"><rect fill="#F7FAFD" height="32.0475" rx="2.2917" ry="2.2917" style="stroke:#2F5D8A;stroke-width:0.5729;" width="111.58" x="747.5746" y="144.0975"/><text fill="#000000" font-family="Helvetica" font-size="13.75" lengthAdjust="spacing" textLength="95.5383" x="755.5954" y="164.8814">:Conversation</text></g><g class="participant participant-tail" data-participant="conv"><rect fill="#F7FAFD" height="32.0475" rx="2.2917" ry="2.2917" style="stroke:#2F5D8A;stroke-width:0.5729;" width="111.58" x="747.5746" y="1020.9106"/><text fill="#000000" font-family="Helvetica" font-size="13.75" lengthAdjust="spacing" textLength="95.5383" x="755.5954" y="1041.6945">:Conversation</text></g><g class="participant participant-head" data-participant="em"><rect fill="#F7FAFD" height="48.0534" rx="2.2917" ry="2.2917" style="stroke:#2F5D8A;stroke-width:0.5729;" width="116.4543" x="985.4659" y="128.0916"/><text fill="#000000" font-family="Helvetica" font-size="13.75" lengthAdjust="spacing" textLength="30.8569" x="1028.2646" y="148.8755">em :</text><text fill="#000000" font-family="Helvetica" font-size="13.75" lengthAdjust="spacing" textLength="100.4126" x="993.4867" y="164.8814">EntityManager</text></g><g class="participant participant-tail" data-participant="em"><rect fill="#F7FAFD" height="48.0534" rx="2.2917" ry="2.2917" style="stroke:#2F5D8A;stroke-width:0.5729;" width="116.4543" x="985.4659" y="1020.9106"/><text fill="#000000" font-family="Helvetica" font-size="13.75" lengthAdjust="spacing" textLength="30.8569" x="1028.2646" y="1041.6945">em :</text><text fill="#000000" font-family="Helvetica" font-size="13.75" lengthAdjust="spacing" textLength="100.4126" x="993.4867" y="1057.7004">EntityManager</text></g><g class="participant participant-head" data-participant="db"><rect fill="#F7FAFD" height="48.0534" rx="2.2917" ry="2.2917" style="stroke:#2F5D8A;stroke-width:0.5729;" width="91.6197" x="1145.9413" y="128.0916"/><text fill="#000000" font-family="Helvetica" font-size="13.75" lengthAdjust="spacing" textLength="26.4594" x="1178.5215" y="148.8755">db :</text><text fill="#000000" font-family="Helvetica" font-size="13.75" lengthAdjust="spacing" textLength="75.578" x="1153.9621" y="164.8814">PetstorePU</text></g><g class="participant participant-tail" data-participant="db"><rect fill="#F7FAFD" height="48.0534" rx="2.2917" ry="2.2917" style="stroke:#2F5D8A;stroke-width:0.5729;" width="91.6197" x="1145.9413" y="1020.9106"/><text fill="#000000" font-family="Helvetica" font-size="13.75" lengthAdjust="spacing" textLength="26.4594" x="1178.5215" y="1041.6945">db :</text><text fill="#000000" font-family="Helvetica" font-size="13.75" lengthAdjust="spacing" textLength="75.578" x="1153.9621" y="1057.7004">PetstorePU</text></g><path d="M937.2917,196.77 L937.2917,217.395 A2.2917,2.2917 0 0 0 939.5833,219.6867 L1146.9792,219.6867 A2.2917,2.2917 0 0 0 1149.2708,217.395 L1149.2708,205.9367 L1137.8125,194.4784 L939.5833,194.4784 A2.2917,2.2917 0 0 0 937.2917,196.77" fill="#FFFBE6" style="stroke:#B59F3B;stroke-width:0.5729;"/><path d="M1137.8125,194.4784 L1137.8125,204.7909 A1.1458,1.1458 0 0 0 1138.9583,205.9367 L1149.2708,205.9367 L1137.8125,194.4784" fill="#FFFBE6" style="stroke:#B59F3B;stroke-width:0.5729;"/><text fill="#000000" font-family="Helvetica" font-size="12.6042" lengthAdjust="spacing" textLength="188.3363" x="944.1667" y="211.907">extended persistence context</text><g class="message" data-participant-1="a" data-participant-2="fs"><polygon fill="#333333" points="299.1246,243.3016,310.5829,247.8849,299.1246,252.4683,303.7079,247.8849" style="stroke:#333333;stroke-width:1.1458;"/><line style="stroke:#333333;stroke-width:1.1458;" x1="69.9283" x2="305.9996" y1="247.8849" y2="247.8849"/><text fill="#000000" font-family="Helvetica" font-size="12.6042" lengthAdjust="spacing" textLength="215.4463" x="77.9491" y="242.6207">GET admin/category/search.xhtml</text></g><g class="message" data-participant-1="fs" data-participant-2="b"><polygon fill="#333333" points="594.1431,277.4528,605.6015,282.0361,594.1431,286.6195,598.7265,282.0361" style="stroke:#333333;stroke-width:1.1458;"/><line style="stroke:#333333;stroke-width:1.1458;" x1="312.8746" x2="601.0181" y1="282.0361" y2="282.0361"/><text fill="#000000" font-family="Helvetica" font-size="12.6042" lengthAdjust="spacing" textLength="65.4703" x="320.8954" y="276.7719">paginate()</text></g><path d="M613.0208,265.0724 L613.0208,285.6974 A2.2917,2.2917 0 0 0 615.3125,287.9891 L779.1667,287.9891 A2.2917,2.2917 0 0 0 781.4583,285.6974 L781.4583,274.2391 L770,262.7808 L615.3125,262.7808 A2.2917,2.2917 0 0 0 613.0208,265.0724" fill="#FFFBE6" style="stroke:#B59F3B;stroke-width:0.5729;"/><path d="M770,262.7808 L770,273.0933 A1.1458,1.1458 0 0 0 771.1458,274.2391 L781.4583,274.2391 L770,262.7808" fill="#FFFBE6" style="stroke:#B59F3B;stroke-width:0.5729;"/><text fill="#000000" font-family="Helvetica" font-size="12.6042" lengthAdjust="spacing" textLength="145.151" x="619.8958" y="280.2094">f:event preRenderView</text><g class="message" data-participant-1="b" data-participant-2="em"><polygon fill="#333333" points="1029.943,311.604,1041.4014,316.1873,1029.943,320.7707,1034.5264,316.1873" style="stroke:#333333;stroke-width:1.1458;"/><line style="stroke:#333333;stroke-width:1.1458;" x1="607.8931" x2="1036.818" y1="316.1873" y2="316.1873"/><text fill="#000000" font-family="Helvetica" font-size="12.6042" lengthAdjust="spacing" textLength="249.7016" x="615.914" y="310.9231">count(criteria with example predicates)</text></g><g class="message" data-participant-1="em" data-participant-2="db"><polygon fill="#333333" points="1178.0011,342.3177,1189.4595,346.901,1178.0011,351.4844,1182.5845,346.901" style="stroke:#333333;stroke-width:1.1458;"/><line style="stroke:#333333;stroke-width:1.1458;" x1="1043.693" x2="1184.8761" y1="346.901" y2="346.901"/><text fill="#000000" font-family="Helvetica" font-size="12.6042" lengthAdjust="spacing" textLength="112.6682" x="1051.7139" y="341.6368">SELECT COUNT(*)</text></g><g class="message" data-participant-1="b" data-participant-2="em"><polygon fill="#333333" points="1029.943,373.0314,1041.4014,377.6147,1029.943,382.1981,1034.5264,377.6147" style="stroke:#333333;stroke-width:1.1458;"/><line style="stroke:#333333;stroke-width:1.1458;" x1="607.8931" x2="1036.818" y1="377.6147" y2="377.6147"/><text fill="#000000" font-family="Helvetica" font-size="12.6042" lengthAdjust="spacing" textLength="408.2999" x="615.914" y="372.3505">createQuery(criteria).setFirstResult(page*10).setMaxResults(10)</text></g><g class="message" data-participant-1="em" data-participant-2="db"><polygon fill="#333333" points="1178.0011,403.7451,1189.4595,408.3285,1178.0011,412.9118,1182.5845,408.3285" style="stroke:#333333;stroke-width:1.1458;"/><line style="stroke:#333333;stroke-width:1.1458;" x1="1043.693" x2="1184.8761" y1="408.3285" y2="408.3285"/><text fill="#000000" font-family="Helvetica" font-size="12.6042" lengthAdjust="spacing" textLength="120.5581" x="1051.7139" y="403.0642">SELECT ... LIMIT 10</text></g><g class="message" data-participant-1="b" data-participant-2="fs"><polygon fill="#333333" points="325.4788,434.4588,314.0204,439.0422,325.4788,443.6255,320.8954,439.0422" style="stroke:#333333;stroke-width:1.1458;"/><line style="stroke:#333333;stroke-width:1.1458;stroke-dasharray:2.2917,2.2917;" x1="318.6038" x2="606.7473" y1="439.0422" y2="439.0422"/><text fill="#000000" font-family="Helvetica" font-size="12.6042" lengthAdjust="spacing" textLength="178.2062" x="332.3538" y="433.7779">paginate : pageItems, count</text></g><g class="message" data-participant-1="fs" data-participant-2="a"><polygon fill="#333333" points="82.5325,465.1725,71.0741,469.7559,82.5325,474.3392,77.9491,469.7559" style="stroke:#333333;stroke-width:1.1458;"/><line style="stroke:#333333;stroke-width:1.1458;stroke-dasharray:2.2917,2.2917;" x1="75.6575" x2="311.7288" y1="469.7559" y2="469.7559"/><text fill="#000000" font-family="Helvetica" font-size="12.6042" lengthAdjust="spacing" textLength="177.0061" x="89.4075" y="464.4916">GET : table (10 rows / page)</text></g><g class="message" data-participant-1="a" data-participant-2="fs"><polygon fill="#333333" points="299.1246,495.8862,310.5829,500.4696,299.1246,505.0529,303.7079,500.4696" style="stroke:#333333;stroke-width:1.1458;"/><line style="stroke:#333333;stroke-width:1.1458;" x1="69.9283" x2="305.9996" y1="500.4696" y2="500.4696"/><text fill="#000000" font-family="Helvetica" font-size="12.6042" lengthAdjust="spacing" textLength="159.4661" x="77.9491" y="495.2053">GET view.xhtml?id=1001</text></g><g class="message" data-participant-1="fs" data-participant-2="b"><polygon fill="#333333" points="594.1431,526.5999,605.6015,531.1833,594.1431,535.7666,598.7265,531.1833" style="stroke:#333333;stroke-width:1.1458;"/><line style="stroke:#333333;stroke-width:1.1458;" x1="312.8746" x2="601.0181" y1="531.1833" y2="531.1833"/><text fill="#000000" font-family="Helvetica" font-size="12.6042" lengthAdjust="spacing" textLength="59.3651" x="320.8954" y="525.919">retrieve()</text></g><path d="M480.2021,548.3708 L550.0375,548.3708 L550.0375,555.21 L538.5792,566.6683 L477.9104,566.6683 L477.9104,550.6624 A2.2917,2.2917 0 0 1 480.2021,548.3708" fill="#EEEEEE" style="stroke:#555555;stroke-width:1.7188;"/><rect fill="none" height="79.7249" rx="2.2917" ry="2.2917" style="stroke:#555555;stroke-width:1.7188;" width="392.7025" x="477.9104" y="548.3708"/><text fill="#000000" font-family="Helvetica" font-size="13.75" font-weight="bold" lengthAdjust="spacing" textLength="20.5646" x="495.0979" y="562.2797">alt</text><text fill="#000000" font-family="Helvetica" font-size="13.75" font-weight="bold" lengthAdjust="spacing" textLength="217.5092" x="567.225" y="563.4255">[conversation.isTransient()]</text><g class="message" data-participant-1="b" data-participant-2="conv"><polygon fill="#333333" points="789.6146,583.632,801.0729,588.2153,789.6146,592.7987,794.1979,588.2153" style="stroke:#333333;stroke-width:1.1458;"/><line style="stroke:#333333;stroke-width:1.1458;" x1="607.8931" x2="796.4896" y1="588.2153" y2="588.2153"/><text fill="#000000" font-family="Helvetica" font-size="12.6042" lengthAdjust="spacing" textLength="45.0808" x="615.914" y="582.9511">begin()</text></g><g class="message" data-participant-1="b" data-participant-2="conv"><polygon fill="#333333" points="789.6146,614.3457,801.0729,618.929,789.6146,623.5124,794.1979,618.929" style="stroke:#333333;stroke-width:1.1458;"/><line style="stroke:#333333;stroke-width:1.1458;" x1="607.8931" x2="796.4896" y1="618.929" y2="618.929"/><text fill="#000000" font-family="Helvetica" font-size="12.6042" lengthAdjust="spacing" textLength="167.9714" x="615.914" y="613.6648">setTimeout(1 800 000 ms)</text></g><g class="message" data-participant-1="b" data-participant-2="em"><polygon fill="#333333" points="1029.943,653.0802,1041.4014,657.6636,1029.943,662.2469,1034.5264,657.6636" style="stroke:#333333;stroke-width:1.1458;"/><line style="stroke:#333333;stroke-width:1.1458;" x1="607.8931" x2="1036.818" y1="657.6636" y2="657.6636"/><text fill="#000000" font-family="Helvetica" font-size="12.6042" lengthAdjust="spacing" textLength="110.8527" x="615.914" y="652.3993">find(Category, id)</text></g><g class="message" data-participant-1="em" data-participant-2="b"><polygon fill="#333333" points="620.4973,683.7939,609.039,688.3773,620.4973,692.9606,615.914,688.3773" style="stroke:#333333;stroke-width:1.1458;"/><line style="stroke:#333333;stroke-width:1.1458;stroke-dasharray:2.2917,2.2917;" x1="613.6223" x2="1042.5472" y1="688.3773" y2="688.3773"/><text fill="#000000" font-family="Helvetica" font-size="12.6042" lengthAdjust="spacing" textLength="268.6509" x="627.3723" y="683.113">find : category (managed across requests)</text></g><g class="message" data-participant-1="fs" data-participant-2="a"><polygon fill="#333333" points="82.5325,714.5076,71.0741,719.091,82.5325,723.6743,77.9491,719.091" style="stroke:#333333;stroke-width:1.1458;"/><line style="stroke:#333333;stroke-width:1.1458;stroke-dasharray:2.2917,2.2917;" x1="75.6575" x2="311.7288" y1="719.091" y2="719.091"/><text fill="#000000" font-family="Helvetica" font-size="12.6042" lengthAdjust="spacing" textLength="102.1996" x="89.4075" y="713.8268">GET : view page</text></g><g class="message" data-participant-1="a" data-participant-2="fs"><polygon fill="#333333" points="299.1246,745.2214,310.5829,749.8047,299.1246,754.388,303.7079,749.8047" style="stroke:#333333;stroke-width:1.1458;"/><line style="stroke:#333333;stroke-width:1.1458;" x1="69.9283" x2="305.9996" y1="749.8047" y2="749.8047"/><text fill="#000000" font-family="Helvetica" font-size="12.6042" lengthAdjust="spacing" textLength="138.7935" x="77.9491" y="744.5405">POST edit -&gt; update()</text></g><g class="message" data-participant-1="fs" data-participant-2="b"><polygon fill="#333333" points="594.1431,775.9351,605.6015,780.5184,594.1431,785.1017,598.7265,780.5184" style="stroke:#333333;stroke-width:1.1458;"/><line style="stroke:#333333;stroke-width:1.1458;" x1="312.8746" x2="601.0181" y1="780.5184" y2="780.5184"/><text fill="#000000" font-family="Helvetica" font-size="12.6042" lengthAdjust="spacing" textLength="54.2447" x="320.8954" y="775.2542">update()</text></g><g class="message" data-participant-1="b" data-participant-2="conv"><polygon fill="#333333" points="789.6146,806.6488,801.0729,811.2321,789.6146,815.8154,794.1979,811.2321" style="stroke:#333333;stroke-width:1.1458;"/><line style="stroke:#333333;stroke-width:1.1458;" x1="607.8931" x2="796.4896" y1="811.2321" y2="811.2321"/><text fill="#000000" font-family="Helvetica" font-size="12.6042" lengthAdjust="spacing" textLength="33.5783" x="615.914" y="805.9679">end()</text></g><path d="M480.2021,828.4196 L550.0375,828.4196 L550.0375,835.2588 L538.5792,846.7171 L477.9104,846.7171 L477.9104,830.7113 A2.2917,2.2917 0 0 1 480.2021,828.4196" fill="#EEEEEE" style="stroke:#555555;stroke-width:1.7188;"/><rect fill="none" height="82.0166" rx="2.2917" ry="2.2917" style="stroke:#555555;stroke-width:1.7188;" width="635.4681" x="477.9104" y="828.4196"/><text fill="#000000" font-family="Helvetica" font-size="13.75" font-weight="bold" lengthAdjust="spacing" textLength="20.5646" x="495.0979" y="842.3285">alt</text><text fill="#000000" font-family="Helvetica" font-size="13.75" font-weight="bold" lengthAdjust="spacing" textLength="88.7439" x="567.225" y="843.4743">[id == null]</text><g class="message" data-participant-1="b" data-participant-2="em"><polygon fill="#333333" points="1029.943,863.6808,1041.4014,868.2642,1029.943,872.8475,1034.5264,868.2642" style="stroke:#333333;stroke-width:1.1458;"/><line style="stroke:#333333;stroke-width:1.1458;" x1="607.8931" x2="1036.818" y1="868.2642" y2="868.2642"/><text fill="#000000" font-family="Helvetica" font-size="12.6042" lengthAdjust="spacing" textLength="108.0524" x="615.914" y="862.9999">persist(category)</text></g><line style="stroke:#555555;stroke-width:1.1458;stroke-dasharray:2.2917,2.2917;" x1="477.9104" x2="1113.3785" y1="878.5767" y2="878.5767"/><g class="message" data-participant-1="b" data-participant-2="em"><polygon fill="#333333" points="1029.943,896.6862,1041.4014,901.2695,1029.943,905.8529,1034.5264,901.2695" style="stroke:#333333;stroke-width:1.1458;"/><line style="stroke:#333333;stroke-width:1.1458;" x1="607.8931" x2="1036.818" y1="901.2695" y2="901.2695"/><text fill="#000000" font-family="Helvetica" font-size="12.6042" lengthAdjust="spacing" textLength="106.5077" x="615.914" y="896.0053">merge(category)</text></g><g class="message" data-participant-1="em" data-participant-2="db"><polygon fill="#333333" points="1178.0011,935.4207,1189.4595,940.0041,1178.0011,944.5874,1182.5845,940.0041" style="stroke:#333333;stroke-width:1.1458;"/><line style="stroke:#333333;stroke-width:1.1458;" x1="1043.693" x2="1184.8761" y1="940.0041" y2="940.0041"/><text fill="#000000" font-family="Helvetica" font-size="12.6042" lengthAdjust="spacing" textLength="101.8365" x="1051.7139" y="934.7398">flush on commit</text></g><g class="message" data-participant-1="b" data-participant-2="fs"><polygon fill="#333333" points="325.4788,966.1344,314.0204,970.7178,325.4788,975.3011,320.8954,970.7178" style="stroke:#333333;stroke-width:1.1458;"/><line style="stroke:#333333;stroke-width:1.1458;stroke-dasharray:2.2917,2.2917;" x1="318.6038" x2="606.7473" y1="970.7178" y2="970.7178"/><text fill="#000000" font-family="Helvetica" font-size="12.6042" lengthAdjust="spacing" textLength="267.5185" x="332.3538" y="965.4535">update : "view?faces-redirect=true&amp;id=.."</text></g><g class="message" data-participant-1="fs" data-participant-2="a"><polygon fill="#333333" points="82.5325,996.8481,71.0741,1001.4315,82.5325,1006.0148,77.9491,1001.4315" style="stroke:#333333;stroke-width:1.1458;"/><line style="stroke:#333333;stroke-width:1.1458;stroke-dasharray:2.2917,2.2917;" x1="75.6575" x2="311.7288" y1="1001.4315" y2="1001.4315"/><text fill="#000000" font-family="Helvetica" font-size="12.6042" lengthAdjust="spacing" textLength="122.7922" x="89.4075" y="996.1672">POST : 302 redirect</text></g><!--SRC=[XLHBZzem4BxdLqmvT0DQGcWlLRJiev1MIFlgagrwg5IPU02hiKFj2Gl_lkC4jc5tfHuY9UFFypqyyGbS_bP69Z33FnMQ78CJk7ILriBk4hYIMXaOFpnEu4dH2WIC9rF8IxD1wmIfqe0maXz8VsJfxIITm9fNb2FVoWC9jnG5xvJ9YqeYHD7WbwDTWP6gT15eeSp22etGwpdPwpM4CnGsNrqPcKf50Iagy5aUJ9HOyWxelnBNbjLtURb62SoEHlBB6xA2GEHKMkWaTITUjOA_Eo0SY60jBAbShOKXHdmHERePsas1L0CMxXWnHmuX-Md6Wd1Psjrd_gw1SpWxcn5N5rLn2kEMnbajyVpy1LKRKdVmleung3rLQZYQtOqmOecDQjJ7E3dtk7ianxxm_h46oNbWIa8ecGLyf_-51Frpjikuhsa6maSroFSk1wu-gcYx8ZvD1Z6KEM4jbiem9kmsN5OjLvJ08i4Dih2rnGVFQByhV0hcVbSj92yhGs5k5Q5LeZbLt0gzvW7WFL9vNjSD6CnRl3kOfTVfE8FntUDj5lQwxMOM6VsjGhjxRjcD7D8NPHqzeAiA2baezePnNRyHswRgGgwyGH954LnFRwOP36DFTCZbuBPvnIcXTgUDcJeJnebzV0cGcBCRPW1RFZaOr5kwBsFUS31DgXTAZePnF6obQv6iuYGvNL7GqTn7ocLM6ASuPbu6gFFm2DutHzRvgihECwMnh2WSmgSuXfWVxLCsiXNdWc-9y33Tfw1aaz1Uab_rcU_N8TJrMFBLaDlIEPRClwyZxleg46-r3g6TmVtTB0C-SFALQYsRMVeNmNEfxOG5xoDH4aOZC5LH7CpM7lRp7HvaieN2uH54errY6y0Xj2PXKLHk1NpjvQNMV3crfg2Hn2yTx-XYuM-ClXzQYpcDo5RudeyoYZhj26gV2NoCFy01-XS0]--></g></svg>