<svg xmlns="http://www.w3.org/2000/svg" xmlns:xlink="http://www.w3.org/1999/xlink" contentStyleType="text/css" data-diagram-type="SEQUENCE" height="1821.875px" preserveAspectRatio="none" style="width:1979px;height:1821px;background:#FFFFFF;" version="1.1" viewBox="0 0 1979 1821" width="1980px" zoomAndPan="magnify"><title>Sequence Diagram - Create a customer account (signon.xhtml -&gt; createaccount.xhtml)</title><defs/><g><text fill="#000000" font-family="Helvetica" font-size="17.1875" font-weight="bold" lengthAdjust="spacing" textLength="844.3024" x="548.8838" y="33.1413">Sequence Diagram - Create a customer account (signon.xhtml -&gt; createaccount.xhtml)</text><rect fill="#FFFFFF" height="1754.235" rx="2.2917" ry="2.2917" style="stroke:#181818;stroke-width:1.7188;" width="1968.4242" x="5.7292" y="61.2573"/><path d="M162.0246,61.2573 L162.0246,71.91 L150.5663,83.3683 L5.7292,83.3683" fill="none" style="stroke:#181818;stroke-width:1.7188;"/><text fill="#000000" font-family="Helvetica" font-size="16.0417" font-weight="bold" lengthAdjust="spacing" textLength="21.0312" x="9.1667" y="77.2934">sd</text><text fill="#000000" font-family="Helvetica" font-size="16.0417" lengthAdjust="spacing" textLength="118.7068" x="35.297" y="77.2934">CreateAccount</text><g><title>.FacesServlet</title><rect fill="#FFFFFF" height="655.2824" style="stroke:#7A7A7A;stroke-width:1.1458;" width="11.4583" x="327.7559" y="258.3854"/></g><g><title>.FacesServlet</title><rect fill="#FFFFFF" height="99.0161" style="stroke:#7A7A7A;stroke-width:1.1458;" width="11.4583" x="327.7559" y="992.4707"/></g><g><title>.FacesServlet</title><rect fill="#FFFFFF" height="504.0234" style="stroke:#7A7A7A;stroke-width:1.1458;" width="11.4583" x="327.7559" y="1136.8726"/></g><g><title>..SessionScoped..</title><rect fill="#FFFFFF" height="572.3079" style="stroke:#7A7A7A;stroke-width:1.1458;" width="11.4583" x="654.9607" y="319.8128"/></g><g><title>..SessionScoped..</title><rect fill="#FFFFFF" height="350.4549" style="stroke:#7A7A7A;stroke-width:1.1458;" width="11.4583" x="654.9607" y="1259.7274"/></g><g><title>..Stateless..</title><rect fill="#FFFFFF" height="228.7459" style="stroke:#7A7A7A;stroke-width:1.1458;" width="11.4583" x="1219.4906" y="1290.4411"/></g><rect fill="none" height="424.2448" rx="2.2917" ry="2.2917" style="stroke:#555555;stroke-width:1.7188;" width="1474.979" x="267.6064" y="459.8551"/><g><title>.Visitor</title><rect fill="#000000" fill-opacity="0.00000" height="1536.4909" width="9.1667" x="40.1914" y="177.2909"/><line style="stroke:#7A7A7A;stroke-width:0.5729;stroke-dasharray:5.7292,5.7292;" x1="44.6875" x2="44.6875" y1="177.2909" y2="1713.7817"/></g><g><title>.FacesServlet</title><rect fill="#000000" fill-opacity="0.00000" height="1536.4909" width="9.1667" x="328.9017" y="177.2909"/><line style="stroke:#7A7A7A;stroke-width:0.5729;stroke-dasharray:5.7292,5.7292;" x1="332.9189" x2="332.9189" y1="177.2909" y2="1713.7817"/></g><g><title>..SessionScoped..</title><rect fill="#000000" fill-opacity="0.00000" height="1536.4909" width="9.1667" x="656.1065" y="177.2909"/><line style="stroke:#7A7A7A;stroke-width:0.5729;stroke-dasharray:5.7292,5.7292;" x1="660.2479" x2="660.2479" y1="177.2909" y2="1713.7817"/></g><g><title>..SessionScoped..</title><rect fill="#000000" fill-opacity="0.00000" height="1536.4909" width="9.1667" x="950.1884" y="177.2909"/><line style="stroke:#7A7A7A;stroke-width:0.5729;stroke-dasharray:5.7292,5.7292;" x1="954.3298" x2="954.3298" y1="177.2909" y2="1713.7817"/></g><g><title>..Stateful..</title><rect fill="#000000" fill-opacity="0.00000" height="1536.4909" width="9.1667" x="1086.0234" y="177.2909"/><line style="stroke:#7A7A7A;stroke-width:0.5729;stroke-dasharray:5.7292,5.7292;" x1="1090.4221" x2="1090.4221" y1="177.2909" y2="1713.7817"/></g><g><title>..Stateless..</title><rect fill="#000000" fill-opacity="0.00000" height="1536.4909" width="9.1667" x="1220.6364" y="177.2909"/><line style="stroke:#7A7A7A;stroke-width:0.5729;stroke-dasharray:5.7292,5.7292;" x1="1224.8539" x2="1224.8539" y1="177.2909" y2="1713.7817"/></g><g><title>em .</title><rect fill="#000000" fill-opacity="0.00000" height="1536.4909" width="9.1667" x="1545.8853" y="177.2909"/><line style="stroke:#7A7A7A;stroke-width:0.5729;stroke-dasharray:5.7292,5.7292;" x1="1549.5331" x2="1549.5331" y1="177.2909" y2="1713.7817"/></g><g><title>customer .</title><rect fill="#000000" fill-opacity="0.00000" height="909.9797" width="9.1667" x="1681.6469" y="803.8021"/><line style="stroke:#7A7A7A;stroke-width:0.5729;stroke-dasharray:5.7292,5.7292;" x1="1686.021" x2="1686.021" y1="803.8021" y2="1713.7817"/></g><g><title>db .</title><rect fill="#000000" fill-opacity="0.00000" height="1536.4909" width="9.1667" x="1898.5518" y="177.2909"/><line style="stroke:#7A7A7A;stroke-width:0.5729;stroke-dasharray:5.7292,5.7292;" x1="1902.0128" x2="1902.0128" y1="177.2909" y2="1713.7817"/></g><g class="participant participant-head" data-participant="user"><text fill="#000000" font-family="Helvetica" font-size="13.75" lengthAdjust="spacing" textLength="48.2996" x="17.1875" y="174.0481">:Visitor</text><ellipse cx="44.7748" cy="102.2746" fill="#E2E2F0" rx="9.1667" ry="9.1667" style="stroke:#2F5D8A;stroke-width:0.5729;"/><path d="M44.7748,111.4412 L44.7748,142.3787 M29.8789,120.6079 L59.6706,120.6079 M44.7748,142.3787 L29.8789,159.5662 M44.7748,142.3787 L59.6706,159.5662" fill="none" style="stroke:#2F5D8A;stroke-width:0.5729;"/></g><g class="participant participant-tail" data-participant="user"><text fill="#000000" font-family="Helvetica" font-size="13.75" lengthAdjust="spacing" textLength="48.2996" x="17.1875" y="1725.399">:Visitor</text><ellipse cx="44.7748" cy="1738.3813" fill="#E2E2F0" rx="9.1667" ry="9.1667" style="stroke:#2F5D8A;stroke-width:0.5729;"/><path d="M44.7748,1747.548 L44.7748,1778.4855 M29.8789,1756.7147 L59.6706,1756.7147 M44.7748,1778.4855 L29.8789,1795.673 M44.7748,1778.4855 L59.6706,1795.673" fill="none" style="stroke:#2F5D8A;stroke-width:0.5729;"/></g><g class="participant participant-head" data-participant="fs"><rect fill="#F7FAFD" height="32.0475" rx="2.2917" ry="2.2917" style="stroke:#2F5D8A;stroke-width:0.5729;" width="108.8407" x="279.0647" y="144.0975"/><text fill="#000000" font-family="Helvetica" font-size="13.75" lengthAdjust="spacing" textLength="92.7991" x="287.0855" y="164.8814">:FacesServlet</text></g><g class="participant participant-tail" data-participant="fs"><rect fill="#F7FAFD" height="32.0475" rx="2.2917" ry="2.2917" style="stroke:#2F5D8A;stroke-width:0.5729;" width="108.8407" x="279.0647" y="1712.6359"/><text fill="#000000" font-family="Helvetica" font-size="13.75" lengthAdjust="spacing" textLength="92.7991" x="287.0855" y="1733.4198">:FacesServlet</text></g><g class="participant participant-head" data-participant="acct"><rect fill="#F7FAFD" height="64.0592" rx="2.2917" ry="2.2917" style="stroke:#2F5D8A;stroke-width:0.5729;" width="136.0923" x="592.6437" y="112.0858"/><text fill="#000000" font-family="Helvetica" font-size="13.75" font-style="italic" lengthAdjust="spacing" textLength="120.0507" x="600.6645" y="132.8697">&#171;SessionScoped&#187;</text><text fill="#000000" font-family="Helvetica" font-size="13.75" lengthAdjust="spacing" textLength="37.9401" x="641.7198" y="148.8755">acct :</text><text fill="#000000" font-family="Helvetica" font-size="13.75" lengthAdjust="spacing" textLength="90.7916" x="615.294" y="164.8814">AccountBean</text></g><g class="participant participant-tail" data-participant="acct"><rect fill="#F7FAFD" height="64.0592" rx="2.2917" ry="2.2917" style="stroke:#2F5D8A;stroke-width:0.5729;" width="136.0923" x="592.6437" y="1712.6359"/><text fill="#000000" font-family="Helvetica" font-size="13.75" font-style="italic" lengthAdjust="spacing" textLength="120.0507" x="600.6645" y="1733.4198">&#171;SessionScoped&#187;</text><text fill="#000000" font-family="Helvetica" font-size="13.75" lengthAdjust="spacing" textLength="37.9401" x="641.7198" y="1749.4257">acct :</text><text fill="#000000" font-family="Helvetica" font-size="13.75" lengthAdjust="spacing" textLength="90.7916" x="615.294" y="1765.4315">AccountBean</text></g><g class="participant participant-head" data-participant="cred"><rect fill="#F7FAFD" height="64.0592" rx="2.2917" ry="2.2917" style="stroke:#2F5D8A;stroke-width:0.5729;" width="136.0923" x="886.7256" y="112.0858"/><text fill="#000000" font-family="Helvetica" font-size="13.75" font-style="italic" lengthAdjust="spacing" textLength="120.0507" x="894.7464" y="132.8697">&#171;SessionScoped&#187;</text><text fill="#000000" font-family="Helvetica" font-size="13.75" lengthAdjust="spacing" textLength="39.4037" x="935.0699" y="148.8755">cred :</text><text fill="#000000" font-family="Helvetica" font-size="13.75" lengthAdjust="spacing" textLength="113.2697" x="898.137" y="164.8814">CredentialsBean</text></g><g class="participant participant-tail" data-participant="cred"><rect fill="#F7FAFD" height="64.0592" rx="2.2917" ry="2.2917" style="stroke:#2F5D8A;stroke-width:0.5729;" width="136.0923" x="886.7256" y="1712.6359"/><text fill="#000000" font-family="Helvetica" font-size="13.75" font-style="italic" lengthAdjust="spacing" textLength="120.0507" x="894.7464" y="1733.4198">&#171;SessionScoped&#187;</text><text fill="#000000" font-family="Helvetica" font-size="13.75" lengthAdjust="spacing" textLength="39.4037" x="935.0699" y="1749.4257">cred :</text><text fill="#000000" font-family="Helvetica" font-size="13.75" lengthAdjust="spacing" textLength="113.2697" x="898.137" y="1765.4315">CredentialsBean</text></g><g class="participant participant-head" data-participant="ctb"><rect fill="#F7FAFD" height="64.0592" rx="2.2917" ry="2.2917" style="stroke:#2F5D8A;stroke-width:0.5729;" width="112.6609" x="1034.2763" y="112.0858"/><text fill="#000000" font-family="Helvetica" font-size="13.75" font-style="italic" lengthAdjust="spacing" textLength="70.744" x="1055.2347" y="132.8697">&#171;Stateful&#187;</text><text fill="#000000" font-family="Helvetica" font-size="13.75" lengthAdjust="spacing" textLength="96.6193" x="1042.2971" y="148.8755">countryBean :</text><text fill="#000000" font-family="Helvetica" font-size="13.75" lengthAdjust="spacing" textLength="89.657" x="1045.7782" y="164.8814">CountryBean</text></g><g class="participant participant-tail" data-participant="ctb"><rect fill="#F7FAFD" height="64.0592" rx="2.2917" ry="2.2917" style="stroke:#2F5D8A;stroke-width:0.5729;" width="112.6609" x="1034.2763" y="1712.6359"/><text fill="#000000" font-family="Helvetica" font-size="13.75" font-style="italic" lengthAdjust="spacing" textLength="70.744" x="1055.2347" y="1733.4198">&#171;Stateful&#187;</text><text fill="#000000" font-family="Helvetica" font-size="13.75" lengthAdjust="spacing" textLength="96.6193" x="1042.2971" y="1749.4257">countryBean :</text><text fill="#000000" font-family="Helvetica" font-size="13.75" lengthAdjust="spacing" textLength="89.657" x="1045.7782" y="1765.4315">CountryBean</text></g><g class="participant participant-head" data-participant="cs"><rect fill="#F7FAFD" height="64.0592" rx="2.2917" ry="2.2917" style="stroke:#2F5D8A;stroke-width:0.5729;" width="133.6485" x="1158.3955" y="112.0858"/><text fill="#000000" font-family="Helvetica" font-size="13.75" font-style="italic" lengthAdjust="spacing" textLength="79.9756" x="1185.232" y="132.8697">&#171;Stateless&#187;</text><text fill="#000000" font-family="Helvetica" font-size="13.75" lengthAdjust="spacing" textLength="62.2577" x="1194.0909" y="148.8755">custSvc :</text><text fill="#000000" font-family="Helvetica" font-size="13.75" lengthAdjust="spacing" textLength="117.6068" x="1166.4164" y="164.8814">CustomerService</text></g><g class="participant participant-tail" data-participant="cs"><rect fill="#F7FAFD" height="64.0592" rx="2.2917" ry="2.2917" style="stroke:#2F5D8A;stroke-width:0.5729;" width="133.6485" x="1158.3955" y="1712.6359"/><text fill="#000000" font-family="Helvetica" font-size="13.75" font-style="italic" lengthAdjust="spacing" textLength="79.9756" x="1185.232" y="1733.4198">&#171;Stateless&#187;</text><text fill="#000000" font-family="Helvetica" font-size="13.75" lengthAdjust="spacing" textLength="62.2577" x="1194.0909" y="1749.4257">custSvc :</text><text fill="#000000" font-family="Helvetica" font-size="13.75" lengthAdjust="spacing" textLength="117.6068" x="1166.4164" y="1765.4315">CustomerService</text></g><g class="participant participant-head" data-participant="em"><rect fill="#F7FAFD" height="48.0534" rx="2.2917" ry="2.2917" style="stroke:#2F5D8A;stroke-width:0.5729;" width="116.4543" x="1492.2415" y="128.0916"/><text fill="#000000" font-family="Helvetica" font-size="13.75" lengthAdjust="spacing" textLength="30.8569" x="1535.0401" y="148.8755">em :</text><text fill="#000000" font-family="Helvetica" font-size="13.75" lengthAdjust="spacing" textLength="100.4126" x="1500.2623" y="164.8814">EntityManager</text></g><g class="participant participant-tail" data-participant="em"><rect fill="#F7FAFD" height="48.0534" rx="2.2917" ry="2.2917" style="stroke:#2F5D8A;stroke-width:0.5729;" width="116.4543" x="1492.2415" y="1712.6359"/><text fill="#000000" font-family="Helvetica" font-size="13.75" lengthAdjust="spacing" textLength="30.8569" x="1535.0401" y="1733.4198">em :</text><text fill="#000000" font-family="Helvetica" font-size="13.75" lengthAdjust="spacing" textLength="100.4126" x="1500.2623" y="1749.4257">EntityManager</text></g><g class="participant participant-tail" data-participant="c"><rect fill="#F7FAFD" height="48.0534" rx="2.2917" ry="2.2917" style="stroke:#2F5D8A;stroke-width:0.5729;" width="89.7935" x="1641.3335" y="1712.6359"/><text fill="#000000" font-family="Helvetica" font-size="13.75" lengthAdjust="spacing" textLength="73.7518" x="1649.3543" y="1733.4198">customer :</text><text fill="#000000" font-family="Helvetica" font-size="13.75" lengthAdjust="spacing" textLength="66.7896" x="1652.8355" y="1749.4257">Customer</text></g><g class="participant participant-head" data-participant="db"><rect fill="#F7FAFD" height="48.0534" rx="2.2917" ry="2.2917" style="stroke:#2F5D8A;stroke-width:0.5729;" width="91.6197" x="1857.3253" y="128.0916"/><text fill="#000000" font-family="Helvetica" font-size="13.75" lengthAdjust="spacing" textLength="26.4594" x="1889.9055" y="148.8755">db :</text><text fill="#000000" font-family="Helvetica" font-size="13.75" lengthAdjust="spacing" textLength="75.578" x="1865.3462" y="164.8814">PetstorePU</text></g><g class="participant participant-tail" data-participant="db"><rect fill="#F7FAFD" height="48.0534" rx="2.2917" ry="2.2917" style="stroke:#2F5D8A;stroke-width:0.5729;" width="91.6197" x="1857.3253" y="1712.6359"/><text fill="#000000" font-family="Helvetica" font-size="13.75" lengthAdjust="spacing" textLength="26.4594" x="1889.9055" y="1733.4198">db :</text><text fill="#000000" font-family="Helvetica" font-size="13.75" lengthAdjust="spacing" textLength="75.578" x="1865.3462" y="1749.4257">PetstorePU</text></g><g><title>.FacesServlet</title><rect fill="#FFFFFF" height="655.2824" style="stroke:#7A7A7A;stroke-width:1.1458;" width="11.4583" x="327.7559" y="258.3854"/></g><g><title>.FacesServlet</title><rect fill="#FFFFFF" height="99.0161" style="stroke:#7A7A7A;stroke-width:1.1458;" width="11.4583" x="327.7559" y="992.4707"/></g><g><title>.FacesServlet</title><rect fill="#FFFFFF" height="504.0234" style="stroke:#7A7A7A;stroke-width:1.1458;" width="11.4583" x="327.7559" y="1136.8726"/></g><g><title>..SessionScoped..</title><rect fill="#FFFFFF" height="572.3079" style="stroke:#7A7A7A;stroke-width:1.1458;" width="11.4583" x="654.9607" y="319.8128"/></g><g><title>..SessionScoped..</title><rect fill="#FFFFFF" height="350.4549" style="stroke:#7A7A7A;stroke-width:1.1458;" width="11.4583" x="654.9607" y="1259.7274"/></g><g><title>..Stateless..</title><rect fill="#FFFFFF" height="228.7459" style="stroke:#7A7A7A;stroke-width:1.1458;" width="11.4583" x="1219.4906" y="1290.4411"/></g><rect fill="#EEEEEE" height="3.4375" rx="2.2917" ry="2.2917" style="stroke:#EEEEEE;stroke-width:1.1458;" width="1943.2158" x="11.4583" y="211.6479"/><line style="stroke:#000000;stroke-width:1.1458;" x1="11.4583" x2="1954.6742" y1="211.6479" y2="211.6479"/><line style="stroke:#000000;stroke-width:1.1458;" x1="11.4583" x2="1954.6742" y1="215.0854" y2="215.0854"/><rect fill="#EEEEEE" height="25.1725" rx="2.2917" ry="2.2917" style="stroke:#000000;stroke-width:2.2917;" width="527.0878" x="719.5223" y="200.2075"/><text fill="#000000" font-family="Helvetica" font-size="13.75" font-weight="bold" lengthAdjust="spacing" textLength="506.2592" x="726.3973" y="217.5539">Step 1 - choose credentials (signon.xhtml, "New customer" form)</text><g class="message" data-participant-1="user" data-participant-2="fs"><polygon fill="#333333" points="314.0059,253.8021,325.4642,258.3854,314.0059,262.9688,318.5892,258.3854" style="stroke:#333333;stroke-width:1.1458;"/><line style="stroke:#333333;stroke-width:1.1458;" x1="44.7748" x2="320.8809" y1="258.3854" y2="258.3854"/><text fill="#000000" font-family="Helvetica" font-size="12.6042" lengthAdjust="spacing" textLength="212.0983" x="52.7956" y="253.1212">POST login, password, password2</text></g><g class="message" data-participant-1="fs" data-participant-2="cred"><polygon fill="#333333" points="941.0218,284.5158,952.4801,289.0991,941.0218,293.6825,945.6051,289.0991" style="stroke:#333333;stroke-width:1.1458;"/><line style="stroke:#333333;stroke-width:1.1458;" x1="339.2142" x2="947.8968" y1="289.0991" y2="289.0991"/><text fill="#000000" font-family="Helvetica" font-size="12.6042" lengthAdjust="spacing" textLength="264.8844" x="347.2351" y="283.8349">setLogin(), setPassword(), setPassword2()</text></g><g class="message" data-participant-1="fs" data-participant-2="acct"><polygon fill="#333333" points="641.2107,315.2295,652.669,319.8128,641.2107,324.3962,645.794,319.8128" style="stroke:#333333;stroke-width:1.1458;"/><line style="stroke:#333333;stroke-width:1.1458;" x1="339.2142" x2="648.0857" y1="319.8128" y2="319.8128"/><text fill="#000000" font-family="Helvetica" font-size="12.6042" lengthAdjust="spacing" textLength="146.308" x="347.2351" y="314.5486">doCreateNewAccount()</text></g><g class="message" data-participant-1="acct" data-participant-2="cs"><polygon fill="#333333" points="1211.4698,345.9432,1222.9281,350.5265,1211.4698,355.1099,1216.0531,350.5265" style="stroke:#333333;stroke-width:1.1458;"/><line style="stroke:#333333;stroke-width:1.1458;" x1="666.419" x2="1218.3448" y1="350.5265" y2="350.5265"/><text fill="#000000" font-family="Helvetica" font-size="12.6042" lengthAdjust="spacing" textLength="183.4743" x="674.4398" y="345.2623">doesLoginAlreadyExist(login)</text></g><g class="message" data-participant-1="cs" data-participant-2="em"><polygon fill="#333333" points="1536.7186,376.6569,1548.1769,381.2402,1536.7186,385.8236,1541.3019,381.2402" style="stroke:#333333;stroke-width:1.1458;"/><line style="stroke:#333333;stroke-width:1.1458;" x1="1225.2198" x2="1543.5936" y1="381.2402" y2="381.2402"/><text fill="#000000" font-family="Helvetica" font-size="12.6042" lengthAdjust="spacing" textLength="297.7488" x="1233.2406" y="375.976">createNamedQuery(Customer.FIND_BY_LOGIN)</text></g><g class="message" data-participant-1="em" data-participant-2="db"><polygon fill="#333333" points="1889.3852,407.3706,1900.8435,411.9539,1889.3852,416.5373,1893.9685,411.9539" style="stroke:#333333;stroke-width:1.1458;"/><line style="stroke:#333333;stroke-width:1.1458;" x1="1550.4686" x2="1896.2602" y1="411.9539" y2="411.9539"/><text fill="#000000" font-family="Helvetica" font-size="12.6042" lengthAdjust="spacing" textLength="325.1666" x="1558.4894" y="406.6897">SELECT c FROM Customer c WHERE c.login = :login</text></g><g class="message" data-participant-1="cs" data-participant-2="acct"><polygon fill="#333333" points="679.0232,438.0843,667.5648,442.6676,679.0232,447.251,674.4398,442.6676" style="stroke:#333333;stroke-width:1.1458;"/><line style="stroke:#333333;stroke-width:1.1458;stroke-dasharray:2.2917,2.2917;" x1="672.1482" x2="1224.0739" y1="442.6676" y2="442.6676"/><text fill="#000000" font-family="Helvetica" font-size="12.6042" lengthAdjust="spacing" textLength="198.3002" x="685.8982" y="437.4034">exists = doesLoginAlreadyExist</text></g><path d="M269.898,459.8551 L339.7334,459.8551 L339.7334,466.6943 L328.2751,478.1527 L267.6064,478.1527 L267.6064,462.1468 A2.2917,2.2917 0 0 1 269.898,459.8551" fill="#EEEEEE" style="stroke:#555555;stroke-width:1.7188;"/><rect fill="none" height="424.2448" rx="2.2917" ry="2.2917" style="stroke:#555555;stroke-width:1.7188;" width="1474.979" x="267.6064" y="459.8551"/><text fill="#000000" font-family="Helvetica" font-size="13.75" font-weight="bold" lengthAdjust="spacing" textLength="20.5646" x="284.7939" y="473.764">alt</text><text fill="#000000" font-family="Helvetica" font-size="13.75" font-weight="bold" lengthAdjust="spacing" textLength="164.6777" x="356.9209" y="474.9099">[login already exists]</text><g class="message" data-participant-1="acct" data-participant-2="acct"><line style="stroke:#333333;stroke-width:1.1458;" x1="666.419" x2="714.544" y1="499.6997" y2="499.6997"/><line style="stroke:#333333;stroke-width:1.1458;" x1="714.544" x2="714.544" y1="499.6997" y2="514.5955"/><line style="stroke:#333333;stroke-width:1.1458;" x1="667.5648" x2="714.544" y1="514.5955" y2="514.5955"/><polygon fill="#333333" points="679.0232,510.0122,667.5648,514.5955,679.0232,519.1789,674.4398,514.5955" style="stroke:#333333;stroke-width:1.1458;"/><text fill="#000000" font-family="Helvetica" font-size="12.6042" lengthAdjust="spacing" textLength="227.0412" x="674.4398" y="494.4355">addWarningMessage("login_exists")</text></g><g class="message" data-participant-1="acct" data-participant-2="fs"><polygon fill="#333333" points="351.8184,540.7259,340.3601,545.3092,351.8184,549.8926,347.2351,545.3092" style="stroke:#333333;stroke-width:1.1458;"/><line style="stroke:#333333;stroke-width:1.1458;stroke-dasharray:2.2917,2.2917;" x1="344.9434" x2="653.8148" y1="545.3092" y2="545.3092"/><text fill="#000000" font-family="Helvetica" font-size="12.6042" lengthAdjust="spacing" textLength="171.7133" x="358.6934" y="540.045">doCreateNewAccount : null</text></g><line style="stroke:#555555;stroke-width:1.1458;stroke-dasharray:2.2917,2.2917;" x1="267.6064" x2="1742.5853" y1="555.6217" y2="555.6217"/><text fill="#000000" font-family="Helvetica" font-size="13.75" font-weight="bold" lengthAdjust="spacing" textLength="132.713" x="273.3355" y="568.3848">[a field is empty]</text><g class="message" data-participant-1="acct" data-participant-2="acct"><line style="stroke:#333333;stroke-width:1.1458;" x1="666.419" x2="714.544" y1="594.3205" y2="594.3205"/><line style="stroke:#333333;stroke-width:1.1458;" x1="714.544" x2="714.544" y1="594.3205" y2="609.2163"/><line style="stroke:#333333;stroke-width:1.1458;" x1="667.5648" x2="714.544" y1="609.2163" y2="609.2163"/><polygon fill="#333333" points="679.0232,604.633,667.5648,609.2163,679.0232,613.7996,674.4398,609.2163" style="stroke:#333333;stroke-width:1.1458;"/><text fill="#000000" font-family="Helvetica" font-size="12.6042" lengthAdjust="spacing" textLength="234.3587" x="674.4398" y="589.0562">addWarningMessage("id_pwd_filled")</text></g><g class="message" data-participant-1="acct" data-participant-2="fs"><polygon fill="#333333" points="351.8184,635.3467,340.3601,639.93,351.8184,644.5133,347.2351,639.93" style="stroke:#333333;stroke-width:1.1458;"/><line style="stroke:#333333;stroke-width:1.1458;stroke-dasharray:2.2917,2.2917;" x1="344.9434" x2="653.8148" y1="639.93" y2="639.93"/><text fill="#000000" font-family="Helvetica" font-size="12.6042" lengthAdjust="spacing" textLength="171.7133" x="358.6934" y="634.6658">doCreateNewAccount : null</text></g><line style="stroke:#555555;stroke-width:1.1458;stroke-dasharray:2.2917,2.2917;" x1="267.6064" x2="1742.5853" y1="650.2425" y2="650.2425"/><text fill="#000000" font-family="Helvetica" font-size="13.75" font-weight="bold" lengthAdjust="spacing" textLength="198.0255" x="273.3355" y="663.0056">[password != password2]</text><g class="message" data-participant-1="acct" data-participant-2="acct"><line style="stroke:#333333;stroke-width:1.1458;" x1="666.419" x2="714.544" y1="688.9412" y2="688.9412"/><line style="stroke:#333333;stroke-width:1.1458;" x1="714.544" x2="714.544" y1="688.9412" y2="703.8371"/><line style="stroke:#333333;stroke-width:1.1458;" x1="667.5648" x2="714.544" y1="703.8371" y2="703.8371"/><polygon fill="#333333" points="679.0232,699.2537,667.5648,703.8371,679.0232,708.4204,674.4398,703.8371" style="stroke:#333333;stroke-width:1.1458;"/><text fill="#000000" font-family="Helvetica" font-size="12.6042" lengthAdjust="spacing" textLength="255.1236" x="674.4398" y="683.677">addWarningMessage("both_pwd_same")</text></g><g class="message" data-participant-1="acct" data-participant-2="fs"><polygon fill="#333333" points="351.8184,729.9674,340.3601,734.5508,351.8184,739.1341,347.2351,734.5508" style="stroke:#333333;stroke-width:1.1458;"/><line style="stroke:#333333;stroke-width:1.1458;stroke-dasharray:2.2917,2.2917;" x1="344.9434" x2="653.8148" y1="734.5508" y2="734.5508"/><text fill="#000000" font-family="Helvetica" font-size="12.6042" lengthAdjust="spacing" textLength="171.7133" x="358.6934" y="729.2865">doCreateNewAccount : null</text></g><line style="stroke:#555555;stroke-width:1.1458;stroke-dasharray:2.2917,2.2917;" x1="267.6064" x2="1742.5853" y1="744.8633" y2="744.8633"/><text fill="#000000" font-family="Helvetica" font-size="13.75" font-weight="bold" lengthAdjust="spacing" textLength="50.0787" x="273.3355" y="757.6263">[valid]</text><g class="message" data-participant-1="acct" data-participant-2="c"><line style="stroke:#333333;stroke-width:1.1458;" x1="1639.0418" x2="1627.5835" y1="783.562" y2="778.9787"/><line style="stroke:#333333;stroke-width:1.1458;" x1="1639.0418" x2="1627.5835" y1="783.562" y2="788.1453"/><line style="stroke:#333333;stroke-width:1.1458;stroke-dasharray:2.2917,2.2917;" x1="666.419" x2="1640.1877" y1="783.562" y2="783.562"/><text fill="#000000" font-family="Helvetica" font-size="12.6042" lengthAdjust="spacing" textLength="71.0585" x="674.4398" y="778.2978">Customer()</text></g><rect fill="#F7FAFD" height="48.0534" rx="2.2917" ry="2.2917" style="stroke:#2F5D8A;stroke-width:0.5729;" width="89.7935" x="1641.3335" y="762.015"/><text fill="#000000" font-family="Helvetica" font-size="13.75" lengthAdjust="spacing" textLength="73.7518" x="1649.3543" y="782.7989">customer :</text><text fill="#000000" font-family="Helvetica" font-size="13.75" lengthAdjust="spacing" textLength="66.7896" x="1652.8355" y="798.8047">Customer</text><g class="message" data-participant-1="acct" data-participant-2="c"><polygon fill="#333333" points="1672.4803,839.6362,1683.9386,844.2196,1672.4803,848.8029,1677.0636,844.2196" style="stroke:#333333;stroke-width:1.1458;"/><line style="stroke:#333333;stroke-width:1.1458;" x1="666.419" x2="1679.3553" y1="844.2196" y2="844.2196"/><text fill="#000000" font-family="Helvetica" font-size="12.6042" lengthAdjust="spacing" textLength="281.4151" x="674.4398" y="838.9553">setLogin(login); setPassword(plainPassword)</text></g><g class="message" data-participant-1="acct" data-participant-2="fs"><polygon fill="#333333" points="351.8184,870.3499,340.3601,874.9333,351.8184,879.5166,347.2351,874.9333" style="stroke:#333333;stroke-width:1.1458;"/><line style="stroke:#333333;stroke-width:1.1458;stroke-dasharray:2.2917,2.2917;" x1="344.9434" x2="653.8148" y1="874.9333" y2="874.9333"/><text fill="#000000" font-family="Helvetica" font-size="12.6042" lengthAdjust="spacing" textLength="288.2465" x="358.6934" y="869.669">doCreateNewAccount : "createaccount.faces"</text></g><g class="message" data-participant-1="fs" data-participant-2="user"><polygon fill="#333333" points="57.3789,909.0845,45.9206,913.6678,57.3789,918.2511,52.7956,913.6678" style="stroke:#333333;stroke-width:1.1458;"/><line style="stroke:#333333;stroke-width:1.1458;stroke-dasharray:2.2917,2.2917;" x1="50.5039" x2="332.3392" y1="913.6678" y2="913.6678"/><text fill="#000000" font-family="Helvetica" font-size="12.6042" lengthAdjust="spacing" textLength="76.9605" x="64.2539" y="908.4036">POST : page</text></g><rect fill="#EEEEEE" height="3.4375" rx="2.2917" ry="2.2917" style="stroke:#EEEEEE;stroke-width:1.1458;" width="1943.2158" x="11.4583" y="945.7332"/><line style="stroke:#000000;stroke-width:1.1458;" x1="11.4583" x2="1954.6742" y1="945.7332" y2="945.7332"/><line style="stroke:#000000;stroke-width:1.1458;" x1="11.4583" x2="1954.6742" y1="949.1707" y2="949.1707"/><rect fill="#EEEEEE" height="25.1725" rx="2.2917" ry="2.2917" style="stroke:#000000;stroke-width:2.2917;" width="440.1432" x="762.9946" y="934.2928"/><text fill="#000000" font-family="Helvetica" font-size="13.75" font-weight="bold" lengthAdjust="spacing" textLength="419.3146" x="769.8696" y="951.6392">Step 2 - enter customer details (createaccount.xhtml)</text><g class="message" data-participant-1="user" data-participant-2="fs"><polygon fill="#333333" points="314.0059,987.8874,325.4642,992.4707,314.0059,997.054,318.5892,992.4707" style="stroke:#333333;stroke-width:1.1458;"/><line style="stroke:#333333;stroke-width:1.1458;" x1="44.7748" x2="320.8809" y1="992.4707" y2="992.4707"/><text fill="#000000" font-family="Helvetica" font-size="12.6042" lengthAdjust="spacing" textLength="160.1123" x="52.7956" y="987.2065">GET createaccount.xhtml</text></g><g class="message" data-participant-1="fs" data-participant-2="ctb"><polygon fill="#333333" points="1076.8567,1022.0386,1088.3151,1026.6219,1076.8567,1031.2052,1081.4401,1026.6219" style="stroke:#333333;stroke-width:1.1458;"/><line style="stroke:#333333;stroke-width:1.1458;" x1="339.2142" x2="1083.7317" y1="1026.6219" y2="1026.6219"/><text fill="#000000" font-family="Helvetica" font-size="12.6042" lengthAdjust="spacing" textLength="46.1578" x="347.2351" y="1021.3577">getAll()</text></g><path d="M1095.4167,1009.6582 L1095.4167,1030.2832 A2.2917,2.2917 0 0 0 1097.7083,1032.5749 L1273.0208,1032.5749 A2.2917,2.2917 0 0 0 1275.3125,1030.2832 L1275.3125,1018.8249 L1263.8542,1007.3665 L1097.7083,1007.3665 A2.2917,2.2917 0 0 0 1095.4167,1009.6582" fill="#FFFBE6" style="stroke:#B59F3B;stroke-width:0.5729;"/><path d="M1263.8542,1007.3665 L1263.8542,1017.679 A1.1458,1.1458 0 0 0 1265,1018.8249 L1275.3125,1018.8249 L1263.8542,1007.3665" fill="#FFFBE6" style="stroke:#B59F3B;stroke-width:0.5729;"/><text fill="#000000" font-family="Helvetica" font-size="12.6042" lengthAdjust="spacing" textLength="156.1181" x="1102.2917" y="1024.7952">f:selectItems country list</text><g class="message" data-participant-1="ctb" data-participant-2="em"><polygon fill="#333333" points="1536.7186,1056.1898,1548.1769,1060.7731,1536.7186,1065.3564,1541.3019,1060.7731" style="stroke:#333333;stroke-width:1.1458;"/><line style="stroke:#333333;stroke-width:1.1458;" x1="1090.6067" x2="1543.5936" y1="1060.7731" y2="1060.7731"/><text fill="#000000" font-family="Helvetica" font-size="12.6042" lengthAdjust="spacing" textLength="120.2627" x="1098.6276" y="1055.5089">SELECT all Country</text></g><g class="message" data-participant-1="fs" data-participant-2="user"><polygon fill="#333333" points="57.3789,1086.9035,45.9206,1091.4868,57.3789,1096.0701,52.7956,1091.4868" style="stroke:#333333;stroke-width:1.1458;"/><line style="stroke:#333333;stroke-width:1.1458;stroke-dasharray:2.2917,2.2917;" x1="50.5039" x2="332.3392" y1="1091.4868" y2="1091.4868"/><text fill="#000000" font-family="Helvetica" font-size="12.6042" lengthAdjust="spacing" textLength="190.2688" x="64.2539" y="1086.2226">GET : form with country menu</text></g><g class="message" data-participant-1="user" data-participant-2="fs"><polygon fill="#333333" points="314.0059,1132.2892,325.4642,1136.8726,314.0059,1141.4559,318.5892,1136.8726" style="stroke:#333333;stroke-width:1.1458;"/><line style="stroke:#333333;stroke-width:1.1458;" x1="44.7748" x2="320.8809" y1="1136.8726" y2="1136.8726"/><text fill="#000000" font-family="Helvetica" font-size="12.6042" lengthAdjust="spacing" textLength="261.2103" x="52.7956" y="1116.9363">POST firstName, lastName, email, phone,</text><text fill="#000000" font-family="Helvetica" font-size="12.6042" lengthAdjust="spacing" textLength="202.5714" x="52.7956" y="1131.6083">dateOfBirth, address, country id</text></g><g class="message" data-participant-1="fs" data-participant-2="ctb"><polygon fill="#333333" points="1076.8567,1163.0029,1088.3151,1167.5863,1076.8567,1172.1696,1081.4401,1167.5863" style="stroke:#333333;stroke-width:1.1458;"/><line style="stroke:#333333;stroke-width:1.1458;" x1="339.2142" x2="1083.7317" y1="1167.5863" y2="1167.5863"/><text fill="#000000" font-family="Helvetica" font-size="12.6042" lengthAdjust="spacing" textLength="244.0026" x="347.2351" y="1162.322">getConverter().getAsObject(countryId)</text></g><g class="message" data-participant-1="ctb" data-participant-2="fs"><polygon fill="#333333" points="351.8184,1193.7166,340.3601,1198.3,351.8184,1202.8833,347.2351,1198.3" style="stroke:#333333;stroke-width:1.1458;"/><line style="stroke:#333333;stroke-width:1.1458;stroke-dasharray:2.2917,2.2917;" x1="344.9434" x2="1089.4609" y1="1198.3" y2="1198.3"/><text fill="#000000" font-family="Helvetica" font-size="12.6042" lengthAdjust="spacing" textLength="143.9324" x="358.6934" y="1193.0357">getConverter : country</text></g><g class="message" data-participant-1="fs" data-participant-2="c"><polygon fill="#333333" points="1672.4803,1224.4303,1683.9386,1229.0137,1672.4803,1233.597,1677.0636,1229.0137" style="stroke:#333333;stroke-width:1.1458;"/><line style="stroke:#333333;stroke-width:1.1458;" x1="339.2142" x2="1679.3553" y1="1229.0137" y2="1229.0137"/><text fill="#000000" font-family="Helvetica" font-size="12.6042" lengthAdjust="spacing" textLength="281.5382" x="347.2351" y="1223.7494">set profile + homeAddress (Bean Validation)</text></g><g class="message" data-participant-1="fs" data-participant-2="acct"><polygon fill="#333333" points="641.2107,1255.144,652.669,1259.7274,641.2107,1264.3107,645.794,1259.7274" style="stroke:#333333;stroke-width:1.1458;"/><line style="stroke:#333333;stroke-width:1.1458;" x1="339.2142" x2="648.0857" y1="1259.7274" y2="1259.7274"/><text fill="#000000" font-family="Helvetica" font-size="12.6042" lengthAdjust="spacing" textLength="128.9281" x="347.2351" y="1254.4631">doCreateCustomer()</text></g><g class="message" data-participant-1="acct" data-participant-2="cs"><polygon fill="#333333" points="1205.7406,1285.8577,1217.1989,1290.4411,1205.7406,1295.0244,1210.3239,1290.4411" style="stroke:#333333;stroke-width:1.1458;"/><line style="stroke:#333333;stroke-width:1.1458;" x1="666.419" x2="1212.6156" y1="1290.4411" y2="1290.4411"/><text fill="#000000" font-family="Helvetica" font-size="12.6042" lengthAdjust="spacing" textLength="170.6978" x="674.4398" y="1285.1768">createCustomer(customer)</text></g><g class="message" data-participant-1="cs" data-participant-2="em"><polygon fill="#333333" points="1536.7186,1316.5715,1548.1769,1321.1548,1536.7186,1325.7381,1541.3019,1321.1548" style="stroke:#333333;stroke-width:1.1458;"/><line style="stroke:#333333;stroke-width:1.1458;" x1="1230.9489" x2="1543.5936" y1="1321.1548" y2="1321.1548"/><text fill="#000000" font-family="Helvetica" font-size="12.6042" lengthAdjust="spacing" textLength="281.2859" x="1238.9698" y="1315.8906">find(Country.class, homeAddress.country.id)</text></g><g class="message" data-participant-1="cs" data-participant-2="c"><polygon fill="#333333" points="1672.4803,1347.2852,1683.9386,1351.8685,1672.4803,1356.4518,1677.0636,1351.8685" style="stroke:#333333;stroke-width:1.1458;"/><line style="stroke:#333333;stroke-width:1.1458;" x1="1230.9489" x2="1679.3553" y1="1351.8685" y2="1351.8685"/><text fill="#000000" font-family="Helvetica" font-size="12.6042" lengthAdjust="spacing" textLength="217.8034" x="1238.9698" y="1346.6043">homeAddress.setCountry(country)</text></g><g class="message" data-participant-1="cs" data-participant-2="em"><polygon fill="#333333" points="1536.7186,1377.9989,1548.1769,1382.5822,1536.7186,1387.1655,1541.3019,1382.5822" style="stroke:#333333;stroke-width:1.1458;"/><line style="stroke:#333333;stroke-width:1.1458;" x1="1230.9489" x2="1543.5936" y1="1382.5822" y2="1382.5822"/><text fill="#000000" font-family="Helvetica" font-size="12.6042" lengthAdjust="spacing" textLength="111.702" x="1238.9698" y="1377.318">persist(customer)</text></g><g class="message" data-participant-1="em" data-participant-2="c"><polygon fill="#333333" points="1672.4803,1412.1501,1683.9386,1416.7334,1672.4803,1421.3167,1677.0636,1416.7334" style="stroke:#333333;stroke-width:1.1458;"/><line style="stroke:#333333;stroke-width:1.1458;" x1="1550.4686" x2="1679.3553" y1="1416.7334" y2="1416.7334"/><text fill="#000000" font-family="Helvetica" font-size="12.6042" lengthAdjust="spacing" textLength="108.2617" x="1558.4894" y="1411.4692">digestPassword()</text></g><path d="M1691.25,1399.7697 L1691.25,1420.3947 A2.2917,2.2917 0 0 0 1693.5417,1422.6864 L1911.25,1422.6864 A2.2917,2.2917 0 0 0 1913.5417,1420.3947 L1913.5417,1408.9364 L1902.0833,1397.478 L1693.5417,1397.478 A2.2917,2.2917 0 0 0 1691.25,1399.7697" fill="#FFFBE6" style="stroke:#B59F3B;stroke-width:0.5729;"/><path d="M1902.0833,1397.478 L1902.0833,1407.7905 A1.1458,1.1458 0 0 0 1903.2292,1408.9364 L1913.5417,1408.9364 L1902.0833,1397.478" fill="#FFFBE6" style="stroke:#B59F3B;stroke-width:0.5729;"/><text fill="#000000" font-family="Helvetica" font-size="12.6042" lengthAdjust="spacing" textLength="199.2726" x="1698.125" y="1414.9067">@PrePersist SHA-256 + Base64</text><g class="message" data-participant-1="em" data-participant-2="db"><polygon fill="#333333" points="1889.3852,1446.3013,1900.8435,1450.8846,1889.3852,1455.4679,1893.9685,1450.8846" style="stroke:#333333;stroke-width:1.1458;"/><line style="stroke:#333333;stroke-width:1.1458;" x1="1550.4686" x2="1896.2602" y1="1450.8846" y2="1450.8846"/><text fill="#000000" font-family="Helvetica" font-size="12.6042" lengthAdjust="spacing" textLength="108.9263" x="1558.4894" y="1445.6204">INSERT customer</text></g><g class="message" data-participant-1="em" data-participant-2="c"><polygon fill="#333333" points="1672.4803,1480.4525,1683.9386,1485.0358,1672.4803,1489.6191,1677.0636,1485.0358" style="stroke:#333333;stroke-width:1.1458;"/><line style="stroke:#333333;stroke-width:1.1458;" x1="1550.4686" x2="1679.3553" y1="1485.0358" y2="1485.0358"/><text fill="#000000" font-family="Helvetica" font-size="12.6042" lengthAdjust="spacing" textLength="91.2079" x="1558.4894" y="1479.7716">calculateAge()</text></g><path d="M1691.25,1468.0721 L1691.25,1488.6971 A2.2917,2.2917 0 0 0 1693.5417,1490.9888 L1794.375,1490.9888 A2.2917,2.2917 0 0 0 1796.6667,1488.6971 L1796.6667,1477.2388 L1785.2083,1465.7804 L1693.5417,1465.7804 A2.2917,2.2917 0 0 0 1691.25,1468.0721" fill="#FFFBE6" style="stroke:#B59F3B;stroke-width:0.5729;"/><path d="M1785.2083,1465.7804 L1785.2083,1476.0929 A1.1458,1.1458 0 0 0 1786.3542,1477.2388 L1796.6667,1477.2388 L1785.2083,1465.7804" fill="#FFFBE6" style="stroke:#B59F3B;stroke-width:0.5729;"/><text fill="#000000" font-family="Helvetica" font-size="12.6042" lengthAdjust="spacing" textLength="81.5394" x="1698.125" y="1483.2091">@PostPersist</text><g class="message" data-participant-1="cs" data-participant-2="acct"><polygon fill="#333333" points="679.0232,1514.6037,667.5648,1519.187,679.0232,1523.7703,674.4398,1519.187" style="stroke:#333333;stroke-width:1.1458;"/><line style="stroke:#333333;stroke-width:1.1458;stroke-dasharray:2.2917,2.2917;" x1="672.1482" x2="1224.0739" y1="1519.187" y2="1519.187"/><text fill="#000000" font-family="Helvetica" font-size="12.6042" lengthAdjust="spacing" textLength="173.1227" x="685.8982" y="1513.9228">createCustomer : customer</text></g><g class="message" data-participant-1="acct" data-participant-2="acct"><line style="stroke:#333333;stroke-width:1.1458;" x1="666.419" x2="714.544" y1="1564.5728" y2="1564.5728"/><line style="stroke:#333333;stroke-width:1.1458;" x1="714.544" x2="714.544" y1="1564.5728" y2="1579.4686"/><line style="stroke:#333333;stroke-width:1.1458;" x1="667.5648" x2="714.544" y1="1579.4686" y2="1579.4686"/><polygon fill="#333333" points="679.0232,1574.8853,667.5648,1579.4686,679.0232,1584.0519,674.4398,1579.4686" style="stroke:#333333;stroke-width:1.1458;"/><text fill="#000000" font-family="Helvetica" font-size="12.6042" lengthAdjust="spacing" textLength="193.6106" x="674.4398" y="1544.6365">loggedinCustomer = customer</text><text fill="#000000" font-family="Helvetica" font-size="12.6042" lengthAdjust="spacing" textLength="154.9796" x="674.4398" y="1559.3085">(@Produces @LoggedIn)</text></g><g class="message" data-participant-1="acct" data-participant-2="fs"><polygon fill="#333333" points="351.8184,1605.599,340.3601,1610.1823,351.8184,1614.7656,347.2351,1610.1823" style="stroke:#333333;stroke-width:1.1458;"/><line style="stroke:#333333;stroke-width:1.1458;stroke-dasharray:2.2917,2.2917;" x1="344.9434" x2="659.544" y1="1610.1823" y2="1610.1823"/><text fill="#000000" font-family="Helvetica" font-size="12.6042" lengthAdjust="spacing" textLength="211.8583" x="358.6934" y="1604.9181">doCreateCustomer : "main.faces"</text></g><g class="message" data-participant-1="fs" data-participant-2="user"><polygon fill="#333333" points="57.3789,1636.3127,45.9206,1640.896,57.3789,1645.4793,52.7956,1640.896" style="stroke:#333333;stroke-width:1.1458;"/><line style="stroke:#333333;stroke-width:1.1458;stroke-dasharray:2.2917,2.2917;" x1="50.5039" x2="332.3392" y1="1640.896" y2="1640.896"/><text fill="#000000" font-family="Helvetica" font-size="12.6042" lengthAdjust="spacing" textLength="182.0219" x="64.2539" y="1635.6318">POST : home page, signed in</text></g><path d="M595.8333,1658.0835 L595.8333,1693.6043 A2.2917,2.2917 0 0 0 598.125,1695.896 L1286.7708,1695.896 A2.2917,2.2917 0 0 0 1289.0625,1693.6043 L1289.0625,1667.2502 L1277.6042,1655.7918 L598.125,1655.7918 A2.2917,2.2917 0 0 0 595.8333,1658.0835" fill="#FFFBE6" style="stroke:#B59F3B;stroke-width:0.5729;"/><path d="M1277.6042,1655.7918 L1277.6042,1666.1043 A1.1458,1.1458 0 0 0 1278.75,1667.2502 L1289.0625,1667.2502 L1277.6042,1655.7918" fill="#FFFBE6" style="stroke:#B59F3B;stroke-width:0.5729;"/><text fill="#000000" font-family="Helvetica" font-size="12.6042" lengthAdjust="spacing" textLength="456.1317" x="709.4468" y="1673.2205">Relies on the admin CountryBean (@Stateful, conversation scoped) as a</text><text fill="#000000" font-family="Helvetica" font-size="12.6042" lengthAdjust="spacing" textLength="443.4414" x="709.4468" y="1687.8925">converter from the shopping UI: cross-layer coupling (see pattern 27).</text><!--SRC=[bLRRRXit47tVhvZg9IjNLb6ZJG4r3do9aWXmRDTo4XG8OD3ahCIMIsv9hXtzVMUu5wzaDtNUzZA7SpjpE2_Ww6zjrGoM-4-DLcBs0ev2NPR2RsPmVU_sGyGAFAvqY5v4xUmCf4U5DcfXu4uOhT9dq1QEfNIrZISex0Ggxmfj4AIeOkqHxdLSGrmZdBADtu1qzWvzH3_XpnOgz86yD8P7bnulsm-L2E7UUGLAhp34QVQ3jjBK2c4w_Uacn8t1gQvBavL2syAB4c5lBwYzFJZrA2AsOMLHHugdonJUQB4YOzXlpK20h4Dq9NeG3GJoe5VMsUdNTImDxB_ctCcq_Try7cUPaD5v6Cq-wQ3fQGGYG1tGPvNmKKjT2JfhD7ih98Ob-Zk3CTaKOTk2peqm-s87XKnswVkhLqiCWKgzbAv2zVhrDfQxmjZJlZkXnwT__uTlsiAOTCp3QtD4lEKJ8cLVrEOHc0gtl9C9sDQGyzGI6t3ei8P2s0LZoRWvnHmt7uGLAsmgYELZ9wax0o_DyTjswfOjBZ6I2R7eOx9HjrbsU0XBflFFr7EvTYxWWCjXkzaJ69tZVS-84HJEbsCuFCouiKo58i0CBY-Mrs3SIZFZMvu-F1qmC_GTaujQJO26GTGd21ZF69QF9_nysI9sNW_oSGjhg07ADMIbs5gIa4NlX8soPCcEGhB7aFmS6yAfpVmhJLIU0XvdCftCvMzvVKwpe_weqM_ohi3JjulpDpSdVzwSNRnRd8ypiYOCbnYMyxFvwJL8U7jryG4w0Br_VZ-_ceES9ZTm2BFqaDmzP88SIQ2_JuQO2HERke9eFhU03A1Bi3r8AFLPUAljwWEHYzYJZnBmfW6CnZsaQzhZ8j97MnkJeGci0uL6eq0p1QkuUPPBhMwgUtL3acTGVR_FNkD-E1omvpcERrrS9zU1clVzZfE24wWX08tI0vueHAPTN_Fn81mvP733fj-tQ5mPqkBkxPb1ZRR5jM2r76LeLQPmc-95mwGqYUqCpgXiAnnQqiJr4tz04qzZpkpiQAem2irJ_vIaFvhpT_FhfxJ_gVcEF1ihZCV6KCsievzUhzPn1iKia03Ak8XOacgrzw1XkZEgcyLsheGntLsvap07Cqk2r5oMtKabsdgt0e_Lgj0-H9xq2HZHFI7TdQHvrTfPd7onTAVZHN6YVLnFc7IUs3Rf_H1Xlf7tQNUlv-Cfbo5StFv5IUSjUa5qIDbsGGqXh4I3b7kYzTl4Zx2cxXqt4K6URgjF_HBo7s8veF0tf59kstP46M1a64fcGOjJtZPeAgcKLA51SDCsaQbMdT9oCaEBm9adewuuMvhSBaI3I1hnvMEQLUZXrjZYsN1vMhu_tZ_uzIKLxaG4VFdBKC0NvylvrNK_4eFZfJ2oDhmxaSJi7kx8SNFwZgHlLv0_T2SFI4b5t14rqeyLAjtVwNGdTC0lDgTadAf92k3eB1akx3XxMaq6daUy2tOIyYpvuCOa3Q4BcFO0kgJfojePfbG7TzSiY772kG1SeT4K7Qt0lDqALTATDTYU83_gjgP9k_E6PcCEQGyRfmMF5RWVWiAxCXqMrgwgIEpXuuAhwqBODsB3AkRgol2FF2177GbcuU2tyPJr4ZZEVm40]--></g></svg>