<svg xmlns="http://www.w3.org/2000/svg" xmlns:xlink="http://www.w3.org/1999/xlink" contentStyleType="text/css" data-diagram-type="CLASS" height="891.4583px" preserveAspectRatio="none" style="width:1448px;height:891px;background:#FFFFFF;" version="1.1" viewBox="0 0 1448 891" width="1448.3333px" zoomAndPan="magnify"><title>Architectural Patterns - Layered MVC with Session Facade (EJB) and Remote Facade (JAX-RS)</title><defs/><g><g class="title" data-source-line="8"><text fill="#000000" font-family="Helvetica" font-size="17.1875" font-weight="bold" lengthAdjust="spacing" textLength="903.4012" x="264.7317" y="27.4122">Architectural Patterns - Layered MVC with Session Facade (EJB) and Remote Facade (JAX-RS)</text></g><rect fill="#FFFFFF" height="829.1178" rx="2.2917" ry="2.2917" style="stroke:#181818;stroke-width:1.7188;" width="1436.3021" x="5.7292" y="55.5282"/><path d="M289.982,55.5282 L289.982,66.1808 L278.5237,77.6392 L5.7292,77.6392" fill="none" style="stroke:#181818;stroke-width:1.7188;"/><text fill="#000000" font-family="Helvetica" font-size="16.0417" font-weight="bold" lengthAdjust="spacing" textLength="33.6342" x="9.1667" y="71.5642">pkg</text><text fill="#000000" font-family="Helvetica" font-size="16.0417" lengthAdjust="spacing" textLength="234.0611" x="47.9001" y="71.5642">DesignPatterns::LayeredMVC</text><!--cluster B--><g class="cluster" data-entity="B" data-source-line="15" data-uid="ent0006" id="cluster_B"><path d="M826.7188,185.3475 L1038.7986,185.3475 A3.4375,3.4375 0 0 1 1041.0903,187.6392 L1049.1111,208.2284 L1126.9271,208.2284 A2.2917,2.2917 0 0 1 1129.2188,210.52 L1129.2188,434.5662 A2.2917,2.2917 0 0 1 1126.9271,436.8579 L826.7188,436.8579 A2.2917,2.2917 0 0 1 824.4271,434.5662 L824.4271,187.6392 A2.2917,2.2917 0 0 1 826.7188,185.3475" fill="none" style="stroke:#555555;stroke-width:1.7188;"/><line style="stroke:#555555;stroke-width:1.7188;" x1="824.4271" x2="1049.1111" y1="208.2284" y2="208.2284"/><text fill="#000000" font-family="Helvetica" font-size="13.75" font-weight="bold" lengthAdjust="spacing" textLength="209.7882" x="829.0104" y="200.4022">Boundary (View + Remote)</text></g><!--cluster C--><g class="cluster" data-entity="C" data-source-line="20" data-uid="ent0010" id="cluster_C"><path d="M676.6146,491.285 L735.7458,491.285 A3.4375,3.4375 0 0 1 738.0375,493.5767 L746.0583,514.1659 L1185.3646,514.1659 A2.2917,2.2917 0 0 1 1187.6563,516.4575 L1187.6563,721.5975 A2.2917,2.2917 0 0 1 1185.3646,723.8892 L676.6146,723.8892 A2.2917,2.2917 0 0 1 674.3229,721.5975 L674.3229,493.5767 A2.2917,2.2917 0 0 1 676.6146,491.285" fill="none" style="stroke:#555555;stroke-width:1.7188;"/><line style="stroke:#555555;stroke-width:1.7188;" x1="674.3229" x2="746.0583" y1="514.1659" y2="514.1659"/><text fill="#000000" font-family="Helvetica" font-size="13.75" font-weight="bold" lengthAdjust="spacing" textLength="56.8396" x="678.9063" y="506.3397">Control</text></g><!--cluster E--><g class="cluster" data-entity="E" data-source-line="28" data-uid="ent0017" id="cluster_E"><path d="M606.7188,761.7017 L655.0138,761.7017 A3.4375,3.4375 0 0 1 657.3055,763.9933 L665.3263,784.5825 L1152.1354,784.5825 A2.2917,2.2917 0 0 1 1154.4271,786.8742 L1154.4271,860.2433 A2.2917,2.2917 0 0 1 1152.1354,862.535 L606.7188,862.535 A2.2917,2.2917 0 0 1 604.4271,860.2433 L604.4271,763.9933 A2.2917,2.2917 0 0 1 606.7188,761.7017" fill="none" style="stroke:#555555;stroke-width:1.7188;"/><line style="stroke:#555555;stroke-width:1.7188;" x1="604.4271" x2="665.3263" y1="784.5825" y2="784.5825"/><text fill="#000000" font-family="Helvetica" font-size="13.75" font-weight="bold" lengthAdjust="spacing" textLength="46.0034" x="609.0104" y="776.7564">Entity</text></g><!--class V--><g class="entity" data-entity="V" data-source-line="16" data-uid="ent0007" id="entity_V"><rect fill="#F7FAFD" height="61.8034" rx="2.2917" ry="2.2917" style="stroke:#2F5D8A;stroke-width:0.5729;" width="172.4927" x="937.2917" y="356.6496"/><rect fill="#E3EEF8" height="43.4701" rx="2.2917" ry="2.2917" style="stroke:#E3EEF8;stroke-width:0.5729;" width="172.4927" x="937.2917" y="356.6496"/><rect fill="#E3EEF8" height="2.2917" style="stroke:#E3EEF8;stroke-width:0.5729;" width="172.4927" x="937.2917" y="397.828"/><rect fill="none" height="61.8034" rx="2.2917" ry="2.2917" style="stroke:#2F5D8A;stroke-width:0.5729;" width="172.4927" x="937.2917" y="356.6496"/><text fill="#000000" font-family="Helvetica" font-size="13.75" lengthAdjust="spacing" textLength="112.2626" x="967.4067" y="375.1418">*.xhtml Facelets</text><text fill="#000000" font-family="Helvetica" font-size="13.75" lengthAdjust="spacing" textLength="165.6177" x="940.7292" y="391.1477">(PrimeFaces, Bootstrap)</text><line style="stroke:#2F5D8A;stroke-width:0.5729;" x1="938.4375" x2="1108.6385" y1="400.1196" y2="400.1196"/><line style="stroke:#2F5D8A;stroke-width:0.5729;" x1="938.4375" x2="1108.6385" y1="409.2863" y2="409.2863"/></g><!--class FacesServlet--><g class="entity" data-entity="FacesServlet" data-source-line="17" data-uid="ent0008" id="entity_FacesServlet"><rect fill="#F7FAFD" height="45.7975" rx="2.2917" ry="2.2917" style="stroke:#2F5D8A;stroke-width:0.5729;" width="95.0415" x="1015.2083" y="222.0142"/><rect fill="#E3EEF8" height="27.4642" rx="2.2917" ry="2.2917" style="stroke:#E3EEF8;stroke-width:0.5729;" width="95.0415" x="1015.2083" y="222.0142"/><rect fill="#E3EEF8" height="2.2917" style="stroke:#E3EEF8;stroke-width:0.5729;" width="95.0415" x="1015.2083" y="247.1867"/><rect fill="none" height="45.7975" rx="2.2917" ry="2.2917" style="stroke:#2F5D8A;stroke-width:0.5729;" width="95.0415" x="1015.2083" y="222.0142"/><text fill="#000000" font-family="Helvetica" font-size="13.75" lengthAdjust="spacing" textLength="88.1665" x="1018.6458" y="240.5064">FacesServlet</text><line style="stroke:#2F5D8A;stroke-width:0.5729;" x1="1016.3542" x2="1109.104" y1="249.4784" y2="249.4784"/><line style="stroke:#2F5D8A;stroke-width:0.5729;" x1="1016.3542" x2="1109.104" y1="258.645" y2="258.645"/></g><!--class EP--><g class="entity" data-entity="EP" data-source-line="18" data-uid="ent0009" id="entity_EP"><rect fill="#F7FAFD" height="45.7975" rx="2.2917" ry="2.2917" style="stroke:#2F5D8A;stroke-width:0.5729;" width="131.2561" x="843.3333" y="222.0142"/><rect fill="#E3EEF8" height="27.4642" rx="2.2917" ry="2.2917" style="stroke:#E3EEF8;stroke-width:0.5729;" width="131.2561" x="843.3333" y="222.0142"/><rect fill="#E3EEF8" height="2.2917" style="stroke:#E3EEF8;stroke-width:0.5729;" width="131.2561" x="843.3333" y="247.1867"/><rect fill="none" height="45.7975" rx="2.2917" ry="2.2917" style="stroke:#2F5D8A;stroke-width:0.5729;" width="131.2561" x="843.3333" y="222.0142"/><text fill="#000000" font-family="Helvetica" font-size="13.75" lengthAdjust="spacing" textLength="124.3811" x="846.7708" y="240.5064">&lt;Entity&gt;Endpoint</text><line style="stroke:#2F5D8A;stroke-width:0.5729;" x1="844.4792" x2="973.4436" y1="249.4784" y2="249.4784"/><line style="stroke:#2F5D8A;stroke-width:0.5729;" x1="844.4792" x2="973.4436" y1="258.645" y2="258.645"/></g><!--class CatalogBean--><g class="entity" data-entity="CatalogBean" data-source-line="21" data-uid="ent0011" id="entity_CatalogBean"><rect fill="#F7FAFD" height="45.7975" rx="2.2917" ry="2.2917" style="stroke:#2F5D8A;stroke-width:0.5729;" width="94.7125" x="696.6667" y="527.9517"/><rect fill="#E3EEF8" height="27.4642" rx="2.2917" ry="2.2917" style="stroke:#E3EEF8;stroke-width:0.5729;" width="94.7125" x="696.6667" y="527.9517"/><rect fill="#E3EEF8" height="2.2917" style="stroke:#E3EEF8;stroke-width:0.5729;" width="94.7125" x="696.6667" y="553.1242"/><rect fill="none" height="45.7975" rx="2.2917" ry="2.2917" style="stroke:#2F5D8A;stroke-width:0.5729;" width="94.7125" x="696.6667" y="527.9517"/><text fill="#000000" font-family="Helvetica" font-size="13.75" lengthAdjust="spacing" textLength="87.8375" x="700.1042" y="546.4439">CatalogBean</text><line style="stroke:#2F5D8A;stroke-width:0.5729;" x1="697.8125" x2="790.2334" y1="555.4159" y2="555.4159"/><line style="stroke:#2F5D8A;stroke-width:0.5729;" x1="697.8125" x2="790.2334" y1="564.5825" y2="564.5825"/></g><!--class ShoppingCartBean--><g class="entity" data-entity="ShoppingCartBean" data-source-line="22" data-uid="ent0012" id="entity_ShoppingCartBean"><rect fill="#F7FAFD" height="45.7975" rx="2.2917" ry="2.2917" style="stroke:#2F5D8A;stroke-width:0.5729;" width="135.553" x="832.4479" y="527.9517"/><rect fill="#E3EEF8" height="27.4642" rx="2.2917" ry="2.2917" style="stroke:#E3EEF8;stroke-width:0.5729;" width="135.553" x="832.4479" y="527.9517"/><rect fill="#E3EEF8" height="2.2917" style="stroke:#E3EEF8;stroke-width:0.5729;" width="135.553" x="832.4479" y="553.1242"/><rect fill="none" height="45.7975" rx="2.2917" ry="2.2917" style="stroke:#2F5D8A;stroke-width:0.5729;" width="135.553" x="832.4479" y="527.9517"/><text fill="#000000" font-family="Helvetica" font-size="13.75" lengthAdjust="spacing" textLength="128.678" x="835.8854" y="546.4439">ShoppingCartBean</text><line style="stroke:#2F5D8A;stroke-width:0.5729;" x1="833.5938" x2="966.8551" y1="555.4159" y2="555.4159"/><line style="stroke:#2F5D8A;stroke-width:0.5729;" x1="833.5938" x2="966.8551" y1="564.5825" y2="564.5825"/></g><!--class AccountBean--><g class="entity" data-entity="AccountBean" data-source-line="23" data-uid="ent0013" id="entity_AccountBean"><rect fill="#F7FAFD" height="45.7975" rx="2.2917" ry="2.2917" style="stroke:#2F5D8A;stroke-width:0.5729;" width="97.6666" x="1008.3333" y="527.9517"/><rect fill="#E3EEF8" height="27.4642" rx="2.2917" ry="2.2917" style="stroke:#E3EEF8;stroke-width:0.5729;" width="97.6666" x="1008.3333" y="527.9517"/><rect fill="#E3EEF8" height="2.2917" style="stroke:#E3EEF8;stroke-width:0.5729;" width="97.6666" x="1008.3333" y="553.1242"/><rect fill="none" height="45.7975" rx="2.2917" ry="2.2917" style="stroke:#2F5D8A;stroke-width:0.5729;" width="97.6666" x="1008.3333" y="527.9517"/><text fill="#000000" font-family="Helvetica" font-size="13.75" lengthAdjust="spacing" textLength="90.7916" x="1011.7708" y="546.4439">AccountBean</text><line style="stroke:#2F5D8A;stroke-width:0.5729;" x1="1009.4792" x2="1104.8541" y1="555.4159" y2="555.4159"/><line style="stroke:#2F5D8A;stroke-width:0.5729;" x1="1009.4792" x2="1104.8541" y1="564.5825" y2="564.5825"/></g><!--class CatalogService--><g class="entity" data-entity="CatalogService" data-source-line="24" data-uid="ent0014" id="entity_CatalogService"><rect fill="#F7FAFD" height="61.8034" rx="2.2917" ry="2.2917" style="stroke:#2F5D8A;stroke-width:0.5729;" width="110.4968" x="692.6563" y="643.6808"/><rect fill="#E3EEF8" height="43.4701" rx="2.2917" ry="2.2917" style="stroke:#E3EEF8;stroke-width:0.5729;" width="110.4968" x="692.6563" y="643.6808"/><rect fill="#E3EEF8" height="2.2917" style="stroke:#E3EEF8;stroke-width:0.5729;" width="110.4968" x="692.6563" y="684.8592"/><rect fill="none" height="61.8034" rx="2.2917" ry="2.2917" style="stroke:#2F5D8A;stroke-width:0.5729;" width="110.4968" x="692.6563" y="643.6808"/><text fill="#000000" font-family="Helvetica" font-size="13.75" font-style="italic" lengthAdjust="spacing" textLength="79.9756" x="707.9169" y="662.1731">&#171;Stateless&#187;</text><text fill="#000000" font-family="Helvetica" font-size="13.75" lengthAdjust="spacing" textLength="103.6218" x="696.0938" y="678.1789">CatalogService</text><line style="stroke:#2F5D8A;stroke-width:0.5729;" x1="693.8021" x2="802.0072" y1="687.1509" y2="687.1509"/><line style="stroke:#2F5D8A;stroke-width:0.5729;" x1="693.8021" x2="802.0072" y1="696.3175" y2="696.3175"/></g><!--class PurchaseOrderService--><g class="entity" data-entity="PurchaseOrderService" data-source-line="25" data-uid="ent0015" id="entity_PurchaseOrderService"><rect fill="#F7FAFD" height="61.8034" rx="2.2917" ry="2.2917" style="stroke:#2F5D8A;stroke-width:0.5729;" width="159.9915" x="1008.9062" y="643.6808"/><rect fill="#E3EEF8" height="43.4701" rx="2.2917" ry="2.2917" style="stroke:#E3EEF8;stroke-width:0.5729;" width="159.9915" x="1008.9062" y="643.6808"/><rect fill="#E3EEF8" height="2.2917" style="stroke:#E3EEF8;stroke-width:0.5729;" width="159.9915" x="1008.9062" y="684.8592"/><rect fill="none" height="61.8034" rx="2.2917" ry="2.2917" style="stroke:#2F5D8A;stroke-width:0.5729;" width="159.9915" x="1008.9062" y="643.6808"/><text fill="#000000" font-family="Helvetica" font-size="13.75" font-style="italic" lengthAdjust="spacing" textLength="79.9756" x="1048.9142" y="662.1731">&#171;Stateless&#187;</text><text fill="#000000" font-family="Helvetica" font-size="13.75" lengthAdjust="spacing" textLength="153.1165" x="1012.3437" y="678.1789">PurchaseOrderService</text><line style="stroke:#2F5D8A;stroke-width:0.5729;" x1="1010.0521" x2="1167.7519" y1="687.1509" y2="687.1509"/><line style="stroke:#2F5D8A;stroke-width:0.5729;" x1="1010.0521" x2="1167.7519" y1="696.3175" y2="696.3175"/></g><!--class CustomerService--><g class="entity" data-entity="CustomerService" data-source-line="26" data-uid="ent0016" id="entity_CustomerService"><rect fill="#F7FAFD" height="61.8034" rx="2.2917" ry="2.2917" style="stroke:#2F5D8A;stroke-width:0.5729;" width="124.4818" x="843.3333" y="643.6808"/><rect fill="#E3EEF8" height="43.4701" rx="2.2917" ry="2.2917" style="stroke:#E3EEF8;stroke-width:0.5729;" width="124.4818" x="843.3333" y="643.6808"/><rect fill="#E3EEF8" height="2.2917" style="stroke:#E3EEF8;stroke-width:0.5729;" width="124.4818" x="843.3333" y="684.8592"/><rect fill="none" height="61.8034" rx="2.2917" ry="2.2917" style="stroke:#2F5D8A;stroke-width:0.5729;" width="124.4818" x="843.3333" y="643.6808"/><text fill="#000000" font-family="Helvetica" font-size="13.75" font-style="italic" lengthAdjust="spacing" textLength="79.9756" x="865.5864" y="662.1731">&#171;Stateless&#187;</text><text fill="#000000" font-family="Helvetica" font-size="13.75" lengthAdjust="spacing" textLength="117.6068" x="846.7708" y="678.1789">CustomerService</text><line style="stroke:#2F5D8A;stroke-width:0.5729;" x1="844.4792" x2="966.6693" y1="687.1509" y2="687.1509"/><line style="stroke:#2F5D8A;stroke-width:0.5729;" x1="844.4792" x2="966.6693" y1="696.3175" y2="696.3175"/></g><!--class Category--><g class="entity" data-entity="Category" data-source-line="29" data-uid="ent0018" id="entity_Category"><rect fill="#F7FAFD" height="45.7975" rx="2.2917" ry="2.2917" style="stroke:#2F5D8A;stroke-width:0.5729;" width="69.6832" x="623.3333" y="798.3683"/><rect fill="#E3EEF8" height="27.4642" rx="2.2917" ry="2.2917" style="stroke:#E3EEF8;stroke-width:0.5729;" width="69.6832" x="623.3333" y="798.3683"/><rect fill="#E3EEF8" height="2.2917" style="stroke:#E3EEF8;stroke-width:0.5729;" width="69.6832" x="623.3333" y="823.5409"/><rect fill="none" height="45.7975" rx="2.2917" ry="2.2917" style="stroke:#2F5D8A;stroke-width:0.5729;" width="69.6832" x="623.3333" y="798.3683"/><text fill="#000000" font-family="Helvetica" font-size="13.75" lengthAdjust="spacing" textLength="62.8082" x="626.7708" y="816.8606">Category</text><line style="stroke:#2F5D8A;stroke-width:0.5729;" x1="624.4792" x2="691.8707" y1="825.8325" y2="825.8325"/><line style="stroke:#2F5D8A;stroke-width:0.5729;" x1="624.4792" x2="691.8707" y1="834.9992" y2="834.9992"/></g><!--class Product--><g class="entity" data-entity="Product" data-source-line="30" data-uid="ent0019" id="entity_Product"><rect fill="#F7FAFD" height="45.7975" rx="2.2917" ry="2.2917" style="stroke:#2F5D8A;stroke-width:0.5729;" width="59.6259" x="733.9063" y="798.3683"/><rect fill="#E3EEF8" height="27.4642" rx="2.2917" ry="2.2917" style="stroke:#E3EEF8;stroke-width:0.5729;" width="59.6259" x="733.9063" y="798.3683"/><rect fill="#E3EEF8" height="2.2917" style="stroke:#E3EEF8;stroke-width:0.5729;" width="59.6259" x="733.9063" y="823.5409"/><rect fill="none" height="45.7975" rx="2.2917" ry="2.2917" style="stroke:#2F5D8A;stroke-width:0.5729;" width="59.6259" x="733.9063" y="798.3683"/><text fill="#000000" font-family="Helvetica" font-size="13.75" lengthAdjust="spacing" textLength="52.7509" x="737.3438" y="816.8606">Product</text><line style="stroke:#2F5D8A;stroke-width:0.5729;" x1="735.0521" x2="792.3863" y1="825.8325" y2="825.8325"/><line style="stroke:#2F5D8A;stroke-width:0.5729;" x1="735.0521" x2="792.3863" y1="834.9992" y2="834.9992"/></g><!--class Item--><g class="entity" data-entity="Item" data-source-line="31" data-uid="ent0020" id="entity_Item"><rect fill="#F7FAFD" height="45.7975" rx="2.2917" ry="2.2917" style="stroke:#2F5D8A;stroke-width:0.5729;" width="38.175" x="834.1667" y="798.3683"/><rect fill="#E3EEF8" height="27.4642" rx="2.2917" ry="2.2917" style="stroke:#E3EEF8;stroke-width:0.5729;" width="38.175" x="834.1667" y="798.3683"/><rect fill="#E3EEF8" height="2.2917" style="stroke:#E3EEF8;stroke-width:0.5729;" width="38.175" x="834.1667" y="823.5409"/><rect fill="none" height="45.7975" rx="2.2917" ry="2.2917" style="stroke:#2F5D8A;stroke-width:0.5729;" width="38.175" x="834.1667" y="798.3683"/><text fill="#000000" font-family="Helvetica" font-size="13.75" lengthAdjust="spacing" textLength="31.3" x="837.6042" y="816.8606">Item</text><line style="stroke:#2F5D8A;stroke-width:0.5729;" x1="835.3125" x2="871.1959" y1="825.8325" y2="825.8325"/><line style="stroke:#2F5D8A;stroke-width:0.5729;" x1="835.3125" x2="871.1959" y1="834.9992" y2="834.9992"/></g><!--class Customer--><g class="entity" data-entity="Customer" data-source-line="32" data-uid="ent0021" id="entity_Customer"><rect fill="#F7FAFD" height="45.7975" rx="2.2917" ry="2.2917" style="stroke:#2F5D8A;stroke-width:0.5729;" width="73.6646" x="912.6562" y="798.3683"/><rect fill="#E3EEF8" height="27.4642" rx="2.2917" ry="2.2917" style="stroke:#E3EEF8;stroke-width:0.5729;" width="73.6646" x="912.6562" y="798.3683"/><rect fill="#E3EEF8" height="2.2917" style="stroke:#E3EEF8;stroke-width:0.5729;" width="73.6646" x="912.6562" y="823.5409"/><rect fill="none" height="45.7975" rx="2.2917" ry="2.2917" style="stroke:#2F5D8A;stroke-width:0.5729;" width="73.6646" x="912.6562" y="798.3683"/><text fill="#000000" font-family="Helvetica" font-size="13.75" lengthAdjust="spacing" textLength="66.7896" x="916.0937" y="816.8606">Customer</text><line style="stroke:#2F5D8A;stroke-width:0.5729;" x1="913.8021" x2="985.175" y1="825.8325" y2="825.8325"/><line style="stroke:#2F5D8A;stroke-width:0.5729;" x1="913.8021" x2="985.175" y1="834.9992" y2="834.9992"/></g><!--class PurchaseOrder--><g class="entity" data-entity="PurchaseOrder" data-source-line="33" data-uid="ent0022" id="entity_PurchaseOrder"><rect fill="#F7FAFD" height="45.7975" rx="2.2917" ry="2.2917" style="stroke:#2F5D8A;stroke-width:0.5729;" width="109.1742" x="1026.6667" y="798.3683"/><rect fill="#E3EEF8" height="27.4642" rx="2.2917" ry="2.2917" style="stroke:#E3EEF8;stroke-width:0.5729;" width="109.1742" x="1026.6667" y="798.3683"/><rect fill="#E3EEF8" height="2.2917" style="stroke:#E3EEF8;stroke-width:0.5729;" width="109.1742" x="1026.6667" y="823.5409"/><rect fill="none" height="45.7975" rx="2.2917" ry="2.2917" style="stroke:#2F5D8A;stroke-width:0.5729;" width="109.1742" x="1026.6667" y="798.3683"/><text fill="#000000" font-family="Helvetica" font-size="13.75" lengthAdjust="spacing" textLength="102.2992" x="1030.1042" y="816.8606">PurchaseOrder</text><line style="stroke:#2F5D8A;stroke-width:0.5729;" x1="1027.8125" x2="1134.695" y1="825.8325" y2="825.8325"/><line style="stroke:#2F5D8A;stroke-width:0.5729;" x1="1027.8125" x2="1134.695" y1="834.9992" y2="834.9992"/></g><!--entity MVC--><g class="entity" data-entity="MVC" data-source-line="10" data-uid="ent0002" id="entity_MVC"><ellipse cx="1252.6894" cy="244.7903" fill="#FFFFFF" rx="55.2936" ry="14.7554" style="stroke:#2F5D8A;stroke-width:0.5729;stroke-dasharray:8.0208,8.0208;"/><text fill="#000000" font-family="Helvetica" font-size="13.75" lengthAdjust="spacing" textLength="73.3356" x="1216.0216" y="248.7829">mvc : MVC</text></g><!--entity FC--><g class="entity" data-entity="FC" data-source-line="11" data-uid="ent0003" id="entity_FC"><ellipse cx="1087.0159" cy="112.7403" fill="#FFFFFF" rx="81.5471" ry="19.0594" style="stroke:#2F5D8A;stroke-width:0.5729;stroke-dasharray:8.0208,8.0208;"/><text fill="#000000" font-family="Helvetica" font-size="13.75" lengthAdjust="spacing" textLength="134.1632" x="1019.9343" y="116.7328">fc : Front Controller</text></g><!--entity SF--><g class="entity" data-entity="SF" data-source-line="12" data-uid="ent0004" id="entity_SF"><ellipse cx="1287.0628" cy="550.8121" fill="#FFFFFF" rx="80.5003" ry="18.8501" style="stroke:#2F5D8A;stroke-width:0.5729;stroke-dasharray:8.0208,8.0208;"/><text fill="#000000" font-family="Helvetica" font-size="13.75" lengthAdjust="spacing" textLength="131.7194" x="1221.2031" y="554.8046">sf : Session Facade</text></g><!--entity RF--><g class="entity" data-entity="RF" data-source-line="13" data-uid="ent0005" id="entity_RF"><ellipse cx="885.3191" cy="112.5051" fill="#FFFFFF" rx="80.3712" ry="18.8242" style="stroke:#2F5D8A;stroke-width:0.5729;stroke-dasharray:8.0208,8.0208;"/><text fill="#000000" font-family="Helvetica" font-size="13.75" lengthAdjust="spacing" textLength="131.4172" x="819.6105" y="116.4976">rf : Remote Facade</text></g><g class="entity" data-entity="GMN49" data-source-line="65" data-uid="ent0050" id="entity_GMN49"><path d="M18.3333,354.9308 L18.3333,420.494 A2.2917,2.2917 0 0 0 20.625,422.7856 L379.6351,422.7856 A2.2917,2.2917 0 0 0 381.9267,420.494 L381.9267,364.0975 L370.4684,352.6392 L20.625,352.6392 A2.2917,2.2917 0 0 0 18.3333,354.9308" fill="#FFFBE6" style="stroke:#B59F3B;stroke-width:0.5729;"/><path d="M370.4684,352.6392 L370.4684,362.9517 A1.1458,1.1458 0 0 0 371.6142,364.0975 L381.9267,364.0975 L370.4684,352.6392" fill="#FFFBE6" style="stroke:#B59F3B;stroke-width:1.1458;"/><text fill="#000000" font-family="Helvetica" font-size="12.6042" lengthAdjust="spacing" textLength="339.5309" x="25.2083" y="370.0678">REST endpoints and admin &lt;Entity&gt;Beans talk to the</text><text fill="#000000" font-family="Helvetica" font-size="12.6042" lengthAdjust="spacing" textLength="337.74" x="25.2083" y="384.7398">EntityManager directly instead of reusing the Session</text><text fill="#000000" font-family="Helvetica" font-size="12.6042" lengthAdjust="spacing" textLength="324.8342" x="25.2083" y="399.4119">Facades (Finding ARCH-02: duplicated data access,</text><text fill="#000000" font-family="Helvetica" font-size="12.6042" lengthAdjust="spacing" textLength="309.2514" x="25.2083" y="414.0839">inconsistent validation / transaction boundaries).</text></g><!--link FacesServlet to V--><g class="link" data-entity-1="FacesServlet" data-entity-2="V" data-source-line="36" data-uid="lnk23" id="link_FacesServlet_V"><path codeLine="36" d="M1051.3365,267.9735 C1046.4438,278.1485 1041.0583,290.5579 1037.5521,302.2225 C1032.2698,319.811 1029.7575,333.3081 1027.6606,349.5675" fill="none" id="FacesServlet-to-V" style="stroke:#333333;stroke-width:1.1458;"/><polygon fill="#333333" points="1026.7813,356.386,1032.646,346.7445,1027.514,350.7039,1023.5546,345.572,1026.7813,356.386" style="stroke:#333333;stroke-width:1.1458;"/><text fill="#000000" font-family="Helvetica" font-size="12.6042" lengthAdjust="spacing" textLength="48.4288" x="1038.6979" y="315.0678">renders</text></g><!--link FacesServlet to CatalogBean--><g class="link" data-entity-1="FacesServlet" data-entity-2="CatalogBean" data-source-line="37" data-uid="lnk24" id="link_FacesServlet_CatalogBean"><path codeLine="37" d="M1014.9677,262.3131 C1008.3562,264.3069 1001.6073,266.2204 995.1562,267.8475 C856.9,302.6694 765.1417,234.1944 685.7813,352.6392 C648.2323,408.6704 693.8773,483.881 722.4888,522.2893" fill="none" id="FacesServlet-to-CatalogBean" style="stroke:#333333;stroke-width:1.1458;"/><polygon fill="#333333" points="726.5958,527.8027,724.1108,516.7946,723.1733,523.2082,716.7596,522.2707,726.5958,527.8027" style="stroke:#333333;stroke-width:1.1458;"/><text fill="#000000" font-family="Helvetica" font-size="12.6042" lengthAdjust="spacing" textLength="57.7896" x="686.9271" y="392.4115">EL action</text></g><!--link FacesServlet to ShoppingCartBean--><g class="link" data-entity-1="FacesServlet" data-entity-2="ShoppingCartBean" data-source-line="38" data-uid="lnk25" id="link_FacesServlet_ShoppingCartBean"><path codeLine="38" d="M1014.9677,261.5912 C968.699,276.636 903.8448,297.834 892.0312,302.2225 C837.2375,322.5725 803.0229,304.0329 770.5729,352.6392 C747.5302,387.1631 752.6063,408.6131 770.5729,446.0246 C773.3344,451.7652 828.7175,494.9535 866.0144,523.6452" fill="none" id="FacesServlet-to-ShoppingCartBean" style="stroke:#333333;stroke-width:1.1458;"/><polygon fill="#333333" points="871.4635,527.8371,866.0844,517.9164,866.9226,524.3438,860.4952,525.182,871.4635,527.8371" style="stroke:#333333;stroke-width:1.1458;"/><text fill="#000000" font-family="Helvetica" font-size="12.6042" lengthAdjust="spacing" textLength="57.7896" x="771.7188" y="392.4115">EL action</text></g><!--link FacesServlet to AccountBean--><g class="link" data-entity-1="FacesServlet" data-entity-2="AccountBean" data-source-line="39" data-uid="lnk26" id="link_FacesServlet_AccountBean"><path codeLine="39" d="M1014.8646,264.2037 C960.0021,286.0548 875.3594,323.4892 857.6563,352.6392 C836.1146,388.1142 832.5167,413.0017 857.6563,446.0246 C894.1396,493.9548 936.1115,452.0173 988.2812,482.1183 C1008.5854,493.8287 1022.7747,507.7249 1035.5163,522.6436" fill="none" id="FacesServlet-to-AccountBean" style="stroke:#333333;stroke-width:1.1458;"/><polygon fill="#333333" points="1039.9813,527.8715,1036.7691,517.0531,1036.2605,523.5149,1029.7987,523.0063,1039.9813,527.8715" style="stroke:#333333;stroke-width:1.1458;"/><text fill="#000000" font-family="Helvetica" font-size="12.6042" lengthAdjust="spacing" textLength="57.7896" x="858.8021" y="392.4115">EL action</text></g><!--link CatalogBean to CatalogService--><g class="link" data-entity-1="CatalogBean" data-entity-2="CatalogService" data-source-line="40" data-uid="lnk27" id="link_CatalogBean_CatalogService"><path codeLine="40" d="M744.849,574.2892 C745.399,593.7454 746.0063,615.2555 746.6136,636.6825" fill="none" id="CatalogBean-to-CatalogService" style="stroke:#333333;stroke-width:1.1458;"/><polygon fill="#333333" points="746.8083,643.5548,751.0977,633.1166,746.646,637.8279,741.9347,633.3763,746.8083,643.5548" style="stroke:#333333;stroke-width:1.1458;"/></g><!--link ShoppingCartBean to CatalogService--><g class="link" data-entity-1="ShoppingCartBean" data-entity-2="CatalogService" data-source-line="41" data-uid="lnk28" id="link_ShoppingCartBean_CatalogService"><path codeLine="41" d="M872.449,574.0142 C848.1,593.4246 817.7375,617.6132 790.7417,639.132" fill="none" id="ShoppingCartBean-to-CatalogService" style="stroke:#333333;stroke-width:1.1458;"/><polygon fill="#333333" points="785.3656,643.4173,796.2865,640.5733,789.8457,639.8462,790.5728,633.4053,785.3656,643.4173" style="stroke:#333333;stroke-width:1.1458;"/></g><!--link ShoppingCartBean to PurchaseOrderService--><g class="link" data-entity-1="ShoppingCartBean" data-entity-2="PurchaseOrderService" data-source-line="42" data-uid="lnk29" id="link_ShoppingCartBean_PurchaseOrderService"><path codeLine="42" d="M934.2896,574.0142 C964.6198,593.4933 1003.3743,618.3885 1036.9014,639.9301" fill="none" id="ShoppingCartBean-to-PurchaseOrderService" style="stroke:#333333;stroke-width:1.1458;"/><polygon fill="#333333" points="1042.6854,643.6465,1036.487,634.216,1037.8654,640.5495,1031.5319,641.928,1042.6854,643.6465" style="stroke:#333333;stroke-width:1.1458;"/></g><!--link AccountBean to CustomerService--><g class="link" data-entity-1="AccountBean" data-entity-2="CustomerService" data-source-line="43" data-uid="lnk30" id="link_AccountBean_CustomerService"><path codeLine="43" d="M1029.6458,574.0142 C1005.4687,593.4246 975.3661,617.5943 948.565,639.113" fill="none" id="AccountBean-to-CustomerService" style="stroke:#333333;stroke-width:1.1458;"/><polygon fill="#333333" points="943.2042,643.4173,954.115,640.5348,947.6716,639.8304,948.3759,633.387,943.2042,643.4173" style="stroke:#333333;stroke-width:1.1458;"/></g><!--link CatalogService to Category--><g class="link" data-entity-1="CatalogService" data-entity-2="Category" data-source-line="44" data-uid="lnk31" id="link_CatalogService_Category"><path codeLine="44" d="M729.1396,705.6819 C712.0552,733.2621 690.7302,767.7276 675.4448,792.4089" fill="none" id="CatalogService-to-Category" style="stroke:#333333;stroke-width:1.1458;stroke-dasharray:8.0208,8.0208;"/><polygon fill="#333333" points="671.825,798.2537,681.1513,791.8996,674.8415,793.383,673.3581,787.0732,671.825,798.2537" style="stroke:#333333;stroke-width:1.1458;"/></g><!--link CatalogService to Product--><g class="link" data-entity-1="CatalogService" data-entity-2="Product" data-source-line="45" data-uid="lnk32" id="link_CatalogService_Product"><path codeLine="45" d="M750.9792,705.6819 C754.05,733.2621 757.7574,766.7398 760.5074,791.421" fill="none" id="CatalogService-to-Product" style="stroke:#333333;stroke-width:1.1458;stroke-dasharray:8.0208,8.0208;"/><polygon fill="#333333" points="761.2688,798.2537,764.6819,787.4971,760.6343,792.5598,755.5716,788.5122,761.2688,798.2537" style="stroke:#333333;stroke-width:1.1458;"/></g><!--link CatalogService to Item--><g class="link" data-entity-1="CatalogService" data-entity-2="Item" data-source-line="46" data-uid="lnk33" id="link_CatalogService_Item"><path codeLine="46" d="M775.8896,705.6704 C788.2646,719.4433 802.5646,736.2985 814.1146,752.535 C824.4729,767.11 831.2528,778.5756 838.5403,792.1193" fill="none" id="CatalogService-to-Item" style="stroke:#333333;stroke-width:1.1458;stroke-dasharray:8.0208,8.0208;"/><polygon fill="#333333" points="841.7979,798.1735,840.9477,786.9205,839.0832,793.1283,832.8754,791.2639,841.7979,798.1735" style="stroke:#333333;stroke-width:1.1458;"/></g><!--link PurchaseOrderService to PurchaseOrder--><g class="link" data-entity-1="PurchaseOrderService" data-entity-2="PurchaseOrder" data-source-line="47" data-uid="lnk34" id="link_PurchaseOrderService_PurchaseOrder"><path codeLine="47" d="M1087.4531,705.6819 C1085.9177,733.2621 1084.0657,766.7081 1082.6907,791.3894" fill="none" id="PurchaseOrderService-to-PurchaseOrder" style="stroke:#333333;stroke-width:1.1458;stroke-dasharray:8.0208,8.0208;"/><polygon fill="#333333" points="1082.3083,798.2537,1087.4582,788.2122,1082.627,792.5334,1078.3057,787.7023,1082.3083,798.2537" style="stroke:#333333;stroke-width:1.1458;"/></g><!--link CustomerService to Customer--><g class="link" data-entity-1="CustomerService" data-entity-2="Customer" data-source-line="48" data-uid="lnk35" id="link_CustomerService_Customer"><path codeLine="48" d="M914.799,705.6819 C923.1177,733.2621 933.2888,766.9906 940.7367,791.6719" fill="none" id="CustomerService-to-Customer" style="stroke:#333333;stroke-width:1.1458;stroke-dasharray:8.0208,8.0208;"/><polygon fill="#333333" points="942.7229,798.2537,944.1316,787.0569,941.0678,792.7689,935.3558,789.7051,942.7229,798.2537" style="stroke:#333333;stroke-width:1.1458;"/></g><!--link EP to Category--><g class="link" data-entity-1="EP" data-entity-2="Category" data-source-line="49" data-uid="lnk36" id="link_EP_Category"><path codeLine="49" d="M842.8979,252.0923 C714.1406,265.6131 442.8646,303.8954 442.8646,386.4412 C442.8646,386.4412 442.8646,386.4412 442.8646,675.7642 C442.8646,761.5298 555.4418,798.0706 616.4918,811.9467" fill="none" id="EP-to-Category" style="stroke:#333333;stroke-width:1.1458;stroke-dasharray:8.0208,8.0208;"/><polygon fill="#333333" points="623.1958,813.4704,614.1556,806.7154,617.6092,812.2006,612.124,815.6541,623.1958,813.4704" style="stroke:#333333;stroke-width:1.1458;"/><text fill="#000000" font-family="Helvetica" font-size="12.6042" lengthAdjust="spacing" textLength="211.1013" x="444.0104" y="555.6928">EntityManager (bypasses facade)</text></g><!--link V to CatalogBean--><g class="link" data-entity-1="V" data-entity-2="CatalogBean" data-source-line="50" data-uid="lnk37" id="link_V_CatalogBean"><path codeLine="50" d="M972.8583,418.6392 C952.6344,429.1006 928.7552,439.7912 905.7812,446.0246 C875.7031,454.1829 789.6396,436.6173 765.9896,456.91 C745.8917,474.1548 742.3388,499.226 742.5565,520.7562" fill="none" id="V-to-CatalogBean" style="stroke:#333333;stroke-width:1.1458;stroke-dasharray:8.0208,8.0208;"/><polygon fill="#333333" points="742.626,527.6308,747.1049,517.2725,742.5681,521.902,737.9387,517.3652,742.626,527.6308" style="stroke:#333333;stroke-width:1.1458;"/><text fill="#000000" font-family="Helvetica" font-size="12.6042" lengthAdjust="spacing" textLength="115.5546" x="767.1354" y="469.7553">#{catalogBean.*}</text></g><!--link MVC to V--><g class="link" data-entity-1="MVC" data-entity-2="V" data-source-line="52" data-uid="lnk38" id="link_MVC_V"><path codeLine="52" d="M1226.6146,258.211 C1203.9729,268.9475 1170.675,285.4819 1142.9688,302.2225 C1115.4344,318.86 1085.8948,339.7256 1063.1042,356.5121" fill="none" id="MVC-V" style="stroke:#333333;stroke-width:1.1458;stroke-dasharray:8.0208,8.0208;"/><text fill="#000000" font-family="Helvetica" font-size="12.6042" lengthAdjust="spacing" textLength="29.024" x="1041.2933" y="344.396">view</text></g><!--link MVC to ShoppingCartBean--><g class="link" data-entity-1="MVC" data-entity-2="ShoppingCartBean" data-source-line="53" data-uid="lnk39" id="link_MVC_ShoppingCartBean"><path codeLine="53" d="M1254.0573,260.2621 C1256.0396,297.0319 1255.7875,396.0662 1201.4063,446.0246 C1130.6625,511.0277 1076.3615,443.7558 988.2812,482.1183 C963.3365,492.9808 939.1021,512.3912 922.3729,527.6308" fill="none" id="MVC-ShoppingCartBean" style="stroke:#333333;stroke-width:1.1458;stroke-dasharray:8.0208,8.0208;"/><text fill="#000000" font-family="Helvetica" font-size="12.6042" lengthAdjust="spacing" textLength="60.4052" x="860.3939" y="515.7642">controller</text></g><!--link MVC to CatalogBean--><g class="link" data-entity-1="MVC" data-entity-2="CatalogBean" data-source-line="54" data-uid="lnk40" id="link_MVC_CatalogBean"><path codeLine="54" d="M1245.4063,259.8381 C1221.4469,303.1621 1147.7698,434.5892 1129.2188,446.0246 C1105.9354,460.3819 1033.7938,453.8735 1006.6146,456.91 C953.5052,462.834 940.4542,466.1225 887.4479,472.9517 C854.3677,477.2142 843.001,467.6235 812.9688,482.1183 C791.4156,492.5225 772.4865,512.4027 759.974,527.9173" fill="none" id="MVC-CatalogBean" style="stroke:#333333;stroke-width:1.1458;stroke-dasharray:8.0208,8.0208;"/><text fill="#000000" font-family="Helvetica" font-size="12.6042" lengthAdjust="spacing" textLength="60.4052" x="695.7742" y="515.7787">controller</text></g><!--link MVC to AccountBean--><g class="link" data-entity-1="MVC" data-entity-2="AccountBean" data-source-line="55" data-uid="lnk41" id="link_MVC_AccountBean"><path codeLine="55" d="M1262.5938,259.609 C1269.7323,270.5287 1278.8646,286.5933 1282.7604,302.2225 C1301.0823,375.8537 1333.8073,416.8058 1282.7604,472.9517 C1268.3115,488.8444 1207.1125,476.011 1186.5104,482.1183 C1151.7458,492.4194 1115.4115,512.311 1090.1229,527.86" fill="none" id="MVC-AccountBean" style="stroke:#333333;stroke-width:1.1458;stroke-dasharray:8.0208,8.0208;"/><text fill="#000000" font-family="Helvetica" font-size="12.6042" lengthAdjust="spacing" textLength="60.4052" x="1031.7687" y="515.7017">controller</text></g><!--link MVC to PurchaseOrder--><g class="link" data-entity-1="MVC" data-entity-2="PurchaseOrder" data-source-line="56" data-uid="lnk42" id="link_MVC_PurchaseOrder"><path codeLine="56" d="M1288.249,256.4808 C1339.7542,274.0808 1429.4271,314.9985 1429.4271,386.4412 C1429.4271,386.4412 1429.4271,386.4412 1429.4271,675.7642 C1429.4271,801.2902 1234.0052,819.7725 1135.899,821.1475" fill="none" id="MVC-PurchaseOrder" style="stroke:#333333;stroke-width:1.1458;stroke-dasharray:8.0208,8.0208;"/><text fill="#000000" font-family="Helvetica" font-size="12.6042" lengthAdjust="spacing" textLength="39.2465" x="1144.9504" y="818.3007">model</text></g><!--link FC to FacesServlet--><g class="link" data-entity-1="FC" data-entity-2="FacesServlet" data-source-line="57" data-uid="lnk43" id="link_FC_FacesServlet"><path codeLine="57" d="M1083.4771,131.8142 C1079.1115,155.4069 1071.4802,196.6454 1066.8052,221.9569" fill="none" id="FC-FacesServlet" style="stroke:#333333;stroke-width:1.1458;stroke-dasharray:8.0208,8.0208;"/><text fill="#000000" font-family="Helvetica" font-size="12.6042" lengthAdjust="spacing" textLength="92.5372" x="960.9341" y="209.8104">frontController</text></g><!--link SF to CatalogService--><g class="link" data-entity-1="SF" data-entity-2="CatalogService" data-source-line="58" data-uid="lnk44" id="link_SF_CatalogService"><path codeLine="58" d="M1230.9917,564.584 C1216.8521,567.6662 1201.7156,570.8975 1187.6563,573.785 C1026.1167,606.911 981.6469,597.7329 823.2813,643.6808 C816.6354,645.6058 809.7719,647.886 803,650.3152" fill="none" id="SF-CatalogService" style="stroke:#333333;stroke-width:1.1458;stroke-dasharray:8.0208,8.0208;"/><text fill="#000000" font-family="Helvetica" font-size="12.6042" lengthAdjust="spacing" textLength="42.5698" x="791.1646" y="634.4143">facade</text></g><!--link SF to PurchaseOrderService--><g class="link" data-entity-1="SF" data-entity-2="PurchaseOrderService" data-source-line="59" data-uid="lnk45" id="link_SF_PurchaseOrderService"><path codeLine="59" d="M1259.7865,568.9037 C1228.2875,588.1996 1176.175,620.134 1137.801,643.6465" fill="none" id="SF-PurchaseOrderService" style="stroke:#333333;stroke-width:1.1458;stroke-dasharray:8.0208,8.0208;"/><text fill="#000000" font-family="Helvetica" font-size="12.6042" lengthAdjust="spacing" textLength="42.5698" x="1102.8733" y="631.5581">facade</text></g><!--link SF to CustomerService--><g class="link" data-entity-1="SF" data-entity-2="CustomerService" data-source-line="60" data-uid="lnk46" id="link_SF_CustomerService"><path codeLine="60" d="M1239.15,566.1423 C1180.0708,583.6162 1077.0031,614.634 989.4271,643.6808 C982.5521,645.961 975.3792,648.4131 968.2521,650.8881" fill="none" id="SF-CustomerService" style="stroke:#333333;stroke-width:1.1458;stroke-dasharray:8.0208,8.0208;"/><text fill="#000000" font-family="Helvetica" font-size="12.6042" lengthAdjust="spacing" textLength="42.5698" x="977.0282" y="636.5678">facade</text></g><!--link SF to Item--><g class="link" data-entity-1="SF" data-entity-2="Item" data-source-line="61" data-uid="lnk47" id="link_SF_Item"><path codeLine="61" d="M1283.5396,569.809 C1274.4531,607.4725 1247.5948,694.911 1187.6563,733.0558 C1132.324,768.2673 949.0594,718.2173 893.1771,752.535 C876.551,762.7444 865.9865,782.6475 859.8906,798.2194" fill="none" id="SF-Item" style="stroke:#333333;stroke-width:1.1458;stroke-dasharray:8.0208,8.0208;"/><text fill="#000000" font-family="Helvetica" font-size="12.6042" lengthAdjust="spacing" textLength="68.1228" x="800.231" y="786.2454">subsystem</text></g><!--link RF to EP--><g class="link" data-entity-1="RF" data-entity-2="EP" data-source-line="62" data-uid="lnk48" id="link_RF_EP"><path codeLine="62" d="M888.5021,131.8142 C892.8677,155.4069 900.499,196.6454 905.174,221.9569" fill="none" id="RF-EP" style="stroke:#333333;stroke-width:1.1458;stroke-dasharray:8.0208,8.0208;"/><text fill="#000000" font-family="Helvetica" font-size="12.6042" lengthAdjust="spacing" textLength="91.0048" x="797.8761" y="209.8104">remoteFacade</text></g><!--link EP to GMN49--><g class="link" data-entity-1="EP" data-entity-2="GMN49" data-source-line="65" data-uid="lnk51" id="link_EP_GMN49"><path d="M843.2302,248.036 C747.2323,252.1037 564.0479,264.559 413.0729,302.2225 C364.6271,314.311 312.4573,334.7871 271.8604,352.5246" fill="none" id="EP-GMN49" style="stroke:#333333;stroke-width:1.1458;stroke-dasharray:8.0208,8.0208;"/></g><!--SRC=[ZLLRRzem57xthpYZ3mK6wRH7LA52HhHLhOR8XFOmQN8J0nQE7TaEBQhsttVi92M1h5eVgEBpdTjtRjTmj-SodK0eg37GfphPSSiIMsWg8AVMCYtDW5p3dIcoZEhZ11xNuGWYhQI547-q4eBf4SJC6AuaH3IXAGCgKrYnJ5bMlt095EQga2cQ6LUguuMqt1v1q2FJN6u3ye7BH1I83uARtyOU1GjuaGb2XL3F6Nz1434OT4urpQ0mBA66pPLEcOuT6b9gTYpjmD1alzNEVwY4qd0L-J-IKIutY6Cm7ERxxN08NvZXMxciifzC7bnmBCN42GQBBcOjcceWZA52EexWcTlTEIlznVryqC5D_txsSxoA1uHKmK8lEoJWoUu1DUx_IRHnalCAU5ZKG9aDejh-FIQEJXZjCArGF6GL4P8ZNNIBcBfaq5zpzWmVA_p08-VmIW0ItpszOV2oivbmbfXWrloI_QNc6NFVPeIrLzPOJVDITVscwEKnqmTKEbcxBLjZkf1fhhYqNccn97zEeLNPUqdOY2IabWgrdJCgtzxYdSfpR9wGQjiIp984Cso_LGPSJ3nXS7iRMsen9sEcqpVGii0sG1g_-zvx5neMnghiNwX6HcNEPQhjXDXMwUF9jrPfaPpO-cPPTk6jEr9qHvgCmtWyXJNsWMOInUPIsA0JOOi7e8d5fhe4ddFyFhf1V0lOTDTmNt57BfpyBwQhNgGPX3VKhXGvwuGWc9wAqI6hwz8XyYNgx1cls2hHURzujtLL5yjM68uxtpMFL68FQUW_7NEiEZEmyICz8EjQeL76gzVaz1qCiIdSqWe2w1rmp7iudlLtqjWn5rFK1MgENvUyEN6rF5Cfmq5kqn2LierRTSrDrreOSLI2glLrtWbjQMSFd5iuQu5AR8edSpHOn5vPobNvhFqsh9SdxYSYtJPzKXQDWDgu9u3L8lu1hDfanby0ccPu4kijvyWmWA7lmIgmEuPAxRAcNEF54KSyf1W5JPrjpGg3rN3uUjMZNXaCdlC8RxiJprRXr_6dpnD8Yrnmh3kUg1Hvmeb38iq8TV3gAcauMiQhSg22ezmTZXl0ZIrDEPgObRy5d9b1G30TSBd-1G00]--></g></svg>