<svg xmlns="http://www.w3.org/2000/svg" xmlns:xlink="http://www.w3.org/1999/xlink" contentStyleType="text/css" data-diagram-type="DESCRIPTION" height="1071.3542px" preserveAspectRatio="none" style="width:2677px;height:1071px;background:#FFFFFF;" version="1.1" viewBox="0 0 2677 1071" width="2677.8125px" zoomAndPan="magnify"><title>Deployment Diagram - WildFly 10..26 runtime with JTA DataSource</title><defs/><g><g class="title" data-source-line="6"><text fill="#000000" font-family="Helvetica" font-size="17.1875" font-weight="bold" lengthAdjust="spacing" textLength="649.659" x="1003.073" y="27.4122">Deployment Diagram - WildFly 10..26 runtime with JTA DataSource</text></g><rect fill="#FFFFFF" height="1008.9779" rx="2.2917" ry="2.2917" style="stroke:#181818;stroke-width:1.7188;" width="2666.1175" x="5.7292" y="55.5282"/><path d="M192.4396,55.5282 L192.4396,66.1808 L180.9812,77.6392 L5.7292,77.6392" fill="none" style="stroke:#181818;stroke-width:1.7188;"/><text fill="#000000" font-family="Helvetica" font-size="16.0417" font-weight="bold" lengthAdjust="spacing" textLength="33.8457" x="9.1667" y="71.5642">dep</text><text fill="#000000" font-family="Helvetica" font-size="16.0417" lengthAdjust="spacing" textLength="136.3072" x="48.1116" y="71.5642">PetStoreRuntime</text><!--cluster client--><g class="cluster" data-entity="client" data-source-line="8" data-uid="ent0002" id="cluster_client"><polygon fill="#F2F2F2" points="457.1875,105.1392,468.6458,93.6808,716.1458,93.6808,716.1458,225.4517,704.6875,236.91,457.1875,236.91,457.1875,105.1392" style="stroke:#555555;stroke-width:1.1458;"/><line style="stroke:#555555;stroke-width:1.1458;" x1="704.6875" x2="716.1458" y1="105.1392" y2="93.6808"/><line style="stroke:#555555;stroke-width:1.1458;" x1="457.1875" x2="704.6875" y1="105.1392" y2="105.1392"/><line style="stroke:#555555;stroke-width:1.1458;" x1="704.6875" x2="704.6875" y1="105.1392" y2="236.91"/><text fill="#000000" font-family="Helvetica" font-size="13.75" font-style="italic" lengthAdjust="spacing" textLength="62.1368" x="551.0149" y="121.3397">&#171;device&#187;</text><text fill="#000000" font-family="Helvetica" font-size="13.75" font-weight="bold" lengthAdjust="spacing" textLength="101.8829" x="531.1419" y="137.3456">Client Device</text></g><!--cluster host--><g class="cluster" data-entity="host" data-source-line="13" data-uid="ent0005" id="cluster_host"><polygon fill="#F2F2F2" points="29.7917,301.0767,41.25,289.6183,2014.375,289.6183,2014.375,894.0454,2002.9167,905.5037,29.7917,905.5037,29.7917,301.0767" style="stroke:#555555;stroke-width:1.1458;"/><line style="stroke:#555555;stroke-width:1.1458;" x1="2002.9167" x2="2014.375" y1="301.0767" y2="289.6183"/><line style="stroke:#555555;stroke-width:1.1458;" x1="29.7917" x2="2002.9167" y1="301.0767" y2="301.0767"/><line style="stroke:#555555;stroke-width:1.1458;" x1="2002.9167" x2="2002.9167" y1="301.0767" y2="905.5037"/><text fill="#000000" font-family="Helvetica" font-size="13.75" font-style="italic" lengthAdjust="spacing" textLength="62.1368" x="986.4316" y="317.2772">&#171;device&#187;</text><text fill="#000000" font-family="Helvetica" font-size="13.75" font-weight="bold" lengthAdjust="spacing" textLength="184.0674" x="925.4663" y="333.2831">Application Server Host</text></g><!--cluster jvm--><g class="cluster" data-entity="jvm" data-source-line="15" data-uid="ent0007" id="cluster_jvm"><polygon fill="#F2F2F2" points="89.375,368.6808,100.8333,357.2225,1986.875,357.2225,1986.875,866.5454,1975.4167,878.0037,89.375,878.0037,89.375,368.6808" style="stroke:#555555;stroke-width:1.1458;"/><line style="stroke:#555555;stroke-width:1.1458;" x1="1975.4167" x2="1986.875" y1="368.6808" y2="357.2225"/><line style="stroke:#555555;stroke-width:1.1458;" x1="89.375" x2="1975.4167" y1="368.6808" y2="368.6808"/><line style="stroke:#555555;stroke-width:1.1458;" x1="1975.4167" x2="1975.4167" y1="368.6808" y2="878.0037"/><text fill="#000000" font-family="Helvetica" font-size="13.75" font-style="italic" lengthAdjust="spacing" textLength="172.7411" x="947.1711" y="384.8814">&#171;executionEnvironment&#187;</text><text fill="#000000" font-family="Helvetica" font-size="13.75" font-weight="bold" lengthAdjust="spacing" textLength="105.307" x="980.8882" y="400.8872">JVM (Java 8+)</text></g><!--cluster wf--><g class="cluster" data-entity="wf" data-source-line="16" data-uid="ent0008" id="cluster_wf"><polygon fill="#F2F2F2" points="126.0417,445.4517,137.5,433.9933,1709.5833,433.9933,1709.5833,829.8787,1698.125,841.3371,126.0417,841.3371,126.0417,445.4517" style="stroke:#555555;stroke-width:1.1458;"/><line style="stroke:#555555;stroke-width:1.1458;" x1="1698.125" x2="1709.5833" y1="445.4517" y2="433.9933"/><line style="stroke:#555555;stroke-width:1.1458;" x1="126.0417" x2="1698.125" y1="445.4517" y2="445.4517"/><line style="stroke:#555555;stroke-width:1.1458;" x1="1698.125" x2="1698.125" y1="445.4517" y2="841.3371"/><text fill="#000000" font-family="Helvetica" font-size="13.75" font-style="italic" lengthAdjust="spacing" textLength="172.7411" x="826.8586" y="461.6522">&#171;executionEnvironment&#187;</text><text fill="#000000" font-family="Helvetica" font-size="13.75" font-weight="bold" lengthAdjust="spacing" textLength="154.1168" x="836.1708" y="477.6581">WildFly 26.1.3.Final</text><text fill="#000000" font-family="Helvetica" font-size="13.75" font-weight="bold" lengthAdjust="spacing" textLength="211.4734" x="807.4925" y="493.6639">(Java EE 7 Full/Web profile)</text></g><!--cluster dh--><g class="cluster" data-entity="dh" data-source-line="29" data-uid="ent0017" id="cluster_dh"><polygon fill="#F2F2F2" points="2041.875,688.3683,2053.3333,676.91,2351.25,676.91,2351.25,824.7225,2339.7917,836.1808,2041.875,836.1808,2041.875,688.3683" style="stroke:#555555;stroke-width:1.1458;"/><line style="stroke:#555555;stroke-width:1.1458;" x1="2339.7917" x2="2351.25" y1="688.3683" y2="676.91"/><line style="stroke:#555555;stroke-width:1.1458;" x1="2041.875" x2="2339.7917" y1="688.3683" y2="688.3683"/><line style="stroke:#555555;stroke-width:1.1458;" x1="2339.7917" x2="2339.7917" y1="688.3683" y2="836.1808"/><text fill="#000000" font-family="Helvetica" font-size="13.75" font-style="italic" lengthAdjust="spacing" textLength="62.1368" x="2160.9107" y="704.5689">&#171;device&#187;</text><text fill="#000000" font-family="Helvetica" font-size="13.75" font-weight="bold" lengthAdjust="spacing" textLength="169.3707" x="2107.2938" y="720.5747">Optional: Docker host</text></g><!--entity br--><g class="entity" data-entity="br" data-source-line="9" data-uid="ent0003" id="entity_br"><polygon fill="#F2F2F2" points="476.0937,163.5767,487.5521,152.1183,696.9598,152.1183,696.9598,207.0467,685.5015,218.505,476.0937,218.505,476.0937,163.5767" style="stroke:#555555;stroke-width:0.5729;"/><line style="stroke:#555555;stroke-width:0.5729;" x1="685.5015" x2="696.9598" y1="163.5767" y2="152.1183"/><line style="stroke:#555555;stroke-width:0.5729;" x1="476.0937" x2="685.5015" y1="163.5767" y2="163.5767"/><line style="stroke:#555555;stroke-width:0.5729;" x1="685.5015" x2="685.5015" y1="163.5767" y2="218.505"/><text fill="#000000" font-family="Helvetica" font-size="13.75" font-style="italic" lengthAdjust="spacing" textLength="172.7411" x="494.4271" y="187.7981">&#171;executionEnvironment&#187;</text><text fill="#000000" font-family="Helvetica" font-size="13.75" lengthAdjust="spacing" textLength="91.1743" x="535.2105" y="203.8039">Web Browser</text></g><!--entity hostpad--><!--entity h2--><g class="entity" data-entity="h2" data-source-line="25" data-uid="ent0016" id="entity_h2"><polygon fill="#F2F2F2" points="1736.5104,746.8058,1747.9688,735.3475,1969.5331,735.3475,1969.5331,806.2817,1958.0747,817.7401,1736.5104,817.7401,1736.5104,746.8058" style="stroke:#555555;stroke-width:0.5729;"/><line style="stroke:#555555;stroke-width:0.5729;" x1="1958.0747" x2="1969.5331" y1="746.8058" y2="735.3475"/><line style="stroke:#555555;stroke-width:0.5729;" x1="1736.5104" x2="1958.0747" y1="746.8058" y2="746.8058"/><line style="stroke:#555555;stroke-width:0.5729;" x1="1958.0747" x2="1958.0747" y1="746.8058" y2="817.7401"/><text fill="#000000" font-family="Helvetica" font-size="13.75" font-style="italic" lengthAdjust="spacing" textLength="172.7411" x="1760.922" y="771.0272">&#171;executionEnvironment&#187;</text><text fill="#000000" font-family="Helvetica" font-size="13.75" lengthAdjust="spacing" textLength="187.1893" x="1753.6979" y="787.0331">H2 in-memory (embedded)</text><text fill="#000000" font-family="Helvetica" font-size="13.75" lengthAdjust="spacing" textLength="78.9685" x="1753.6979" y="803.0389">ExampleDS</text></g><!--entity war--><g class="entity" data-entity="war" data-source-line="17" data-uid="ent0009" id="entity_war"><rect fill="#FFFFFF" height="74.3717" rx="2.2917" ry="2.2917" style="stroke:#181818;stroke-width:0.5729;" width="239.7589" x="958.4896" y="739.3579"/><polygon fill="#FFFFFF" points="1178.7693,745.0871,1178.7693,761.1287,1192.5193,761.1287,1192.5193,751.9621,1185.6443,745.0871,1178.7693,745.0871" style="stroke:#181818;stroke-width:0.5729;"/><line style="stroke:#181818;stroke-width:0.5729;" x1="1185.6443" x2="1185.6443" y1="745.0871" y2="751.9621"/><line style="stroke:#181818;stroke-width:0.5729;" x1="1192.5193" x2="1185.6443" y1="751.9621" y2="751.9621"/><text fill="#000000" font-family="Helvetica" font-size="13.75" font-style="italic" lengthAdjust="spacing" textLength="66.4807" x="1039.3995" y="767.0168">&#171;artifact&#187;</text><text fill="#000000" font-family="Helvetica" font-size="13.75" lengthAdjust="spacing" textLength="162.7643" x="969.9479" y="783.0227">applicationPetstore.war</text><text fill="#000000" font-family="Helvetica" font-size="13.75" lengthAdjust="spacing" textLength="205.3839" x="969.9479" y="799.0285">(built as petstoreee7-7.0.war)</text></g><!--entity pxml--><g class="entity" data-entity="pxml" data-source-line="18" data-uid="ent0010" id="entity_pxml"><rect fill="#FFFFFF" height="74.3717" rx="2.2917" ry="2.2917" style="stroke:#181818;stroke-width:0.5729;" width="262.774" x="1397.3438" y="525.66"/><polygon fill="#FFFFFF" points="1640.6386,531.3892,1640.6386,547.4308,1654.3886,547.4308,1654.3886,538.2642,1647.5136,531.3892,1640.6386,531.3892" style="stroke:#181818;stroke-width:0.5729;"/><line style="stroke:#181818;stroke-width:0.5729;" x1="1647.5136" x2="1647.5136" y1="531.3892" y2="538.2642"/><line style="stroke:#181818;stroke-width:0.5729;" x1="1654.3886" x2="1647.5136" y1="538.2642" y2="538.2642"/><text fill="#000000" font-family="Helvetica" font-size="13.75" font-style="italic" lengthAdjust="spacing" textLength="135.4993" x="1455.252" y="553.3189">&#171;deployment spec&#187;</text><text fill="#000000" font-family="Helvetica" font-size="13.75" lengthAdjust="spacing" textLength="109.295" x="1408.8021" y="569.3247">persistence.xml</text><text fill="#000000" font-family="Helvetica" font-size="13.75" lengthAdjust="spacing" textLength="228.399" x="1408.8021" y="585.3306">(unit: applicationPetstorePU, JTA)</text></g><!--entity bxml--><g class="entity" data-entity="bxml" data-source-line="19" data-uid="ent0011" id="entity_bxml"><rect fill="#FFFFFF" height="74.3717" rx="2.2917" ry="2.2917" style="stroke:#181818;stroke-width:0.5729;" width="270.1996" x="1086.25" y="525.66"/><polygon fill="#FFFFFF" points="1336.9704,531.3892,1336.9704,547.4308,1350.7204,547.4308,1350.7204,538.2642,1343.8454,531.3892,1336.9704,531.3892" style="stroke:#181818;stroke-width:0.5729;"/><line style="stroke:#181818;stroke-width:0.5729;" x1="1343.8454" x2="1343.8454" y1="531.3892" y2="538.2642"/><line style="stroke:#181818;stroke-width:0.5729;" x1="1350.7204" x2="1343.8454" y1="538.2642" y2="538.2642"/><text fill="#000000" font-family="Helvetica" font-size="13.75" font-style="italic" lengthAdjust="spacing" textLength="135.4993" x="1147.871" y="553.3189">&#171;deployment spec&#187;</text><text fill="#000000" font-family="Helvetica" font-size="13.75" lengthAdjust="spacing" textLength="71.214" x="1097.7083" y="569.3247">beans.xml</text><text fill="#000000" font-family="Helvetica" font-size="13.75" lengthAdjust="spacing" textLength="235.8246" x="1097.7083" y="585.3306">(bean-discovery=all, interceptors)</text></g><!--entity wxml--><g class="entity" data-entity="wxml" data-source-line="20" data-uid="ent0012" id="entity_wxml"><rect fill="#FFFFFF" height="58.3659" rx="2.2917" ry="2.2917" style="stroke:#181818;stroke-width:0.5729;" width="219.1138" x="826.7188" y="533.6808"/><polygon fill="#FFFFFF" points="1026.3534,539.41,1026.3534,555.4517,1040.1034,555.4517,1040.1034,546.285,1033.2284,539.41,1026.3534,539.41" style="stroke:#181818;stroke-width:0.5729;"/><line style="stroke:#181818;stroke-width:0.5729;" x1="1033.2284" x2="1033.2284" y1="539.41" y2="546.285"/><line style="stroke:#181818;stroke-width:0.5729;" x1="1040.1034" x2="1033.2284" y1="546.285" y2="546.285"/><text fill="#000000" font-family="Helvetica" font-size="13.75" font-style="italic" lengthAdjust="spacing" textLength="135.4993" x="862.7968" y="561.3397">&#171;deployment spec&#187;</text><text fill="#000000" font-family="Helvetica" font-size="13.75" lengthAdjust="spacing" textLength="184.7388" x="838.1771" y="577.3456">web.xml / faces-config.xml</text></g><!--entity jaas--><g class="entity" data-entity="jaas" data-source-line="21" data-uid="ent0013" id="entity_jaas"><rect fill="#FFFFFF" height="74.3717" rx="2.2917" ry="2.2917" style="stroke:#181818;stroke-width:0.5729;" width="172.1659" x="614.1667" y="525.66"/><polygon fill="#FFFFFF" points="766.8534,531.3892,766.8534,547.4308,780.6034,547.4308,780.6034,538.2642,773.7284,531.3892,766.8534,531.3892" style="stroke:#181818;stroke-width:0.5729;"/><line style="stroke:#181818;stroke-width:0.5729;" x1="773.7284" x2="773.7284" y1="531.3892" y2="538.2642"/><line style="stroke:#181818;stroke-width:0.5729;" x1="780.6034" x2="773.7284" y1="538.2642" y2="538.2642"/><text fill="#000000" font-family="Helvetica" font-size="13.75" font-style="italic" lengthAdjust="spacing" textLength="135.4993" x="626.7708" y="553.3189">&#171;deployment spec&#187;</text><text fill="#000000" font-family="Helvetica" font-size="13.75" lengthAdjust="spacing" textLength="126.8921" x="631.0744" y="569.3247">petstore-test.login</text><text fill="#000000" font-family="Helvetica" font-size="13.75" lengthAdjust="spacing" textLength="88.7708" x="631.0744" y="585.3306">(JAAS config)</text></g><!--entity ut--><g class="entity" data-entity="ut" data-source-line="22" data-uid="ent0014" id="entity_ut"><polygon fill="#F2F2F2" points="352.3438,541.1287,363.8021,529.6704,573.2098,529.6704,573.2098,584.5988,561.7515,596.0571,352.3438,596.0571,352.3438,541.1287" style="stroke:#555555;stroke-width:0.5729;"/><line style="stroke:#555555;stroke-width:0.5729;" x1="561.7515" x2="573.2098" y1="541.1287" y2="529.6704"/><line style="stroke:#555555;stroke-width:0.5729;" x1="352.3438" x2="561.7515" y1="541.1287" y2="541.1287"/><line style="stroke:#555555;stroke-width:0.5729;" x1="561.7515" x2="561.7515" y1="541.1287" y2="596.0571"/><text fill="#000000" font-family="Helvetica" font-size="13.75" font-style="italic" lengthAdjust="spacing" textLength="172.7411" x="370.6771" y="565.3501">&#171;executionEnvironment&#187;</text><text fill="#000000" font-family="Helvetica" font-size="13.75" lengthAdjust="spacing" textLength="110.6647" x="401.7153" y="581.356">Undertow :8080</text></g><!--entity hib--><g class="entity" data-entity="hib" data-source-line="23" data-uid="ent0015" id="entity_hib"><rect fill="#FFFFFF" height="90.3776" rx="2.2917" ry="2.2917" style="stroke:#181818;stroke-width:0.5729;" width="158.0579" x="153.5417" y="517.6392"/><polygon fill="#FFFFFF" points="292.1204,523.3683,292.1204,539.41,305.8704,539.41,305.8704,530.2433,298.9954,523.3683,292.1204,523.3683" style="stroke:#181818;stroke-width:0.5729;"/><line style="stroke:#181818;stroke-width:0.5729;" x1="298.9954" x2="298.9954" y1="523.3683" y2="530.2433"/><line style="stroke:#181818;stroke-width:0.5729;" x1="305.8704" x2="298.9954" y1="530.2433" y2="530.2433"/><text fill="#000000" font-family="Helvetica" font-size="13.75" font-style="italic" lengthAdjust="spacing" textLength="66.4807" x="193.6011" y="545.2981">&#171;artifact&#187;</text><text fill="#000000" font-family="Helvetica" font-size="13.75" font-style="italic" lengthAdjust="spacing" textLength="61.2103" x="196.2363" y="561.3039">&#171;library&#187;</text><text fill="#000000" font-family="Helvetica" font-size="13.75" lengthAdjust="spacing" textLength="123.6829" x="165" y="577.3098">hibernate-core.jar</text><text fill="#000000" font-family="Helvetica" font-size="13.75" lengthAdjust="spacing" textLength="120.6818" x="165" y="593.3156">(JPA 2.1 provider)</text></g><!--entity pg--><g class="entity" data-entity="pg" data-source-line="30" data-uid="ent0018" id="entity_pg"><polygon fill="#F2F2F2" points="2059.6354,746.8058,2071.0938,735.3475,2333.5724,735.3475,2333.5724,806.2817,2322.1141,817.7401,2059.6354,817.7401,2059.6354,746.8058" style="stroke:#555555;stroke-width:0.5729;"/><line style="stroke:#555555;stroke-width:0.5729;" x1="2322.1141" x2="2333.5724" y1="746.8058" y2="735.3475"/><line style="stroke:#555555;stroke-width:0.5729;" x1="2059.6354" x2="2322.1141" y1="746.8058" y2="746.8058"/><line style="stroke:#555555;stroke-width:0.5729;" x1="2322.1141" x2="2322.1141" y1="746.8058" y2="817.7401"/><text fill="#000000" font-family="Helvetica" font-size="13.75" font-style="italic" lengthAdjust="spacing" textLength="172.7411" x="2104.5042" y="771.0272">&#171;executionEnvironment&#187;</text><text fill="#000000" font-family="Helvetica" font-size="13.75" lengthAdjust="spacing" textLength="143.3142" x="2076.8229" y="787.0331">postgres:9.6.5 :5432</text><text fill="#000000" font-family="Helvetica" font-size="13.75" lengthAdjust="spacing" textLength="228.1036" x="2076.8229" y="803.0389">(src/main/docker/postgresql.yml)</text></g><!--entity rc--><g class="entity" data-entity="rc" data-source-line="11" data-uid="ent0004" id="entity_rc"><polygon fill="#F2F2F2" points="279.5833,163.5767,291.0417,152.1183,435.269,152.1183,435.269,207.0467,423.8106,218.505,279.5833,218.505,279.5833,163.5767" style="stroke:#555555;stroke-width:0.5729;"/><line style="stroke:#555555;stroke-width:0.5729;" x1="423.8106" x2="435.269" y1="163.5767" y2="152.1183"/><line style="stroke:#555555;stroke-width:0.5729;" x1="279.5833" x2="423.8106" y1="163.5767" y2="163.5767"/><line style="stroke:#555555;stroke-width:0.5729;" x1="423.8106" x2="423.8106" y1="163.5767" y2="218.505"/><text fill="#000000" font-family="Helvetica" font-size="13.75" font-style="italic" lengthAdjust="spacing" textLength="62.1368" x="320.6286" y="187.7981">&#171;device&#187;</text><text fill="#000000" font-family="Helvetica" font-size="13.75" lengthAdjust="spacing" textLength="109.8523" x="296.7708" y="203.8039">REST Consumer</text></g><!--entity comps--><g class="entity" data-entity="comps" data-source-line="33" data-uid="ent0019" id="entity_comps"><rect fill="#F7FAFD" height="50.3809" rx="2.2917" ry="2.2917" style="stroke:#2F5D8A;stroke-width:0.5729;" width="329.4539" x="913.2292" y="974.2537"/><rect fill="#F7FAFD" height="11.4583" style="stroke:#2F5D8A;stroke-width:0.5729;" width="17.1875" x="1219.7664" y="979.9829"/><rect fill="#F7FAFD" height="2.2917" style="stroke:#2F5D8A;stroke-width:0.5729;" width="4.5833" x="1217.4748" y="982.2746"/><rect fill="#F7FAFD" height="2.2917" style="stroke:#2F5D8A;stroke-width:0.5729;" width="4.5833" x="1217.4748" y="986.8579"/><text fill="#000000" font-family="Helvetica" font-size="13.75" lengthAdjust="spacing" textLength="283.6206" x="930.4167" y="1009.9335">Web / Service / Domain components (06)</text></g><g class="entity" data-entity="GMN29" data-source-line="47" data-uid="ent0030" id="entity_GMN29"><path d="M2373.5938,751.3892 L2373.5938,802.2803 A2.2917,2.2917 0 0 0 2375.8854,804.5719 L2650.0758,804.5719 A2.2917,2.2917 0 0 0 2652.3675,802.2803 L2652.3675,760.5558 L2640.9092,749.0975 L2375.8854,749.0975 A2.2917,2.2917 0 0 0 2373.5938,751.3892" fill="#FFFBE6" style="stroke:#B59F3B;stroke-width:0.5729;"/><path d="M2640.9092,749.0975 L2640.9092,759.41 A1.1458,1.1458 0 0 0 2642.055,760.5558 L2652.3675,760.5558 L2640.9092,749.0975" fill="#FFFBE6" style="stroke:#B59F3B;stroke-width:1.1458;"/><text fill="#000000" font-family="Helvetica" font-size="12.6042" lengthAdjust="spacing" textLength="242.901" x="2380.4688" y="766.5261">schema-generation = drop-and-create</text><text fill="#000000" font-family="Helvetica" font-size="12.6042" lengthAdjust="spacing" textLength="254.7113" x="2380.4688" y="781.1982">+ init_db.sql load script on every deploy</text><text fill="#000000" font-family="Helvetica" font-size="12.6042" lengthAdjust="spacing" textLength="250.1939" x="2380.4688" y="795.8702">(Finding OPS-01: unsafe for production)</text></g><!--link war to comps--><g class="link" data-entity-1="war" data-entity-2="comps" data-source-line="35" data-uid="lnk20" id="link_war_comps"><path d="M1078.2292,814.1694 C1078.2292,859.4412 1078.2292,928.5694 1078.2292,967.2527" fill="none" id="war-to-comps" style="stroke:#333333;stroke-width:1.1458;stroke-dasharray:8.0208,8.0208;"/><polygon fill="#333333" points="1078.2292,974.1277,1082.8125,963.8152,1078.2292,968.3985,1073.6458,963.8152,1078.2292,974.1277" style="stroke:#333333;stroke-width:1.1458;"/><text fill="#000000" font-family="Helvetica" font-size="12.6042" lengthAdjust="spacing" textLength="70.6153" x="1079.375" y="936.6824">&#171;manifest&#187;</text></g><!--link pxml to war--><g class="link" data-entity-1="pxml" data-entity-2="war" data-source-line="36" data-uid="lnk21" id="link_pxml_war"><path d="M1406.8771,600.2423 C1322.3948,625.8173 1221.7563,657.3162 1203.125,667.7433 C1169.1396,686.7527 1140.9128,711.1369 1117.3316,734.3515" fill="none" id="pxml-to-war" style="stroke:#333333;stroke-width:1.1458;stroke-dasharray:8.0208,8.0208;"/><polygon fill="#333333" points="1112.4323,739.1746,1122.9967,735.2061,1116.515,735.1553,1116.5658,728.6737,1112.4323,739.1746" style="stroke:#333333;stroke-width:1.1458;"/></g><!--link bxml to war--><g class="link" data-entity-1="bxml" data-entity-2="war" data-source-line="37" data-uid="lnk22" id="link_bxml_war"><path d="M1196.8344,600.3912 C1170.526,639.2235 1132.9019,694.7414 1106.6279,733.5393" fill="none" id="bxml-to-war" style="stroke:#333333;stroke-width:1.1458;stroke-dasharray:8.0208,8.0208;"/><polygon fill="#333333" points="1102.7729,739.2319,1112.3504,733.2631,1105.9854,734.4881,1104.7604,728.1231,1102.7729,739.2319" style="stroke:#333333;stroke-width:1.1458;"/></g><!--link wxml to war--><g class="link" data-entity-1="wxml" data-entity-2="war" data-source-line="38" data-uid="lnk23" id="link_wxml_war"><path d="M955.0177,592.1183 C980.4552,629.9652 1021.9495,691.7143 1049.9651,733.3998" fill="none" id="wxml-to-war" style="stroke:#333333;stroke-width:1.1458;stroke-dasharray:8.0208,8.0208;"/><polygon fill="#333333" points="1053.8,739.1058,1051.8517,727.9901,1050.6043,734.3508,1044.2436,733.1033,1053.8,739.1058" style="stroke:#333333;stroke-width:1.1458;"/></g><!--link jaas to war--><g class="link" data-entity-1="jaas" data-entity-2="war" data-source-line="39" data-uid="lnk24" id="link_jaas_war"><path d="M764.6719,600.1506 C834.1781,639.0058 938.0857,697.1019 1007.6034,735.9685" fill="none" id="jaas-to-war" style="stroke:#333333;stroke-width:1.1458;stroke-dasharray:8.0208,8.0208;"/><polygon fill="#333333" points="1013.6042,739.3235,1006.8396,730.2905,1008.6035,736.5277,1002.3663,738.2916,1013.6042,739.3235" style="stroke:#333333;stroke-width:1.1458;"/></g><!--link br to ut--><g class="link" data-entity-1="br" data-entity-2="ut" data-source-line="41" data-uid="lnk25" id="link_br_ut"><path d="M576.0104,218.8173 C552.6125,289.7444 497.0052,458.3881 473.5958,529.384" fill="none" id="br-ut" style="stroke:#333333;stroke-width:1.1458;"/><text fill="#000000" font-family="Helvetica" font-size="12.6042" lengthAdjust="spacing" textLength="50.312" x="563.75" y="268.0886">HTTP(S)</text></g><!--link rc to ut--><g class="link" data-entity-1="rc" data-entity-2="ut" data-source-line="42" data-uid="lnk26" id="link_rc_ut"><path d="M363.3094,218.8631 C366.3573,234.7444 370.3448,254.0975 374.6875,271.285 C398.6354,366.0683 434.2021,476.011 451.974,529.361" fill="none" id="rc-ut" style="stroke:#333333;stroke-width:1.1458;"/><text fill="#000000" font-family="Helvetica" font-size="12.6042" lengthAdjust="spacing" textLength="141.5753" x="375.8333" y="268.0886">HTTP JSON/XML /rest/*</text></g><!--link wf to h2--><g class="link" data-entity-1="wf" data-entity-2="h2" data-source-line="43" data-uid="lnk27" id="link_wf_h2"><path d="M1709.7553,576.9972 C1709.8628,577.1463 1709.9711,577.2966 1710.0802,577.448 C1710.2984,577.7508 1710.5198,578.058 1710.7444,578.3696 C1711.1936,578.9929 1711.6554,579.6336 1712.1295,580.2913 C1713.0775,581.6068 1714.0745,582.99 1715.1172,584.4366 C1723.4583,596.0091 1734.7208,611.6333 1747.2311,628.9884 C1772.2518,663.6985 1802.2641,705.3324 1823.8802,735.3246" fill="none" id="wf-h2" style="stroke:#333333;stroke-width:1.1458;"/><text fill="#000000" font-family="Helvetica" font-size="12.6042" lengthAdjust="spacing" textLength="184.4098" x="1768.0208" y="655.3803">JDBC (JTA via hibernate-core)</text></g><!--link wf to pg--><g class="link" data-entity-1="wf" data-entity-2="pg" data-source-line="44" data-uid="lnk28" id="link_wf_pg"><path d="M1709.908,565.5877 C1710.0731,565.6154 1710.2403,565.6436 1710.4095,565.6721 C1710.7478,565.7291 1711.0941,565.7877 1711.4482,565.8477 C1712.1566,565.9679 1712.8964,566.094 1713.6671,566.2263 C1715.2083,566.4908 1716.8726,566.7795 1718.6538,567.0927 C1722.2162,567.719 1726.2462,568.4427 1730.6948,569.2647 C1748.489,572.5525 1772.9801,577.4116 1801.028,583.8884 C1857.1237,596.842 1927.4464,616.2668 1986.875,642.535 C2043.25,667.4569 2102.0656,706.0027 2143.0177,735.1871" fill="none" id="wf-pg" style="stroke:#333333;stroke-width:1.1458;"/><text fill="#000000" font-family="Helvetica" font-size="12.6042" lengthAdjust="spacing" textLength="171.9287" x="2017.8125" y="655.3803">JDBC (not wired by default)</text></g><!--link h2 to GMN29--><g class="link" data-entity-1="h2" data-entity-2="GMN29" data-source-line="47" data-uid="lnk31" id="link_h2_GMN29"><path d="M1897.7063,735.336 C1937.5125,701.7631 1998.9521,656.9267 2061.9271,637.9517 C2176.5104,603.4162 2217.8292,599.6235 2331.1979,637.9517 C2396.0177,659.8715 2455.9448,715.2037 2488.1427,748.96" fill="none" id="h2-GMN29" style="stroke:#333333;stroke-width:1.1458;stroke-dasharray:8.0208,8.0208;"/></g><!--SRC=[ZLLTSzCu57tthxZR5veGAnz0Mp8bGsZIwMGMcY5bsGTc6DcwJWIoP2GvQMQd_vqhsmbffsLvyLZIqRdVHy_WxNUfnH0cM2YppL7xw1cyTMMUSxiTmiTIUvaZU5COPPQq8t0jKtGTm5jCIo-D1jHhQOqEbnqSp_vvtu7FKebBjUs0u9udt66h0znwcV7KqrsnjmQkm5HcCkM1YgxJ4Mg1EjsIKV0hRC0ezWGTwBzc0_Qo1LmBE3_FkPOPEZyQiUWlgLDL2WJ6kb-TtofaiinLv91COS4jzyQ2DXgZd4kTMKxHjTjaezs6EVe57MCJTUIbLtYG6fX8lgGR4Ey2X7wFiS49s2PF6-bNCBiPmuJYNfZIfXX5sf0_HnTALXHL_ew0EqZhdVFpEgUZ4VmN0TJepvZ0Esis3cs5JIpXzYcV_ihuQ1JTDHO-JXStS45PBFFcbaqFs7UEZ8j2DVc61TerMhWopbSNLlJpq2754rHm17j0mSNUJwesbPolEPmzRrM8R-lyILShlds8JGe79wpFNh1BgRdweckowHHEuR9KgXiIKLYJIOKr_oRxFthOTmeSyL_1KdLTg2xRS4jsab8g7mYBPX_nD3vblN3SME8XwJikIk13yWAjayvJioAxpOFpfPP-28yOdN_gXBweYGi2Lrc-DmMF64YGQzTGX_zOI9SQgjZs3LUg0r9xf1Oho8AhgPC_fTvW4eYX2xH65wT6Pt8PjkhO_vHdbxtOqmGoqWYfGn77umNKb4rNSFeypLTtn2SQVElD1ePdlRDUTQ_qJ_VzGrTMCa6hkKSAXihyhIhpR3w60Uk77bfBeg_T8UYzqj92oSIIvZMyTmUDUZMWHCSvviPkuHZp18L0qVgYfxSyBnHE5ZNdu7Uktj6ODWDuNGG0LwIw9lrEuxVQZPzOFQu61G6M5jtmDJjXhs3uwkMB0SNcRDeDAjOL5Kzt1_kXs3PNJQyjVoSSKMhoWiIGwb59JhTI139FVnCJk66F877kdTIaOSz5KHWGnaRr4eRtf3YgcZoS4YfA3XURmqNL6Bj5H38Nnw7eGxYwkPaVBreHQTZX5imMrn-w_xx_6xeKgU-s8n840b3sXp2RlBiWEIBzNKiEz_kXrG0f8JkWDfuKszBJacpfcSbugNmhLCaZMBbSUJ0P4LCPNBh2dCTBr6XhvNm3mfeYfXSeJYsI4K8zfpwH_gj869K0bE62BbfP40-zac5icyUCiCUaTqBg9LpF5t6lFuHIEvuXPFGyKQ-ACWrcMX4zXX0S-Wa0]--></g></svg>